<svg width="100" height="101" viewBox="0 0 100 101" fill="none" xmlns="http://www.w3.org/2000/svg">
<g clip-path="url(#clip0_8191_79392)">
<path d="M50.6758 98.8413C77.0851 98.8413 98.4941 77.4323 98.4941 51.0229C98.4941 24.6136 77.0851 3.20459 50.6758 3.20459C24.2664 3.20459 2.85742 24.6136 2.85742 51.0229C2.85742 77.4323 24.2664 98.8413 50.6758 98.8413Z" fill="#514BDB"/>
<path d="M35.3685 90.2259C36.1987 89.8821 36.5929 88.9303 36.249 88.1002C35.9052 87.27 34.9534 86.8758 34.1233 87.2197C33.2931 87.5635 32.8989 88.5153 33.2428 89.3454C33.5866 90.1756 34.5384 90.5698 35.3685 90.2259Z" fill="white"/>
<path d="M74.9071 9.29373C75.0511 8.40677 74.4488 7.57107 73.5618 7.42712C72.6749 7.28318 71.8392 7.8855 71.6952 8.77245C71.5513 9.6594 72.1536 10.4951 73.0405 10.6391C73.9275 10.783 74.7632 10.1807 74.9071 9.29373Z" fill="#B8CBFE"/>
<path d="M89.0511 76.4054C90.7128 80.5884 88.6615 85.3446 84.4791 87.0067C80.2962 88.6692 75.5398 86.6185 73.8773 82.4347C72.2144 78.2523 74.266 73.4958 78.4484 71.8337C82.6318 70.1714 87.3878 72.2216 89.0511 76.4054ZM76.0064 81.5896C77.2019 84.5985 80.6234 86.0741 83.6324 84.8778C86.6423 83.6823 88.1166 80.2608 86.9211 77.2519C85.7248 74.2419 82.3035 72.7669 79.2945 73.9628C76.2857 75.1589 74.8105 78.58 76.0064 81.5896Z" fill="#FEC900"/>
<path fill-rule="evenodd" clip-rule="evenodd" d="M63.8002 89.6602C64.3656 90.1434 64.9766 90.5197 65.4727 91.1678C64.5627 92.0727 64.2397 92.6807 63.008 93.0951C62.1344 93.3891 61.2172 93.3729 60.3184 93.3248C59.1844 93.2643 58.1783 92.8873 57.0254 93.5342C55.9379 94.1447 55.5668 95.4609 54.3469 96.0783C52.7854 96.8691 51.2109 96.5564 49.8912 96.3629C49.24 96.2668 48.718 96.0545 47.8396 96.5322C47.2289 96.8643 46.8322 97.5463 46.2859 98.0904C44.9086 99.4586 43.273 100.128 41.4131 99.4705C41.5346 98.799 41.8543 98.2107 42.0307 97.5641C44.7311 97.9301 45.0486 94.9326 47.7256 94.127C49.6873 93.5357 51.6775 94.8984 53.323 94.0422C53.9387 93.7229 54.3631 92.941 54.7629 92.5311C55.257 92.0244 55.8129 91.5047 56.5463 91.2113C58.4504 90.4492 60.7373 91.6928 62.4943 90.8521C63.0793 90.5725 63.2754 90.1213 63.8002 89.6602Z" fill="#79BB35"/>
<path fill-rule="evenodd" clip-rule="evenodd" d="M51.4971 3.679L52.2469 6.82686L54.5994 4.60361L56.9512 2.38018L53.8496 1.45518L50.748 0.530762L51.4971 3.679Z" fill="#FE5D0D"/>
<path fill-rule="evenodd" clip-rule="evenodd" d="M97.5922 44.9354L99.9998 45.7253L99.4805 43.2444L98.9607 40.7642L97.0727 42.4544L95.1846 44.145L97.5922 44.9354Z" fill="#79BB35"/>
<path d="M20.1446 82.1779L15.8232 85.6733L19.3182 89.9941L23.6395 86.4987L20.1446 82.1779Z" fill="#FEC900"/>
<path d="M23.4797 61.2311C23.0648 60.7966 22.4467 60.6235 21.8638 60.7757L13.5443 63.0018L20.0316 56.321C20.4699 55.87 20.6121 55.1975 20.3935 54.6079C20.1758 54.0182 19.631 53.5995 19.0049 53.5417L7.55251 52.4825L17.925 47.3301C18.4357 47.0768 18.773 46.5866 18.8285 46.0192C18.884 45.4514 18.6478 44.9049 18.1957 44.5577L11.923 39.7315L18.523 41.2768C19.1259 41.4188 19.7467 41.2139 20.1455 40.7448C20.5467 40.2764 20.6511 39.6307 20.4193 39.0589L15.8351 27.7938C15.6689 27.3864 15.3535 27.068 14.948 26.8981C14.5424 26.7278 14.0963 26.7262 13.6953 26.8923C13.2886 27.0573 12.9709 27.371 12.8008 27.7751C12.6301 28.1792 12.6269 28.6258 12.7924 29.0323L16.1793 37.3544L5.27322 34.8016C4.52439 34.6276 3.7447 35.0063 3.41814 35.6967C3.08884 36.3907 3.29118 37.2342 3.89958 37.7028L14.109 45.5581L0.911302 52.1135C0.257395 52.4385 -0.106276 53.1671 0.0275126 53.8852C0.161302 54.6042 0.762669 55.153 1.49021 55.2196L15.2838 56.4956L7.04353 64.9817C6.53064 65.5102 6.43279 66.3225 6.80583 66.9577C7.17966 67.5934 7.94079 67.9012 8.64587 67.7124L19.7914 64.7296L17.3588 72.2067C17.0797 73.0678 17.5523 73.9962 18.4135 74.276C18.6066 74.3389 18.8068 74.3653 19.0088 74.3546C19.681 74.3184 20.2732 73.8639 20.4824 73.2225L23.8502 62.8694C24.0363 62.2956 23.8947 61.668 23.4797 61.2311Z" fill="#B8CBFE"/>
<path d="M83.1837 76.841C97.6966 62.3281 97.6966 38.7979 83.1837 24.285C68.6707 9.77202 45.1406 9.77202 30.6276 24.285C16.1147 38.7979 16.1147 62.3281 30.6276 76.841C45.1406 91.354 68.6707 91.354 83.1837 76.841Z" fill="#1D1D1B"/>
<path d="M77.8046 72.2897C91.2593 58.8349 91.2593 37.0205 77.8046 23.5658C64.3498 10.1111 42.5354 10.1111 29.0807 23.5658C15.626 37.0205 15.626 58.8349 29.0807 72.2897C42.5354 85.7444 64.3498 85.7444 77.8046 72.2897Z" fill="white"/>
<path d="M42.4048 83.413C62.003 89.5094 82.8327 78.5643 88.9292 58.9661C95.0257 39.3678 84.0806 18.5382 64.4823 12.4417C44.8841 6.345 24.0544 17.2903 17.9577 36.8886C11.8612 56.4868 22.8065 77.3165 42.4048 83.413ZM23.3067 38.5524C28.4843 21.9085 46.1743 12.613 62.8182 17.7905C79.4624 22.968 88.7577 40.6581 83.5802 57.302C78.4026 73.9462 60.7126 83.2417 44.0684 78.0639C27.4245 72.8866 18.1292 55.1966 23.3067 38.5524Z" fill="#FE5D0D"/>
<path d="M61.8761 30.1238C62.2505 27.3688 60.3206 24.8313 57.5656 24.4568L54.4855 23.9805L54.3302 25.1133C53.0503 25.8699 52.1144 27.1801 51.8986 28.7676L48.646 52.7623C48.433 54.3289 48.9667 55.824 49.9722 56.8922L49.829 57.9357L52.6603 58.3736C52.7587 58.393 52.8556 58.4156 52.9564 58.4293C55.7115 58.8039 58.249 56.8738 58.6234 54.1187L61.8761 30.1238Z" fill="#1D1D1B"/>
<path d="M49.8276 57.945C52.5827 58.3196 55.1202 56.3896 55.4948 53.6345L58.7473 29.6398C59.1219 26.8847 57.1918 24.3472 54.4368 23.9728C51.6817 23.5982 49.1442 25.5282 48.7698 28.2833L45.5172 52.278C45.1424 55.0331 47.0725 57.5706 49.8276 57.945Z" fill="#FE5D0D"/>
<path d="M52.7903 60.9158L52.7913 60.9096L49.6762 60.4277L49.5151 61.4695C48.1702 62.2129 47.1784 63.5551 46.9555 65.1949C46.7415 66.7697 47.2823 68.2713 48.2977 69.3406L48.1372 70.3781L51.2522 70.86V70.8596C51.2569 70.8602 51.2614 70.8615 51.2659 70.8621C54.0212 71.2367 56.5583 69.3068 56.9331 66.5516C57.2999 63.8533 55.4544 61.3695 52.7903 60.9158Z" fill="#1D1D1B"/>
<path d="M49.4742 70.3775C52.2307 70.0124 54.1692 67.4819 53.8041 64.7255C53.439 61.969 50.9085 60.0305 48.1521 60.3956C45.3957 60.7607 43.4571 63.2912 43.8222 66.0476C44.1873 68.804 46.7178 70.7426 49.4742 70.3775Z" fill="#FE5D0D"/>
<path d="M23.0125 1.77269L37.0592 1.60648C40.7444 1.59534 43.7399 4.57249 43.7526 8.25784L43.784 18.1405C43.7965 21.8258 40.819 24.8235 37.1344 24.8356L36.6477 24.8369L36.8627 38.3262L28.1508 24.8649L23.0879 25.001C19.4041 25.0131 16.4065 22.0348 16.3948 18.3489L16.3623 8.46683C16.3506 4.78109 19.328 1.7848 23.0125 1.77269Z" fill="#FEC900"/>
<path d="M27.0646 21.7984C26.4066 21.7908 25.9971 21.1246 26.2814 20.5436C26.6846 19.7193 27.0998 18.901 27.5101 18.0803C27.906 17.2883 28.3023 16.4965 28.6982 15.7045C28.8146 15.4715 28.8144 15.4707 28.5744 15.3906C27.4851 15.0269 26.3947 14.6672 25.307 14.2986C24.75 14.11 24.7178 13.5781 24.8281 13.0201C24.891 12.7025 25.7053 8.00957 26.049 6.02636C26.1369 5.51953 26.5744 5.14824 27.0887 5.14414C28.9271 5.12949 33.0016 5.10761 33.276 5.20019C33.6248 5.31796 33.8215 5.5705 33.8754 5.933C33.9041 6.12558 33.8404 6.29921 33.7557 6.46835C32.9635 8.05214 32.1719 9.63652 31.3805 11.2205C31.2508 11.4803 31.251 11.4805 31.5176 11.5693C32.5705 11.9201 33.6236 12.2705 34.6764 12.6215C35.4254 12.8711 35.5996 13.5988 35.0426 14.156C32.606 16.5932 30.1683 19.0291 27.7338 21.4682C27.5387 21.6639 27.3209 21.7898 27.0646 21.7984Z" fill="white"/>
</g>
<defs>
<clipPath id="clip0_8191_79392">
<rect width="100" height="100" fill="white" transform="translate(0 0.12793)"/>
</clipPath>
</defs>
</svg>
