<svg width="55" height="56" viewBox="0 0 55 56" fill="none" xmlns="http://www.w3.org/2000/svg">
<path d="M3.31222 11.3906C3.31222 11.3906 2.63861 38.676 6.14173 48.8208H33.7908C33.7908 48.8208 30.5293 28.2205 31.0688 11.3906H3.31222Z" fill="#E0E0E0"/>
<path d="M6.7054 18.7704C6.69507 18.7703 6.68474 18.7697 6.67447 18.7686C6.63988 18.7646 6.60641 18.7539 6.57597 18.737C6.54553 18.7201 6.51872 18.6974 6.49708 18.6701C6.47544 18.6428 6.45938 18.6116 6.44984 18.5781C6.4403 18.5446 6.43745 18.5096 6.44146 18.475C6.51899 17.8077 7.17227 17.4024 7.77789 17.3471C8.98913 17.2367 10.2847 18.3132 13.1677 17.5589C14.5931 17.1856 14.7862 16.9716 16.185 17.2094C17.2572 17.3918 16.8623 17.3324 25.8077 17.1711C25.878 17.1697 25.9459 17.1962 25.9965 17.2449C26.0472 17.2935 26.0764 17.3603 26.0778 17.4306C26.0792 17.5008 26.0527 17.5687 26.004 17.6193C25.9553 17.67 25.8885 17.6992 25.8183 17.7006C16.7367 17.8595 17.2626 17.9296 16.0964 17.7316C14.8226 17.5145 14.7177 17.6998 13.3022 18.0705C10.4084 18.8281 8.77126 17.787 7.8264 17.8741C7.43801 17.9095 7.01086 18.1668 6.96786 18.5357C6.96048 18.6002 6.92968 18.6597 6.88129 18.703C6.83291 18.7462 6.77031 18.7702 6.7054 18.7704Z" fill="#0038A6"/>
<path d="M6.87318 23.7525C6.8076 23.7524 6.74438 23.728 6.69576 23.684C6.64714 23.64 6.61658 23.5795 6.60998 23.5143C6.60339 23.4491 6.62124 23.3837 6.66008 23.3309C6.69892 23.278 6.75598 23.2415 6.82022 23.2283C9.29354 22.722 9.93284 23.1866 11.7477 22.7712C13.4088 22.391 13.4348 22.6069 20.2375 22.6735C22.5908 22.7191 23.2438 22.6998 26.0903 22.392C26.1599 22.3849 26.2295 22.4056 26.2839 22.4496C26.3383 22.4936 26.373 22.5574 26.3805 22.627C26.3881 22.6965 26.3677 22.7662 26.324 22.8209C26.2803 22.8755 26.2167 22.9106 26.1472 22.9185C23.26 23.2307 22.5761 23.2483 20.2296 23.2031C13.3887 23.1326 13.4305 22.9292 11.8659 23.2878C10.0027 23.7142 9.32679 23.2561 6.92645 23.7475C6.90891 23.751 6.89106 23.7526 6.87318 23.7525Z" fill="#0038A6"/>
<path d="M6.8016 28.233C6.73535 28.2331 6.67149 28.2083 6.62263 28.1635C6.57376 28.1188 6.54344 28.0574 6.53764 27.9914C6.53184 27.9254 6.55099 27.8596 6.59131 27.8071C6.63162 27.7545 6.69018 27.719 6.75542 27.7075C9.04667 27.2993 10.5992 27.9781 13.3785 27.3921C15.2086 27.0059 15.0702 27.182 21.7336 27.0232C23.0444 27.002 24.3999 26.9795 25.7358 27.0337C25.7706 27.0351 25.8048 27.0434 25.8364 27.058C25.868 27.0725 25.8964 27.0932 25.92 27.1188C25.9436 27.1444 25.9619 27.1743 25.9739 27.207C25.986 27.2396 25.9914 27.2744 25.99 27.3091C25.9886 27.3439 25.9804 27.3781 25.9658 27.4096C25.9512 27.4412 25.9306 27.4696 25.905 27.4933C25.8794 27.5169 25.8495 27.5352 25.8168 27.5472C25.7841 27.5592 25.7494 27.5647 25.7147 27.5633C24.1305 27.4985 23.0986 27.5305 16.144 27.6444C13.9065 27.681 13.985 27.8653 12.6693 28.067C10.7183 28.3663 8.72034 27.8953 6.84873 28.229C6.83316 28.2317 6.81739 28.2331 6.8016 28.233Z" fill="#0038A6"/>
<path d="M7.0525 33.3781C6.99435 33.3782 6.93778 33.3591 6.89154 33.3239C6.84531 33.2886 6.81197 33.2391 6.79667 33.183C6.78138 33.1269 6.78498 33.0673 6.80693 33.0134C6.82888 32.9596 6.86794 32.9144 6.9181 32.885C8.50385 31.953 10.4637 32.599 12.0717 32.441C13.3956 32.3108 13.3248 32.0185 16.0848 32.0652C19.3152 32.1204 20.6357 31.4688 22.3787 31.8968C24.2509 32.3562 25.5705 31.2756 27.2925 31.6135C27.3605 31.6279 27.4201 31.6685 27.4585 31.7265C27.4968 31.7845 27.5108 31.8552 27.4974 31.9235C27.484 31.9917 27.4444 32.0519 27.387 32.0912C27.3295 32.1304 27.259 32.1455 27.1906 32.1331C25.7767 31.8555 24.2523 32.7705 22.6935 32.5077C21.7544 32.3495 21.9017 32.125 19.178 32.4367C17.7387 32.6014 17.3807 32.6167 16.0758 32.5947C13.3691 32.5495 13.4841 32.8344 12.1235 32.968C10.4627 33.1315 8.60119 32.5103 7.18638 33.3416C7.14582 33.3655 7.09959 33.3781 7.0525 33.3781Z" fill="#0038A6"/>
<path d="M7.89784 37.8293C7.82926 37.8291 7.76344 37.8024 7.71421 37.7546C7.66499 37.7069 7.63621 37.6419 7.63394 37.5733C7.63166 37.5048 7.65606 37.4381 7.702 37.3872C7.74794 37.3362 7.81185 37.3051 7.88026 37.3004C14.6126 36.845 12.3357 36.9967 14.4643 37.1744C15.121 37.2289 14.6896 37.2236 28.3089 36.5668C28.3438 36.5648 28.3787 36.5698 28.4117 36.5814C28.4447 36.593 28.4751 36.611 28.501 36.6344C28.527 36.6578 28.5481 36.6861 28.5631 36.7177C28.5781 36.7493 28.5867 36.7835 28.5884 36.8184C28.5901 36.8534 28.5848 36.8883 28.5729 36.9212C28.5611 36.954 28.5428 36.9842 28.5192 37.01C28.4956 37.0358 28.4671 37.0567 28.4354 37.0714C28.4036 37.0861 28.3693 37.0944 28.3344 37.0958C14.3007 37.7299 15.257 37.8345 13.7727 37.6227C12.6625 37.4647 12.8489 37.4956 7.91563 37.8287C7.90991 37.8291 7.90377 37.8293 7.89784 37.8293Z" fill="#0038A6"/>
<path d="M8.79398 42.9385C8.72376 42.9397 8.65593 42.9129 8.60543 42.8641C8.55493 42.8153 8.52589 42.7484 8.5247 42.6782C8.5235 42.608 8.55026 42.5401 8.59907 42.4896C8.64788 42.4391 8.71476 42.4101 8.78498 42.4089L18.3954 42.0787C21.1767 41.9833 20.7315 42.3508 22.6647 41.9506C24.031 41.6677 23.9188 41.7229 28.8704 41.7148C28.9406 41.7148 29.008 41.7427 29.0576 41.7924C29.1073 41.8421 29.1352 41.9094 29.1352 41.9796C29.1352 42.0499 29.1073 42.1172 29.0576 42.1669C29.008 42.2165 28.9406 42.2444 28.8704 42.2444C23.919 42.2525 24.0687 42.2008 22.7711 42.4692C20.7587 42.8857 21.1229 42.5153 18.4141 42.6078L8.80341 42.9383L8.79398 42.9385Z" fill="#0038A6"/>
<path d="M38.9774 12.7739C38.9774 12.7739 35.8036 11.27 36.534 7.63519C37.2644 4.00041 42.3871 4.04532 43.8315 5.59866C45.2758 7.152 45.6492 11.4232 41.9135 13.0255C41.4282 13.194 40.917 13.2753 40.4035 13.2658C39.6534 13.2258 38.9774 12.7739 38.9774 12.7739Z" fill="#FCC836"/>
<path d="M41.118 13.7532H41.106C41.0712 13.7517 41.0371 13.7433 41.0056 13.7286C40.9741 13.7139 40.9458 13.6931 40.9223 13.6674C40.8989 13.6418 40.8807 13.6117 40.8688 13.5791C40.8569 13.5464 40.8516 13.5116 40.8532 13.4769C40.8538 13.4641 40.8972 12.5116 41.0195 11.417C40.8313 11.4318 40.6473 11.4388 40.4746 11.439C40.3233 12.1519 40.069 12.839 39.7199 13.4787C39.7028 13.509 39.68 13.5357 39.6527 13.5572C39.6253 13.5787 39.594 13.5945 39.5605 13.6039C39.527 13.6133 39.492 13.616 39.4575 13.6119C39.423 13.6077 39.3896 13.5968 39.3593 13.5798C39.329 13.5628 39.3023 13.5399 39.2808 13.5126C39.2593 13.4852 39.2435 13.4539 39.2341 13.4204C39.2247 13.387 39.222 13.352 39.2261 13.3174C39.2303 13.2829 39.2412 13.2495 39.2582 13.2192C39.5677 12.6519 39.7967 12.0443 39.9386 11.4138C39.3171 11.3524 38.9078 11.188 38.7206 10.9241C38.266 10.283 38.8509 9.20971 39.5685 9.22676C39.7973 9.2328 40.1212 9.34931 40.3648 9.87009C40.5058 10.1975 40.5652 10.5544 40.5378 10.9099C40.72 10.9083 40.904 10.8981 41.0842 10.8804C41.1117 10.6733 41.1421 10.4655 41.1756 10.2625C41.2644 9.72371 41.5688 9.37282 42.0105 9.29868C42.869 9.15728 43.7167 10.076 43.1096 10.7296C42.809 11.053 42.1996 11.2512 41.5591 11.3531C41.4284 12.478 41.3823 13.4871 41.3817 13.5001C41.3787 13.5681 41.3496 13.6323 41.3005 13.6795C41.2514 13.7266 41.186 13.753 41.118 13.7532ZM39.5504 9.75612C39.2715 9.75612 38.9525 10.3352 39.153 10.6177C39.2217 10.7145 39.4863 10.8386 40.0091 10.8885C40.0329 10.6176 39.9905 10.345 39.8855 10.0941C39.7864 9.88227 39.6659 9.75867 39.555 9.75517L39.5504 9.75612ZM42.1812 9.81448C41.8812 9.81448 41.747 10.0514 41.6985 10.3487C41.6738 10.4982 41.6509 10.65 41.6296 10.8025C42.137 10.7052 42.5541 10.55 42.722 10.3693C42.9397 10.1347 42.503 9.81448 42.1808 9.81448H42.1812Z" fill="white"/>
<path d="M39.7107 15.6875C39.7107 15.6875 39.7213 16.2707 40.168 16.3089C40.6148 16.3471 40.7107 15.7732 40.7107 15.7732L39.7107 15.6875Z" fill="#9B377F"/>
<path d="M38.9773 12.7734C38.9773 12.7734 38.4091 15.9535 40.2504 16.0373C42.0917 16.1211 41.9132 13.025 41.9132 13.025C40.9278 13.0725 39.9403 12.9879 38.9773 12.7734Z" fill="#FF3D81"/>
<path d="M41.9428 14.2149L38.761 13.702C38.7267 13.6964 38.6938 13.6842 38.6642 13.6659C38.6346 13.6476 38.6089 13.6237 38.5886 13.5955C38.5475 13.5385 38.5308 13.4676 38.542 13.3982C38.5475 13.3639 38.5598 13.331 38.5781 13.3014C38.5964 13.2718 38.6203 13.2461 38.6485 13.2258C38.7055 13.1847 38.7764 13.168 38.8458 13.1792L42.0275 13.692C42.0969 13.7033 42.1589 13.7416 42.2 13.7986C42.2411 13.8555 42.2579 13.9265 42.2466 13.9958C42.2354 14.0652 42.1971 14.1272 42.1401 14.1683C42.0831 14.2094 42.0121 14.2262 41.9428 14.2149Z" fill="#9B377F"/>
<path d="M41.8869 14.7214C41.8466 14.7214 42.0446 14.749 38.7171 14.2138C38.6478 14.2026 38.5857 14.1643 38.5447 14.1073C38.5036 14.0503 38.4868 13.9793 38.498 13.91C38.5093 13.8407 38.5476 13.7786 38.6046 13.7375C38.6615 13.6964 38.7325 13.6797 38.8019 13.6909L41.9292 14.1951C41.995 14.2055 42.0545 14.2404 42.0957 14.2928C42.1369 14.3451 42.1569 14.4111 42.1516 14.4776C42.1463 14.544 42.1162 14.606 42.0672 14.6512C42.0182 14.6964 41.954 14.7214 41.8874 14.7214H41.8869Z" fill="#9B377F"/>
<path d="M41.7527 15.2178C41.7123 15.2178 41.8993 15.2436 38.7718 14.7412C38.7025 14.7299 38.6404 14.6916 38.5993 14.6346C38.5583 14.5776 38.5415 14.5067 38.5527 14.4373C38.564 14.368 38.6023 14.306 38.6593 14.2649C38.7162 14.2238 38.7872 14.207 38.8565 14.2183L41.7949 14.692C41.8607 14.7025 41.9202 14.7374 41.9614 14.7897C42.0026 14.8421 42.0226 14.9081 42.0173 14.9745C42.012 15.0409 41.9819 15.1029 41.9329 15.1481C41.884 15.1933 41.8197 15.2184 41.7531 15.2183L41.7527 15.2178Z" fill="#9B377F"/>
<path d="M41.5549 15.7084L38.8746 15.2763C38.8053 15.2651 38.7432 15.2268 38.7021 15.1698C38.661 15.1128 38.6443 15.0418 38.6555 14.9725C38.6667 14.9032 38.7051 14.8411 38.762 14.8C38.819 14.7589 38.89 14.7422 38.9593 14.7534L41.6397 15.1855C41.709 15.1968 41.7711 15.2351 41.8122 15.2921C41.8533 15.3491 41.87 15.42 41.8588 15.4894C41.8476 15.5587 41.8092 15.6207 41.7523 15.6618C41.6953 15.7029 41.6243 15.7197 41.555 15.7084H41.5549Z" fill="#9B377F"/>
<path d="M41.1333 4.3563H41.132C41.0973 4.35615 41.0629 4.34915 41.0308 4.3357C40.9987 4.32226 40.9696 4.30262 40.9451 4.27793C40.9207 4.25323 40.9013 4.22396 40.8881 4.19177C40.875 4.15959 40.8683 4.12512 40.8684 4.09035C40.8703 3.70345 40.8867 3.31209 40.9174 2.9272C40.9202 2.89254 40.9298 2.85876 40.9456 2.82781C40.9615 2.79685 40.9833 2.76931 41.0097 2.74677C41.0362 2.72423 41.0669 2.70712 41.1 2.69643C41.133 2.68573 41.1679 2.68166 41.2026 2.68444C41.2372 2.68722 41.271 2.69681 41.302 2.71264C41.3329 2.72847 41.3605 2.75025 41.383 2.77673C41.4055 2.8032 41.4226 2.83386 41.4333 2.86695C41.444 2.90003 41.4481 2.9349 41.4453 2.96956C41.4157 3.34143 41.3998 3.71933 41.398 4.09311C41.3976 4.16304 41.3695 4.22996 41.3199 4.27928C41.2703 4.32859 41.2032 4.35628 41.1333 4.3563Z" fill="#FCC836"/>
<path d="M36.1961 5.73898C35.9168 5.4796 35.6537 5.20342 35.408 4.912C35.3628 4.85829 35.3407 4.78881 35.3467 4.71883C35.3526 4.64885 35.3862 4.58412 35.4399 4.53886C35.4936 4.49361 35.5631 4.47155 35.6331 4.47752C35.703 4.4835 35.7678 4.51703 35.813 4.57074C36.0447 4.84566 36.2929 5.10617 36.5563 5.3508C36.5825 5.37426 36.6038 5.4027 36.6189 5.43447C36.634 5.46623 36.6426 5.50068 36.6442 5.53581C36.6458 5.57094 36.6404 5.60604 36.6284 5.63906C36.6163 5.67209 36.5977 5.70237 36.5738 5.72815C36.5499 5.75393 36.5211 5.77469 36.4891 5.78921C36.457 5.80374 36.4224 5.81174 36.3873 5.81275C36.3521 5.81375 36.3171 5.80775 36.2843 5.79509C36.2515 5.78242 36.2216 5.76335 36.1962 5.73898H36.1961Z" fill="#FCC836"/>
<path d="M44.9493 6.48719C44.9244 6.42155 44.9266 6.34869 44.9554 6.28466C44.9842 6.22062 45.0373 6.17065 45.1029 6.14573C45.501 5.99453 45.89 5.82051 46.268 5.62452C46.3301 5.59418 46.4016 5.58934 46.4673 5.61103C46.5329 5.63272 46.5875 5.67923 46.6193 5.74061C46.6511 5.80199 46.6576 5.87338 46.6375 5.93952C46.6174 6.00566 46.5722 6.06131 46.5116 6.09457C46.1156 6.29997 45.7081 6.48234 45.2911 6.64077C45.2586 6.65315 45.224 6.659 45.1892 6.65798C45.1544 6.65696 45.1201 6.6491 45.0884 6.63483C45.0567 6.62057 45.028 6.60019 45.0042 6.57485C44.9803 6.54952 44.9617 6.51973 44.9493 6.48719Z" fill="#FCC836"/>
<path d="M45.3758 10.1801C45.3413 10.176 45.3079 10.1651 45.2776 10.1481C45.2473 10.1311 45.2206 10.1082 45.1991 10.0809C45.1556 10.0257 45.1359 9.95557 45.1442 9.88584C45.1525 9.8161 45.1882 9.75252 45.2433 9.70908C45.2985 9.66564 45.3687 9.6459 45.4384 9.6542C45.9542 9.71535 46.4733 9.7445 46.9927 9.74147C47.0629 9.74126 47.1304 9.76896 47.1802 9.81847C47.23 9.86798 47.2581 9.93524 47.2583 10.0055C47.2585 10.0757 47.2308 10.1431 47.1813 10.1929C47.1318 10.2427 47.0645 10.2708 46.9943 10.271C46.4534 10.2742 45.9129 10.2438 45.3758 10.1801Z" fill="#FCC836"/>
<path d="M35.3398 9.26162C35.3329 9.26162 35.326 9.26161 35.3186 9.26087C34.7573 9.21745 34.1879 9.1844 33.6273 9.16258C33.5925 9.16124 33.5583 9.15305 33.5267 9.1385C33.4951 9.12394 33.4667 9.10331 33.443 9.07777C33.4194 9.05222 33.401 9.02228 33.389 8.98964C33.3769 8.95699 33.3714 8.9223 33.3728 8.88752C33.3741 8.85275 33.3823 8.81859 33.3968 8.78698C33.4114 8.75537 33.432 8.72694 33.4576 8.7033C33.4831 8.67967 33.5131 8.6613 33.5457 8.64924C33.5783 8.63718 33.613 8.63166 33.6478 8.63301C34.2152 8.65504 34.7911 8.68851 35.3594 8.73236C35.4277 8.73748 35.4914 8.7689 35.5371 8.82001C35.5827 8.87112 35.6068 8.93794 35.6042 9.00642C35.6016 9.0749 35.5726 9.13971 35.5232 9.18722C35.4738 9.23473 35.4079 9.26125 35.3394 9.26119L35.3398 9.26162Z" fill="#FCC836"/>
<path d="M35.9178 12.973C35.8915 12.9503 35.8698 12.9226 35.8541 12.8916C35.8384 12.8605 35.829 12.8267 35.8264 12.792C35.8238 12.7574 35.8281 12.7225 35.8389 12.6895C35.8498 12.6564 35.8671 12.6259 35.8898 12.5995C36.091 12.3659 36.2994 12.1335 36.5095 11.9101C36.5331 11.8843 36.5617 11.8634 36.5935 11.8487C36.6253 11.834 36.6597 11.8257 36.6947 11.8244C36.7297 11.8231 36.7646 11.8287 36.7974 11.841C36.8302 11.8533 36.8603 11.8719 36.8858 11.8959C36.9114 11.9199 36.9319 11.9487 36.9463 11.9807C36.9606 12.0126 36.9685 12.0471 36.9694 12.0821C36.9703 12.1172 36.9642 12.152 36.9516 12.1847C36.9389 12.2173 36.9199 12.2472 36.8956 12.2724C36.6908 12.4907 36.4874 12.7173 36.2913 12.945C36.2686 12.9714 36.2409 12.993 36.2099 13.0087C36.1788 13.0243 36.145 13.0337 36.1103 13.0363C36.0757 13.0389 36.0408 13.0347 36.0078 13.0238C35.9747 13.0129 35.9442 12.9956 35.9178 12.973Z" fill="#FCC836"/>
<path d="M44.2887 13.6357C44.1764 13.3931 43.9677 13.1624 43.6376 12.7611C43.593 12.7068 43.5718 12.6371 43.5786 12.5672C43.5855 12.4973 43.6198 12.4329 43.6741 12.3884C43.7283 12.3438 43.7981 12.3225 43.868 12.3294C43.9379 12.3362 44.0022 12.3705 44.0468 12.4248C44.3751 12.8246 44.6242 13.0998 44.7693 13.4133C44.7839 13.4449 44.7922 13.479 44.7936 13.5137C44.795 13.5485 44.7896 13.5832 44.7776 13.6158C44.7656 13.6484 44.7473 13.6784 44.7237 13.704C44.7001 13.7295 44.6718 13.7502 44.6402 13.7648C44.6087 13.7794 44.5745 13.7877 44.5398 13.7891C44.505 13.7905 44.4703 13.7851 44.4377 13.7731C44.4051 13.7611 44.3751 13.7428 44.3495 13.7192C44.324 13.6956 44.3033 13.6673 44.2887 13.6357Z" fill="#FCC836"/>
<path d="M29.249 6.64285L29.0083 4.25352C29.0007 4.17698 29.0225 4.10041 29.0694 4.03941C29.1162 3.9784 29.1846 3.93756 29.2605 3.92519L29.6884 3.85549C29.7599 3.84385 29.8332 3.85826 29.8949 3.89611C29.9567 3.93396 30.0028 3.99272 30.0249 4.06171L30.6864 6.12705L29.249 6.64285Z" fill="#0038A6"/>
<path d="M33.8306 40.4411L38.4789 53.1738C43.6528 52.8516 47.475 50.1787 50.6054 46.3022C47.4467 42.7646 44.7265 39.2046 43.0601 35.5905L42.3855 25.571C42.2765 23.952 41.6677 22.4067 40.643 21.1484L35.9639 15.4023L28.8676 16.121V20.8817L24.1968 29.0118C24.1968 29.0118 28.5533 38.7119 33.8306 40.4411Z" fill="#FFAD92"/>
<path d="M33.2063 26.4439L28.4084 19.742C28.4084 19.742 27.636 19.1322 26.8635 20.0266C26.0911 20.9211 26.4162 21.7669 26.4162 21.7669C26.4162 21.7669 25.3185 22.588 24.9123 23.645C24.506 24.702 24.6687 25.4746 24.6687 25.4746C24.6687 25.4746 23.6116 26.8569 23.2864 27.9139C22.9611 28.9709 26.1312 32.0608 26.1312 32.0608C26.1312 32.0608 28.6926 33.8497 29.5463 33.0364C29.5463 33.0364 29.9936 32.9959 29.8309 32.0608C30.019 32.1633 30.235 32.2029 30.4472 32.1736C30.6594 32.1444 30.8567 32.0478 31.01 31.8982C31.5792 31.3696 31.9857 30.5565 31.7417 29.5401C31.7422 29.5401 34.0189 28.8362 33.2063 26.4439Z" fill="#FFAD92"/>
<path d="M31.6087 6.50938L34.4885 16.8381L37.4822 34.5788L35.9933 35.0278L30.2599 16.6083L28.8326 7.0612C28.7999 6.84099 28.8454 6.6163 28.961 6.42609C29.0767 6.23589 29.2553 6.09216 29.4658 6.01985C29.8577 5.88699 30.2681 5.81703 30.6818 5.81257C30.8916 5.81002 31.0963 5.877 31.264 6.00306C31.4317 6.12912 31.5529 6.30716 31.6087 6.50938Z" fill="#FFC517"/>
<path d="M34.8411 37.3622C34.8411 37.3622 32.281 31.4338 35.1555 25.0113C35.1555 25.0113 34.0419 20.555 34.0663 18.0723C34.0663 18.0723 33.8193 14.9055 35.1555 14.5017C36.4916 14.098 37.0642 17.5333 37.0642 17.5333L41.1737 24.439L41.7464 35.117L34.8411 37.3622Z" fill="#FFAD92"/>
<path d="M30.1241 15.9936C30.1241 15.9936 28.9579 15.7092 28.0147 15.9936C27.0716 16.278 26.1958 17.2434 26.7796 18.1648C27.3634 19.0863 29.0249 20.9943 29.7213 21.668C30.4177 22.3416 32.0344 22.1845 31.8997 20.5676C31.765 18.9507 30.5747 18.0301 30.5747 18.0301L30.1241 15.9936Z" fill="#FFAD92"/>
<path d="M28.9266 7.69083C28.9266 7.69083 28.7103 7.59889 27.9693 8.07053C27.2284 8.54217 29.6872 15.6831 29.6534 16.8284C29.6196 17.9737 29.1145 18.2769 29.5187 18.479C29.9228 18.6811 30.2292 16.9974 30.1235 15.9939C30.0178 14.9904 28.9797 11.2362 28.6765 10.0071C28.3734 8.77793 28.1317 8.35947 29.0415 8.46072L28.9266 7.69083Z" fill="#5ED4BE"/>
<path d="M41.4013 24.3042L37.3168 17.4409C37.0789 16.0921 36.3828 13.8546 35.0787 14.2491C33.5974 14.6972 33.7714 17.6849 33.8014 18.082C33.7817 20.4073 34.7157 24.3301 34.8766 24.9876C33.4038 28.3307 33.3994 31.5278 33.6574 33.6284C33.9396 35.9247 34.5712 37.4062 34.5979 37.4682C34.6117 37.5001 34.6316 37.529 34.6566 37.5532C34.6815 37.5774 34.711 37.5965 34.7433 37.6093C34.7756 37.6221 34.8102 37.6285 34.8449 37.6279C34.8797 37.6274 34.914 37.62 34.946 37.6063C34.9779 37.5925 35.0068 37.5725 35.031 37.5476C35.0552 37.5226 35.0743 37.4931 35.0871 37.4608C35.0999 37.4285 35.1062 37.3939 35.1057 37.3592C35.1052 37.3244 35.0978 37.2901 35.084 37.2582C35.0589 37.2 32.6025 31.3643 35.3971 25.1203C35.4213 25.0662 35.4266 25.0055 35.4122 24.948C35.4016 24.9038 34.3072 20.4957 34.3311 18.0758C34.3311 18.0681 34.3311 18.0604 34.3302 18.0527C34.2709 17.2862 34.309 15.0352 35.2321 14.7561C36.2584 14.4445 36.8028 17.6127 36.8366 17.6696L40.9461 24.5752C40.982 24.6356 41.0404 24.6793 41.1085 24.6966C41.1766 24.7139 41.2488 24.7034 41.3092 24.6675C41.3696 24.6316 41.4132 24.5732 41.4306 24.5051C41.4479 24.437 41.4374 24.3648 41.4015 24.3044L41.4013 24.3042Z" fill="#DE896D"/>
<path d="M33.4565 26.3611C33.4481 26.3365 33.4362 26.3133 33.4211 26.2922L30.5656 22.3031C30.8416 22.3268 31.1191 22.2779 31.3705 22.1613C31.9376 21.8927 32.2265 21.3033 32.1633 20.545C32.0617 19.4852 31.5496 18.5072 30.7365 17.8199C30.681 17.7775 30.6109 17.7588 30.5416 17.7678C30.4723 17.7769 30.4094 17.8129 30.3666 17.8681C30.3238 17.9234 30.3045 17.9933 30.313 18.0626C30.3215 18.132 30.3571 18.1951 30.412 18.2384C30.4226 18.247 31.5126 19.1143 31.6355 20.589C31.6806 21.1306 31.5106 21.5089 31.1437 21.6827C30.9695 21.7564 30.7802 21.7871 30.5916 21.7722C30.403 21.7573 30.2208 21.6973 30.0603 21.5972L28.6238 19.5904C28.583 19.5333 28.5211 19.4947 28.4518 19.4833C28.3825 19.4718 28.3115 19.4883 28.2544 19.5292C28.1973 19.57 28.1588 19.6319 28.1473 19.7012C28.1358 19.7705 28.1523 19.8415 28.1932 19.8986C28.2391 19.9655 29.6255 21.8998 32.9674 26.568C33.1783 27.2103 33.165 27.7731 32.9278 28.2415C32.6454 28.7989 32.1085 29.0986 31.8346 29.2213L27.0375 22.7007C26.9956 22.6451 26.9334 22.6083 26.8645 22.5982C26.7955 22.5882 26.7254 22.6057 26.6693 22.647C26.6132 22.6883 26.5756 22.75 26.5647 22.8188C26.5538 22.8876 26.5704 22.9579 26.611 23.0145L31.4937 29.6524C31.5777 30.0229 31.5603 30.4093 31.4435 30.7708C31.3267 31.1323 31.1147 31.4558 30.8298 31.7071C30.7197 31.819 30.5764 31.8921 30.4213 31.9157C30.2662 31.9393 30.1076 31.912 29.9693 31.8379C28.1312 30.6782 25.191 26.0313 25.1615 25.9845C25.124 25.925 25.0645 25.8829 24.9961 25.8674C24.9276 25.8518 24.8557 25.8641 24.7963 25.9015C24.7369 25.939 24.6947 25.9985 24.6792 26.0669C24.6636 26.1354 24.6759 26.2073 24.7134 26.2667C24.8343 26.4586 27.6489 30.9058 29.5867 32.2202C29.638 32.6216 29.5458 32.7594 29.502 32.7785C29.4499 32.7872 29.4016 32.8114 29.3633 32.8478C28.8376 33.3489 27.0606 32.3897 26.2825 31.8467C26.2249 31.8065 26.1537 31.7908 26.0845 31.8031C26.0154 31.8154 25.9539 31.8546 25.9137 31.9122C25.8735 31.9698 25.8578 32.041 25.8701 32.1102C25.8824 32.1793 25.9217 32.2408 25.9792 32.281C26.8861 32.9142 28.8088 33.9838 29.6743 33.2791C30.0108 33.1615 30.1297 32.7939 30.1306 32.4377C30.3215 32.4656 30.5164 32.4492 30.7 32.3898C30.8837 32.3305 31.0512 32.2296 31.1897 32.0952C31.5204 31.8007 31.7719 31.428 31.9211 31.0111C32.0704 30.5942 32.1125 30.1465 32.0438 29.709C32.387 29.5568 33.0377 29.1901 33.3965 28.4868C33.7085 27.8757 33.7284 27.1611 33.4565 26.3611Z" fill="#DE896D"/>
</svg>
