<svg width="54" height="55" viewBox="0 0 54 55" fill="none" xmlns="http://www.w3.org/2000/svg">
<path d="M25.5277 30.8125C25.5277 30.8125 21.45 31.8072 20.2624 34.9589C19.0749 38.1105 25.5858 36.4409 25.5277 30.8125Z" fill="white"/>
<path d="M30.5009 27.5782C28.6922 27.5686 26.9322 28.4518 26.0954 28.8609L24.7268 31.5823C24.7268 31.5823 25.2696 32.4014 27.8583 30.5711C29.3983 29.4823 32.1969 29.7229 32.4252 33.5069C32.6536 37.2909 28.315 36.508 26.0316 41.76C23.7481 47.0119 27.2059 50.1761 28.7717 51.1221C30.3375 52.0681 30.5985 50.9916 31.1857 51.22C31.7728 51.4483 32.621 51.6114 32.9146 50.7633C33.17 50.0253 33.8949 50.3239 34.7665 49.1245C35.4839 50.0986 36.3389 50.7668 36.9269 51.1221C38.4927 52.0681 38.7537 50.9916 39.3409 51.22C39.9281 51.4483 40.7761 51.6114 41.0697 50.7633C41.3633 49.9151 42.2767 50.4371 43.3206 48.4798C44.3645 46.5226 42.0157 47.3707 40.5152 47.3055C39.0146 47.2402 38.1338 44.2391 41.0697 41.5642C44.0056 38.8893 44.0709 30.9299 41.5917 28.679C39.1125 26.4282 35.5569 28.2224 34.2507 28.8609L34.0023 29.3546C33.8314 29.0943 33.6429 28.8665 33.4365 28.679C32.5455 27.8701 31.5155 27.5837 30.5009 27.5782ZM37.8007 30.0069C39.1134 30.0217 40.427 30.9645 40.5805 33.5069C40.8088 37.2909 36.4703 36.508 34.1868 41.76C33.2363 43.9461 33.2809 45.7701 33.7694 47.2234C33.2967 47.2673 32.7935 47.3243 32.36 47.3055C30.8595 47.2402 29.9787 44.2391 32.9146 41.5642C35.1065 39.5671 35.698 34.6246 34.8254 31.3111C35.1634 31.134 35.5559 30.8946 36.0136 30.5711C36.5189 30.2138 37.1597 29.9997 37.8007 30.0069Z" fill="#000080"/>
<path d="M17.4763 19.8781C17.917 20.9223 18.0768 22.0346 17.9206 22.9703C17.7644 23.9061 17.305 24.5886 16.6434 24.8679C16.3159 25.0061 15.9485 25.0412 15.5624 24.9711C15.1762 24.9009 14.7789 24.727 14.3929 24.4592C14.007 24.1913 13.6401 23.8349 13.3131 23.4101C12.9862 22.9854 12.7056 22.5006 12.4874 21.9836C12.2692 21.4666 12.1176 20.9274 12.0414 20.3968C11.9651 19.8663 11.9657 19.3547 12.043 18.8914C12.1204 18.428 12.273 18.0219 12.4921 17.6964C12.7113 17.3708 12.9927 17.132 13.3202 16.9938C13.9818 16.7146 14.7913 16.8616 15.5707 17.4025C16.3502 17.9434 17.0356 18.8339 17.4763 19.8781Z" fill="#0047EB"/>
<path d="M38.426 37.0117C37.0673 37.9605 35.3573 39.0664 34.1866 41.7591C33.5414 43.2431 33.3551 44.5602 33.4546 45.7078C34.2317 45.47 35.0068 45.4065 35.3744 46.0926C36.0594 47.3714 36.5618 49.2894 37.4295 49.6776C38.1894 50.0176 38.1788 47.3806 39.3912 46.4899C38.8359 45.4042 39.0466 43.4064 41.0695 41.5633C41.2748 41.3763 41.4654 41.1626 41.6427 40.9277C41.4662 40.4018 41.2007 39.8972 40.8318 39.4478C39.9329 38.3525 39.1789 37.4771 38.426 37.0117ZM34.7782 38.0715C33.2869 39.5689 33.0387 40.7677 30.9538 41.4444C28.5925 42.2108 26.8343 41.9139 26.1264 44.2658C25.7512 45.5124 25.4531 45.8353 25.3611 46.2034C25.7761 48.7362 27.5784 50.3627 28.6553 51.0485C28.8909 49.5834 30.3673 47.3223 31.2855 46.5803C30.6703 45.5179 30.8339 43.4588 32.9144 41.5633C33.786 40.7692 34.4041 39.5093 34.7782 38.0715Z" fill="#00004F"/>
<path d="M23.2021 39.4648C22.6425 42.9184 22.7476 45.0714 23.9036 47.9474L27.4559 48.4481C28.6342 45.0649 28.9069 44.3494 29.3524 41.4374L23.2021 39.4648Z" fill="white"/>
<path d="M27.3649 43.1523C27.3578 43.1526 27.3508 43.1534 27.3439 43.1547C27.3262 43.1579 27.3093 43.1646 27.2942 43.1743C27.279 43.184 27.2659 43.1966 27.2557 43.2114C27.2454 43.2262 27.2381 43.2428 27.2343 43.2604C27.2305 43.278 27.2302 43.2962 27.2334 43.3139C27.2683 43.5062 27.2649 43.9226 27.2252 44.4276C27.1856 44.9326 27.1133 45.5341 27.0229 46.134C26.9326 46.734 26.8242 47.3324 26.7137 47.8317C26.6033 48.331 26.4862 48.7366 26.3965 48.9232C26.3886 48.9394 26.3841 48.957 26.383 48.975C26.382 48.993 26.3846 49.011 26.3905 49.028C26.3965 49.045 26.4057 49.0607 26.4177 49.0741C26.4297 49.0876 26.4443 49.0985 26.4605 49.1063C26.4767 49.1141 26.4944 49.1187 26.5123 49.1197C26.5303 49.1207 26.5484 49.1182 26.5654 49.1122C26.5824 49.1063 26.598 49.097 26.6114 49.085C26.6249 49.073 26.6358 49.0584 26.6436 49.0422C26.7578 48.8046 26.8688 48.3986 26.9811 47.8911C27.0934 47.3835 27.2025 46.7801 27.2937 46.1748C27.3848 45.5696 27.458 44.9629 27.4984 44.4488C27.5387 43.9348 27.5497 43.5214 27.503 43.265C27.4972 43.2328 27.4801 43.2038 27.4547 43.1831C27.4294 43.1625 27.3975 43.1515 27.3649 43.1523Z" fill="white"/>
<path d="M23.3589 48.2817C23.5905 48.9895 23.945 50.249 23.7713 50.6588C23.5976 51.0687 21.8264 51.2392 21.8264 52.7337C21.8264 53.2036 26.2308 53.069 27.1138 52.8641C27.9968 52.6592 27.7305 51.1131 27.4989 50.7405C27.2673 50.368 28.0056 48.5611 28.1937 48.0768C28.3819 47.5925 25.4579 47.5924 24.5604 47.6111C23.6629 47.6297 23.1563 47.7415 23.3589 48.2817Z" fill="#0047EB"/>
<path d="M33.4292 28.3555C33.4292 28.3555 39.4186 30.7223 42.3167 34.4416C43.3922 35.8218 44.0548 37.1951 44.4609 38.4435C43.1054 38.7278 40.4689 39.4131 38.9709 40.6758C37.9125 37.8685 36.8312 34.4359 34.83 32.4611L33.4292 28.3555Z" fill="white"/>
<path d="M37.6148 33.9375C37.6335 33.9373 37.652 33.941 37.6693 33.9482C37.6865 33.9555 37.702 33.9662 37.715 33.9796C37.715 33.9796 38.4109 34.7047 39.0597 35.5544C39.3842 35.9792 39.6976 36.4349 39.9086 36.8546C40.1196 37.2744 40.2469 37.6622 40.119 37.9783C39.9434 38.412 40.0453 38.9265 40.2033 39.3365C40.3612 39.7466 40.5657 40.0394 40.5657 40.0394C40.576 40.0542 40.5833 40.0709 40.5871 40.0884C40.591 40.106 40.5913 40.1242 40.5882 40.1419C40.585 40.1596 40.5784 40.1765 40.5687 40.1917C40.559 40.2069 40.5464 40.22 40.5316 40.2303C40.5169 40.2406 40.5003 40.2479 40.4827 40.2518C40.4651 40.2557 40.447 40.256 40.4292 40.2529C40.4115 40.2498 40.3946 40.2432 40.3794 40.2335C40.3643 40.2238 40.3511 40.2113 40.3408 40.1965C40.3408 40.1965 40.1185 39.8783 39.9477 39.435C39.777 38.9916 39.6483 38.4105 39.8648 37.8754C39.9329 37.7071 39.8613 37.371 39.6635 36.9777C39.4658 36.5843 39.1608 36.1377 38.8423 35.7206C38.2052 34.8863 37.5171 34.1694 37.5171 34.1694C37.492 34.1432 37.4783 34.1081 37.479 34.0719C37.4798 34.0356 37.4949 34.0011 37.521 33.9759C37.5462 33.9516 37.5798 33.9379 37.6148 33.9375Z" fill="white"/>
<path d="M33.4292 28.3555C33.4292 28.3555 35.0028 28.9783 36.9263 30.0847C36.7934 31.2462 37.6279 33.1269 38.094 34.6622C38.4696 35.8996 38.4641 37.0204 37.9121 37.842C37.1212 35.8111 36.1874 33.8006 34.83 32.4611L33.4292 28.3555Z" fill="#007BF1"/>
<path d="M44.2752 37.8778C43.3781 37.9594 38.8112 39.6719 38.6155 40.1612C38.4198 40.6506 39.3169 42.1837 39.6594 43.0808C40.0019 43.9779 40.8826 45.0381 42.6605 45.0381C44.4383 45.0381 45.1886 43.6517 45.2049 41.9554C45.2213 40.2591 44.8624 37.7799 44.2752 37.8778Z" fill="#0047EB"/>
<path d="M40.0957 41.7696C40.3148 41.9426 40.8221 42.7844 40.5339 43.1303C40.2456 43.4763 40.2456 44.0528 40.2686 44.1105C40.2917 44.1681 39.4614 44.2719 39.3 43.58C39.1386 42.8882 39.2539 41.7581 40.0957 41.7696Z" fill="#000080"/>
<path d="M45.0184 43.2695C45.0184 43.2695 44.2925 43.9955 43.1832 44.0118C42.0739 44.028 41.6661 43.6529 41.5356 43.9628C41.4051 44.2728 41.348 44.648 41.193 44.6725C41.0381 44.6969 40.8015 44.5256 40.8015 44.5256C40.8015 44.5256 40.826 45.0558 41.3154 45.2597C41.8048 45.4636 41.9189 45.0069 42.1065 45.1945C42.2942 45.3821 42.5388 45.5615 42.9793 45.3168C43.4198 45.0721 43.4687 45.5044 43.9418 45.1374C44.4148 44.7703 44.5046 45.0721 44.8308 44.4522C45.1571 43.8323 45.0184 43.2695 45.0184 43.2695Z" fill="#000080"/>
<path d="M24.0023 40.5625C23.8439 40.5625 23.7368 40.5747 23.6986 40.6027C23.582 40.6882 23.2682 40.9338 22.9726 41.1665C22.9243 41.6347 22.8932 42.0809 22.8806 42.5119C23.3097 43.0937 23.9933 43.841 24.9218 44.3052C26.2227 44.9557 27.5373 45.3618 28.2969 46.0049C28.7346 44.6781 28.9659 43.777 29.2172 42.2827C29.0374 42.0157 28.7577 41.7602 28.2817 41.5161C27.2083 40.9656 24.8576 40.5661 24.0023 40.5625Z" fill="#007BF1"/>
<path d="M36.6558 39.4766C38.0013 42.9301 38.3862 45.0831 37.8847 47.9591L34.4463 48.4598C32.4981 45.0767 32.0626 44.3612 30.9543 41.4491L36.6558 39.4766Z" fill="white"/>
<path d="M35.0599 44.1992C35.0917 44.1988 35.1252 44.2096 35.1545 44.2296C35.1839 44.2496 35.2073 44.2776 35.2208 44.3088C35.2208 44.3088 35.5414 45.0489 35.86 45.9977C36.1786 46.9466 36.4991 48.1032 36.4925 48.9679C36.4923 48.9854 36.4885 49.002 36.4813 49.0166C36.4741 49.0312 36.4636 49.0436 36.4505 49.053C36.4373 49.0625 36.4217 49.0688 36.4046 49.0717C36.3875 49.0746 36.3692 49.0739 36.3507 49.0698C36.3135 49.0614 36.278 49.0394 36.2519 49.0085C36.2258 48.9777 36.2112 48.9405 36.2115 48.9052C36.2177 48.106 35.9083 46.9623 35.5943 46.0271C35.2802 45.0918 34.9649 44.3638 34.9649 44.3638C34.9495 44.3282 34.9483 44.2913 34.9614 44.261C34.9745 44.2307 35.0008 44.2096 35.0347 44.2023C35.0428 44.2004 35.0512 44.1994 35.0599 44.1992Z" fill="white"/>
<path d="M36.6557 39.4766C37.3294 41.2057 37.7622 42.6088 37.9636 43.9399C36.7059 43.5676 34.5159 45.7264 32.7428 45.458C32.0631 44.1992 31.6352 43.2381 30.9543 41.4492L36.6557 39.4766Z" fill="#007BF1"/>
<path d="M38.5063 48.2935C38.4357 49.0015 38.1641 50.7341 38.4311 51.144C38.6981 51.5539 39.2151 52.2991 39.1721 52.7462C39.1291 53.1934 36.0199 53.0816 35.0901 52.8766C34.1603 52.6717 34.7784 51.1254 34.9253 50.7527C35.0721 50.3801 33.9225 48.573 33.6241 48.0886C33.3256 47.6042 36.2501 47.6042 37.152 47.6228C38.0539 47.6414 38.586 47.7532 38.5063 48.2935Z" fill="#0047EB"/>
<path d="M35.2751 51.576C35.5417 51.1568 36.6449 50.7562 37.502 51.2779C38.3591 51.7996 38.6527 51.9766 38.7941 51.93C38.9356 51.8834 38.1528 51.1475 37.9204 51.0171C37.6881 50.8867 37.6626 50.7749 37.8444 50.7469C38.0263 50.719 37.6705 50.5234 37.3527 50.6538C37.0349 50.7842 36.519 50.6165 35.9351 50.691C35.3513 50.7656 34.9704 51.8275 35.2751 51.576Z" fill="#000080"/>
<path d="M27.7034 28.4962C27.4669 28.4981 27.2343 28.551 27.005 28.6837C24.3409 30.2257 22.4456 35.4267 22.4456 39.2382C22.4456 43.0497 26.0128 45.0733 30.4131 45.0733C34.8135 45.0733 38.3807 42.7887 38.3807 38.912C38.3807 35.0352 36.4854 30.2257 33.8212 28.6837C32.7733 28.0772 31.6553 29.1352 30.4131 29.1352C29.4427 29.1352 28.548 28.4895 27.7034 28.4962Z" fill="white"/>
<path d="M37.8002 40.3711C37.7339 40.3711 37.6568 40.3772 37.567 40.3894C36.8494 40.4873 33.1469 40.7482 32.2498 41.4496C31.3527 42.1509 31.2223 42.3793 30.0317 42.1183C28.841 41.8574 28.2419 40.6504 27.161 40.6504C26.0925 40.6504 25.6279 41.6616 24.9265 41.5148C24.2252 41.368 22.5532 40.0958 22.5084 40.6177C22.5053 40.6549 22.5143 40.6992 22.5326 40.7483C22.6822 41.431 23.3801 43.1076 25.5422 44.1734C27.8583 45.3151 30.3537 45.152 30.3537 45.152C30.3537 45.152 32.8492 45.3151 35.1652 44.1734C37.4813 43.0317 38.1175 41.1886 38.199 40.6177C38.199 40.6177 38.2646 40.368 37.8002 40.3711Z" fill="#0047EB"/>
<path d="M37.1759 33.0991C35.7499 33.2533 34.2812 34.1496 33.3014 36.1361C32.7314 37.2916 31.6183 37.7243 30.6253 37.8716C29.6322 38.0189 28.7829 37.8716 28.7829 37.8716C28.7652 37.8685 28.747 37.8689 28.7294 37.8729C28.7119 37.8768 28.6953 37.8842 28.6806 37.8946C28.6658 37.9049 28.6533 37.9181 28.6437 37.9333C28.6341 37.9485 28.6275 37.9655 28.6245 37.9832C28.6184 38.0189 28.6267 38.0557 28.6476 38.0853C28.6685 38.1149 28.7003 38.135 28.7361 38.1412C28.7361 38.1412 29.6238 38.2964 30.6654 38.1412C31.7071 37.9868 32.9264 37.5145 33.5471 36.256C34.512 34.2998 35.9227 33.4747 37.2814 33.3603C37.2469 33.2722 37.2119 33.1846 37.1759 33.0977V33.0991ZM23.7285 33.0991C23.6928 33.1862 23.658 33.2741 23.6235 33.3623C23.9284 33.6015 24.3941 34.0861 24.4145 34.8295C24.431 35.4354 24.5175 36.0846 24.8598 36.6597C25.2021 37.2349 25.8012 37.7244 26.7973 38.0106C26.8146 38.0155 26.8326 38.0171 26.8505 38.0151C26.8684 38.0131 26.8857 38.0076 26.9015 37.9989C26.9172 37.9902 26.9311 37.9785 26.9423 37.9644C26.9535 37.9503 26.9618 37.9342 26.9668 37.9169C26.9718 37.8996 26.9734 37.8815 26.9713 37.8636C26.9693 37.8458 26.9638 37.8284 26.9551 37.8127C26.9464 37.7969 26.9347 37.7831 26.9206 37.7719C26.9065 37.7606 26.8904 37.7523 26.8731 37.7473C25.9278 37.4757 25.4013 37.0339 25.0951 36.5195C24.789 36.0052 24.7042 35.4069 24.6882 34.8221C24.6634 33.9182 24.071 33.3523 23.7285 33.0991Z" fill="white"/>
<path d="M29.7794 37.8803C29.7794 38.4298 29.5971 38.9568 29.2727 39.3453C28.9482 39.7338 28.5081 39.9521 28.0493 39.9521C27.5904 39.9521 27.1503 39.7338 26.8258 39.3453C26.5014 38.9568 26.3191 38.4298 26.3191 37.8803C26.3191 37.6083 26.3639 37.3389 26.4508 37.0875C26.5378 36.8362 26.6652 36.6078 26.8258 36.4154C26.9865 36.223 27.1772 36.0704 27.3871 35.9663C27.5971 35.8622 27.822 35.8086 28.0493 35.8086C28.2765 35.8086 28.5015 35.8622 28.7114 35.9663C28.9213 36.0704 29.112 36.223 29.2727 36.4154C29.4333 36.6078 29.5608 36.8362 29.6477 37.0875C29.7347 37.3389 29.7794 37.6083 29.7794 37.8803Z" fill="#000080"/>
<path d="M29.1925 37.8803C29.1925 38.4298 29.0102 38.9568 28.6857 39.3453C28.3613 39.7338 27.9212 39.9521 27.4623 39.9521C27.0035 39.9521 26.5634 39.7338 26.2389 39.3453C25.9144 38.9568 25.7322 38.4298 25.7322 37.8803C25.7322 37.6083 25.7769 37.3389 25.8639 37.0875C25.9508 36.8362 26.0783 36.6078 26.2389 36.4154C26.3996 36.223 26.5903 36.0704 26.8002 35.9663C27.0101 35.8622 27.2351 35.8086 27.4623 35.8086C27.6895 35.8086 27.9145 35.8622 28.1244 35.9663C28.3344 36.0704 28.5251 36.223 28.6857 36.4154C28.8464 36.6078 28.9738 36.8362 29.0608 37.0875C29.1477 37.3389 29.1925 37.6083 29.1925 37.8803Z" fill="#0047EB"/>
<path d="M28.0887 37.8755C28.0887 37.9741 28.0725 38.0717 28.041 38.1627C28.0095 38.2538 27.9634 38.3365 27.9052 38.4062C27.847 38.4759 27.7779 38.5312 27.7018 38.5689C27.6258 38.6066 27.5443 38.626 27.462 38.626C27.2957 38.626 27.1363 38.547 27.0188 38.4062C26.9012 38.2655 26.8352 38.0746 26.8352 37.8755C26.8352 37.6765 26.9012 37.4856 27.0188 37.3448C27.1363 37.2041 27.2957 37.125 27.462 37.125C27.5443 37.125 27.6258 37.1444 27.7018 37.1821C27.7779 37.2199 27.847 37.2751 27.9052 37.3448C27.9634 37.4145 28.0095 37.4973 28.041 37.5883C28.0725 37.6794 28.0887 37.777 28.0887 37.8755Z" fill="white"/>
<path d="M27.4617 36.3281C26.7454 36.3281 26.1623 37.0263 26.1624 37.884C26.1623 38.7417 26.7454 39.44 27.4617 39.44C28.178 39.44 28.7611 38.7418 28.7611 37.884C28.7611 37.0263 28.178 36.3281 27.4617 36.3281ZM27.4617 36.6018C28.0544 36.6018 28.5323 37.1744 28.5323 37.884C28.5323 38.5937 28.0544 39.1659 27.4617 39.1659C26.8691 39.1659 26.3909 38.5937 26.3909 37.884C26.3909 37.1744 26.8691 36.6018 27.4617 36.6018Z" fill="white"/>
<path d="M25.7159 28.8766C25.5713 29.0062 24.1295 30.0344 24.3519 30.692C24.5742 31.3496 24.5933 32.5061 26.2451 32.6526C27.8968 32.7991 28.0387 34.4573 29.0182 34.3019C30.4186 34.0796 29.9595 33.0581 32.3736 32.5454C33.5699 32.2913 34.8062 30.6046 35.756 30.1258C38.2255 28.8812 36.395 27.6083 35.9449 27.4488C35.4947 27.2892 25.7159 28.8766 25.7159 28.8766Z" fill="#000080"/>
<path d="M25.527 30.8122C26.0829 31.0437 28.4185 31.6324 29.9747 31.4743C31.5309 31.3162 32.1453 31.0232 31.5155 31.0699C30.8856 31.1166 28.6886 31.252 27.6014 30.9449C26.5141 30.6378 24.7813 30.5752 25.527 30.8122Z" fill="#00004F"/>
<path d="M34.7602 29.2049C34.7602 29.2049 32.8772 29.9835 31.3263 30.1763C29.7753 30.3691 31.348 30.7592 32.8955 30.2471C34.443 29.735 35.8434 28.8908 34.7602 29.2049Z" fill="#00004F"/>
<path d="M28.7512 32.0929C30.3437 32.462 31.4736 31.9984 31.2129 32.2885C30.9521 32.5785 30.2705 33.042 29.6401 32.7868C29.0096 32.5316 28.0019 31.9809 28.7512 32.0929Z" fill="#00004F"/>
<path d="M41.8833 13.5899C44.0354 21.4436 38.8789 27.6043 31.0252 29.7564C23.1715 31.9085 15.5948 29.2371 13.4427 21.3834C11.2906 13.5297 15.7574 4.85214 23.6111 2.70002C31.4647 0.547929 39.7312 5.73626 41.8833 13.5899Z" fill="white"/>
<path d="M18.3589 4.58087C16.716 5.51785 16.9558 6.50431 18.0118 6.2149C18.735 5.94825 19.5475 7.99262 20.0967 7.96046C20.646 7.92834 22.0288 7.48179 22.0288 7.48179C22.0288 7.48179 23.446 7.16105 23.9349 6.9087C24.4239 6.65634 24.3749 3.947 25.8723 3.67195C27.3698 3.39694 28.8665 2.56394 28.4268 2.19397C27.9872 1.82399 26.7656 1.87131 24.9506 2.0981C22.1684 2.52463 20.1534 3.52538 18.3589 4.58087Z" fill="#000080"/>
<path d="M17.1423 10.1586C16.5757 10.0746 13.2414 10.0554 12.401 10.9555C11.5606 11.8556 13.2657 14.6893 13.2657 14.6893C13.2657 14.6893 15.1222 11.3819 17.1423 10.1586Z" fill="#0047EB"/>
<path d="M15.2113 11.5745C14.8392 11.5697 13.7883 11.6226 13.8355 12.0655C13.882 12.5084 14.0684 13.0628 14.0917 13.0493C14.115 13.0359 15.2113 11.5745 15.2113 11.5745Z" fill="white"/>
<path d="M29.3503 6.81233C29.7949 6.45128 32.6537 4.73503 33.8355 5.08093C35.0173 5.42686 34.995 8.73401 34.995 8.73401C34.995 8.73401 31.7118 6.835 29.3503 6.81233Z" fill="#0047EB"/>
<path d="M31.7305 7.04785C32.048 6.85407 32.9785 6.36424 33.1635 6.76905C33.3486 7.17387 33.4714 7.74517 33.4445 7.74545C33.4176 7.74559 31.7305 7.04785 31.7305 7.04785Z" fill="white"/>
<path d="M37.5027 12.5272C36.0324 7.1613 29.5181 5.00208 22.7226 6.86424C15.9271 8.72638 11.4236 13.9047 12.894 19.2706C14.3643 24.6365 21.2428 28.1249 28.0383 26.2628C34.8338 24.4006 38.9731 17.8931 37.5027 12.5272Z" fill="#0047EB"/>
<path d="M16.0432 23.711C16.0409 23.712 16.0387 23.7129 16.0365 23.714C16.0339 23.715 16.0315 23.7161 16.029 23.7173C16.0123 23.724 15.9971 23.734 15.9842 23.7466C15.9714 23.7593 15.9612 23.7743 15.9541 23.791C15.9471 23.8076 15.9435 23.8254 15.9434 23.8434C15.9433 23.8614 15.9467 23.8793 15.9535 23.896C15.9487 23.8853 15.962 23.92 15.9749 23.9607C15.9882 24.0013 16.0069 24.0571 16.0311 24.1261C16.0795 24.2639 16.1509 24.4535 16.2488 24.6781C16.4436 25.1277 16.7466 25.7174 17.1891 26.3175C18.0738 27.5178 19.5282 28.7607 21.7889 28.9685C22.4658 29.0307 22.8918 29.2237 23.182 29.4792C23.4498 29.7149 23.6066 30.0107 23.7227 30.33C23.8233 30.3438 23.9243 30.3567 24.0257 30.3686C24.0214 30.3528 24.0154 30.3378 24.0107 30.3221C23.8844 29.9499 23.7025 29.5725 23.363 29.2737C23.0236 28.9749 22.5326 28.762 21.8142 28.6959C19.6416 28.4962 18.2631 27.3128 17.4094 26.1547C16.9826 25.5757 16.6893 25.0039 16.4998 24.5688C16.4047 24.3515 16.3364 24.1682 16.2897 24.0354C16.2662 23.969 16.2485 23.915 16.2355 23.8754C16.2224 23.8358 16.2186 23.8207 16.2076 23.7929C16.195 23.7617 16.1714 23.7363 16.1412 23.7214C16.111 23.7065 16.0765 23.7033 16.0441 23.7123L16.0432 23.711ZM35.1392 21.1608C35.1376 21.1615 35.136 21.1623 35.1344 21.1631C35.1084 21.1718 35.0856 21.1881 35.0689 21.2099C35.0523 21.2317 35.0426 21.2581 35.0411 21.2855C35.0391 21.3206 35.0438 21.3287 35.0468 21.3433C35.0492 21.3582 35.0532 21.3731 35.0575 21.3907C35.0655 21.426 35.0774 21.4706 35.0901 21.5258C35.1153 21.6363 35.1455 21.7882 35.1649 21.9748C35.2037 22.3479 35.1997 22.8584 35.0253 23.4451C34.6764 24.6185 33.6479 26.1093 30.8511 27.4091C30.2105 27.7068 29.7653 27.962 29.4581 28.2064C29.1511 28.4508 28.9792 28.6909 28.9116 28.9442C28.844 29.1975 28.8822 29.4486 28.9525 29.7107C28.9925 29.8632 29.0452 30.0225 29.0981 30.1924C29.1886 30.1767 29.2791 30.1599 29.3698 30.1428C29.3128 29.9576 29.2574 29.7896 29.2172 29.6396C29.1522 29.3957 29.1268 29.1991 29.176 29.0146C29.2252 28.8302 29.3504 28.6424 29.6289 28.4208C29.9074 28.1992 30.3363 27.9503 30.9664 27.6575C33.8128 26.3347 34.9149 24.7777 35.2879 23.5232C35.4744 22.8959 35.4792 22.3473 35.4375 21.9465C35.4167 21.7461 35.3841 21.5823 35.3572 21.4648C35.3438 21.4061 35.3317 21.3587 35.3236 21.3258C35.3191 21.3096 35.3172 21.2961 35.3154 21.2889C35.3131 21.2838 35.3154 21.282 35.3147 21.2927C35.3145 21.2578 35.3011 21.2242 35.277 21.1989C35.2529 21.1736 35.2201 21.1585 35.1853 21.1565C35.1697 21.1555 35.1541 21.1572 35.1392 21.1614L35.1392 21.1608Z" fill="white"/>
<path d="M37.7584 13.4608C36.288 8.09489 29.7738 5.93568 22.9782 7.79784C16.1827 9.65997 11.6792 14.8383 13.1496 20.2042C14.62 25.5701 21.4984 29.0585 28.2939 27.1963C35.0894 25.3342 39.2288 18.8266 37.7584 13.4608Z" fill="#000080"/>
<path d="M37.9749 14.5234C35.6304 17.9889 32.0383 21.8464 27.1256 23.1926C22.664 24.4152 17.8926 23.5404 13.9109 22.0635C16.2821 26.3376 22.3199 28.8365 28.2944 27.1994C34.6481 25.4583 38.6793 19.6564 37.9749 14.5234Z" fill="#00004F"/>
<path d="M38.5944 14.0924C38.6703 14.6484 38.8147 15.1895 39.0196 15.6848C39.2245 16.1802 39.4858 16.62 39.7885 16.9792C40.0913 17.3384 40.4295 17.6099 40.784 17.7783C41.1385 17.9467 41.5023 18.0086 41.8546 17.9606C42.5661 17.8635 43.1876 17.3244 43.5824 16.4617C43.9772 15.599 44.113 14.4835 43.9598 13.3606C43.884 12.8046 43.7395 12.2634 43.5346 11.7681C43.3297 11.2728 43.0684 10.833 42.7657 10.4738C42.463 10.1146 42.1247 9.84301 41.7702 9.67462C41.4157 9.50623 41.0519 9.44429 40.6996 9.49234C40.3473 9.54039 40.0134 9.69749 39.717 9.95467C39.4205 10.2118 39.1673 10.5641 38.9718 10.9912C38.7763 11.4184 38.6424 11.9121 38.5776 12.4442C38.5129 12.9763 38.5186 13.5363 38.5944 14.0924Z" fill="#0047EB"/>
<path d="M39.3647 10.3242C39.031 10.7575 38.7852 11.3301 38.6504 11.9881C38.5156 12.6461 38.4963 13.368 38.5942 14.0859C38.7473 15.2089 39.1769 16.2473 39.7883 16.9727C40.3997 17.6981 41.1429 18.0511 41.8544 17.954C42.2776 17.8963 42.6733 17.6814 43.009 17.3268C43.3448 16.9722 43.6112 16.488 43.7864 15.9137C42.8503 16.8387 41.6124 16.9513 40.7774 16.2365C39.598 15.2271 39.1302 13.0759 39.3647 10.3242Z" fill="#0020D2"/>
<path d="M42.2001 13.4661C42.2584 13.894 42.526 14.2108 42.7967 14.174C43.0679 14.1371 43.5264 13.7417 43.4681 13.3137C43.4097 12.8857 42.8565 12.5872 42.5853 12.6242C42.3142 12.6611 42.1417 13.0381 42.2001 13.4661Z" fill="white"/>
<path d="M22.6719 51.3229C23.3753 51.1557 23.9461 51.6977 24.1306 51.9975C24.3151 52.2973 25.1569 52.2858 25.5143 52.1647C25.8718 52.0436 24.661 52.0609 24.4246 51.7611C24.1882 51.4613 23.9276 51.1348 23.4721 51.0945C23.0167 51.0541 22.7411 51.1615 22.6719 51.3229Z" fill="#000080"/>
<path d="M27.6047 49.5432C27.1152 50.0326 26.6258 50.2284 26.8705 50.6037C27.1152 50.979 27.515 50.9056 27.5068 50.7342C27.4987 50.5629 27.7923 49.3555 27.6047 49.5432Z" fill="#000080"/>
<path d="M19.8327 42.8516C19.8327 42.8516 20.2525 50.1497 20.1233 51.28C19.9941 52.4102 16.3774 53.1853 17.443 53.4113C18.5087 53.6374 21.3504 53.4759 23.5464 53.379C25.7423 53.2822 21.6411 52.1519 21.4796 51.4415C21.3181 50.731 21.5119 42.8839 21.5119 42.8839L19.8327 42.8516Z" fill="white"/>
<path d="M13.4564 41.7175C13.0233 42.0727 14.6691 43.0738 16.9213 43.0415C19.1735 43.0092 26.1033 43.0092 28.3554 42.9446C30.6076 42.88 30.391 41.3945 30.391 41.3945L13.4564 41.7175Z" fill="white"/>
<path d="M12.9695 41.4777C12.7494 41.0896 8.92834 34.0337 9.21261 33.4857C9.49689 32.9376 22.6395 32.8848 23.5282 33.547C24.4168 34.2092 27.1996 41.4092 26.9588 41.6147C26.718 41.8203 23.841 42.3226 20.2975 42.3911C16.754 42.4596 13.7772 42.0943 12.9695 41.4777Z" fill="#000080"/>
<path d="M20.3992 42.1777C20.3992 42.1777 22.8653 42.4517 26.2448 42.2005C29.6244 41.9493 32.7983 41.1958 33.0952 40.9674C33.392 40.7391 31.4283 40.5336 30.6976 40.5564C29.9669 40.5793 24.6236 40.5793 24.6236 40.5793L20.2622 42.2234L20.3992 42.1777Z" fill="#000080"/>
<path d="M17.4763 36.4901C15.6498 36.5586 15.7411 38.6591 17.4078 38.8189C19.0744 38.9787 17.4306 37.7458 17.1566 37.586C16.8827 37.4262 18.7776 36.3988 17.4763 36.4901Z" fill="white"/>
</svg>
