<svg width="54" height="54" viewBox="0 0 54 54" fill="none" xmlns="http://www.w3.org/2000/svg">
<path d="M15.2708 2.63672C11.9192 2.63672 8.70485 3.96814 6.33491 6.33808C3.96497 8.70803 2.63355 11.9224 2.63354 15.274C2.6336 18.5045 3.87085 21.6123 6.0911 23.959C6.18185 25.2702 6.46808 27.1184 7.33467 28.3627C8.80149 30.4689 11.0958 30.1304 11.2838 29.6414C11.4719 29.1525 9.32819 29.0397 9.10252 26.4821C9.09712 26.4208 9.09485 26.3598 9.09429 26.2991C10.9812 27.3561 13.1079 27.9112 15.2708 27.9112C18.6224 27.9112 21.8367 26.5798 24.2067 24.2098C26.5766 21.8399 27.908 18.6256 27.908 15.274C27.908 11.9224 26.5766 8.70803 24.2067 6.33808C21.8367 3.96814 18.6224 2.63672 15.2708 2.63672Z" fill="#FFC517"/>
<path d="M4.0061 21.0039C4.55564 22.0847 5.25784 23.0807 6.09113 23.9614C6.18188 25.2727 6.46811 27.1208 7.33469 28.3651C8.80151 30.4714 11.0958 30.1328 11.2838 29.6439C11.4719 29.1549 9.32821 29.0421 9.10255 26.4846C9.09714 26.4233 9.09488 26.3623 9.09432 26.3015C10.9813 27.3586 13.1079 27.9137 15.2708 27.9137C18.378 27.9136 21.3762 26.7688 23.6928 24.698C15.9245 27.0534 8.72944 24.0484 4.0061 21.0039Z" fill="black"/>
<path d="M41.1468 10.4071L27.7366 31.2364L20.8542 25.3531C19.4914 24.0868 17.8354 24.2828 16.8351 25.7036L2.90213 49.5116C2.02193 50.838 3.49394 52.1068 4.59793 50.9079L18.6935 33.1958L26.2284 38.5671C28.2703 40.0866 30.0557 39.5656 31.3612 37.4655L51.3805 10.2188L41.1468 10.4071Z" fill="white"/>
<path d="M28.5539 48.8834C28.5539 50.2891 25.0825 51.4286 20.8004 51.4286C16.5182 51.4286 13.0469 50.2891 13.0469 48.8834C13.0469 48.8399 13.0568 42.2522 13.0568 42.2522C13.2628 40.9069 16.6509 42.9971 20.8004 42.9971C24.9447 42.9971 28.3296 40.946 28.5432 42.289C28.5503 42.3337 28.5539 48.8834 28.5539 48.8834Z" fill="#FF605B"/>
<path d="M28.5539 42.3147C28.5539 42.9898 27.737 43.6372 26.283 44.1145C24.8289 44.5918 22.8568 44.86 20.8004 44.86C19.7822 44.86 18.774 44.7941 17.8333 44.6662C16.8926 44.5383 16.0378 44.3508 15.3178 44.1145C14.5978 43.8781 14.0267 43.5976 13.6371 43.2888C13.2474 42.98 13.0469 42.649 13.0469 42.3147C13.0469 41.6397 13.8638 40.9923 15.3178 40.515C16.7719 40.0377 18.744 39.7695 20.8004 39.7695C22.8568 39.7695 24.8289 40.0377 26.283 40.515C27.737 40.9923 28.5539 41.6397 28.5539 42.3147Z" fill="#FF605B"/>
<path d="M16.4094 42.2753C16.4146 42.3075 16.4322 42.3388 16.4613 42.3674C16.4904 42.3961 16.5303 42.4216 16.5788 42.4425C16.6273 42.4633 16.6835 42.4791 16.7441 42.489C16.8046 42.4988 16.8684 42.5025 16.9318 42.4999L17.396 42.4804C17.4873 42.5669 17.6099 42.651 17.7655 42.7292C18.1512 42.9229 18.5769 43.0256 18.9855 43.0379C19.3941 43.0503 19.7493 42.9761 20.0174 42.8856C20.5236 42.7147 20.7955 42.4785 20.8254 42.4518C20.8351 42.4441 20.844 42.4362 20.852 42.428C20.852 42.428 21.253 42.0267 21.7587 41.7397C22.0115 41.5962 22.291 41.4927 22.4655 41.4678C22.64 41.4429 22.7103 41.4345 22.9373 41.5771C23.4549 41.9023 23.3435 42.0754 23.1679 42.2361C22.9926 42.3968 22.6879 42.5003 22.6879 42.5003C22.6341 42.5175 22.5875 42.54 22.5508 42.5663C22.5141 42.5927 22.488 42.6225 22.4741 42.654C22.4601 42.6854 22.4586 42.718 22.4695 42.7498C22.4804 42.7816 22.5036 42.812 22.5377 42.8392C22.6064 42.8941 22.7152 42.933 22.8404 42.9473C22.9655 42.9616 23.0968 42.9501 23.2053 42.9154C23.2053 42.9154 23.6997 42.7627 24.0153 42.474C24.1032 42.3938 24.1707 42.2992 24.2092 42.1953L24.6564 42.1766C24.7199 42.174 24.7816 42.1651 24.8382 42.1503C24.8948 42.1356 24.9451 42.1153 24.9863 42.0907C25.0274 42.0661 25.0586 42.0376 25.078 42.0069C25.0974 41.9762 25.1047 41.9439 25.0994 41.9117C25.0942 41.8796 25.0765 41.8483 25.0474 41.8196C25.0183 41.791 24.9784 41.7655 24.9298 41.7446C24.8813 41.7238 24.8251 41.708 24.7645 41.6982C24.7039 41.6884 24.6401 41.6847 24.5767 41.6873L24.1545 41.705C24.0702 41.5619 23.9229 41.4142 23.6914 41.2688C23.2932 41.0186 22.6885 40.9256 22.2029 40.9949C21.7172 41.0643 21.3505 41.2344 21.0357 41.4131C20.4343 41.7544 20.0341 42.1598 19.9984 42.1964C19.9945 42.1994 19.773 42.3778 19.4795 42.4768C19.3316 42.5268 19.1894 42.5525 19.0429 42.5481C18.8963 42.5438 18.7095 42.5124 18.4468 42.3804C18.215 42.264 18.1716 42.1838 18.1694 42.11C18.1677 42.0362 18.2274 41.9529 18.3371 41.8692C18.5568 41.7018 18.93 41.5716 18.93 41.5716C18.9833 41.554 19.0293 41.5312 19.0652 41.5046C19.1012 41.4781 19.1264 41.4481 19.1396 41.4166C19.1527 41.3851 19.1535 41.3525 19.1418 41.3209C19.1302 41.2892 19.1063 41.259 19.0716 41.2319C19.0369 41.2049 18.992 41.1817 18.9395 41.1634C18.887 41.1452 18.8279 41.1324 18.7657 41.1258C18.7034 41.1191 18.6392 41.1187 18.5767 41.1247C18.5141 41.1306 18.4545 41.1427 18.4012 41.1603C18.4012 41.1603 17.8919 41.3217 17.5304 41.5973C17.3866 41.707 17.2602 41.8413 17.2171 41.9952L16.8519 42.0105C16.7885 42.0132 16.7268 42.0221 16.6703 42.0369C16.6137 42.0516 16.5634 42.0719 16.5223 42.0965C16.4812 42.121 16.45 42.1495 16.4306 42.1802C16.4112 42.2109 16.4041 42.2432 16.4094 42.2753Z" fill="white"/>
<path d="M13.0469 45.5586C13.0469 45.5586 15.7478 47.5076 20.2305 47.6747C24.7132 47.8417 26.2446 47.0343 25.9661 47.3405C25.6877 47.6468 23.4046 48.5099 19.0054 48.2315C14.6062 47.9531 13.0469 46.6723 13.0469 46.6723V45.5586Z" fill="black"/>
<path d="M51.3712 48.5732C51.3712 50.1282 47.5311 51.3887 42.7941 51.3887C38.0571 51.3887 34.217 50.1282 34.217 48.5732C34.217 48.525 34.228 31.5971 34.228 31.5971C34.4559 30.1088 38.2039 32.421 42.7941 32.421C47.3787 32.421 51.1231 30.1521 51.3594 31.6378C51.3672 31.6872 51.3712 48.5732 51.3712 48.5732Z" fill="#FFC517"/>
<path d="M51.3712 31.6632C51.3713 33.2182 47.5312 34.4788 42.7941 34.4788C38.0571 34.4788 34.217 33.2182 34.217 31.6632C34.217 30.1082 38.0571 28.8477 42.7941 28.8477C47.5312 28.8477 51.3712 30.1082 51.3712 31.6632Z" fill="#FFC517"/>
<path d="M37.9367 31.6168C37.9609 31.7663 38.2197 31.8775 38.5147 31.8652L39.0282 31.8437C39.1291 31.9394 39.2647 32.0324 39.4369 32.1189C39.8636 32.3332 40.3345 32.4468 40.7865 32.4604C41.2385 32.4741 41.6314 32.392 41.928 32.2919C42.4879 32.1028 42.7887 31.8416 42.8218 31.812C42.8326 31.8035 42.8424 31.7948 42.8512 31.7858C42.8512 31.7858 43.2948 31.3417 43.8542 31.0243C44.1339 30.8655 44.443 30.7511 44.6361 30.7235C44.8291 30.6959 44.9069 30.6867 45.158 30.8444C45.7306 31.2042 45.6074 31.3957 45.4132 31.5734C45.2192 31.7512 44.8821 31.8657 44.8821 31.8657C44.6317 31.9459 44.5573 32.1138 44.716 32.2406C44.8741 32.3671 45.2046 32.4048 45.4544 32.3249C45.4544 32.3249 46.0014 32.156 46.3505 31.8366C46.4478 31.7478 46.5224 31.6432 46.565 31.5283L47.0598 31.5076C47.3548 31.4954 47.5743 31.3641 47.5498 31.2146C47.5254 31.0651 47.2665 30.954 46.9716 30.9664L46.5045 30.9859C46.4113 30.8276 46.2483 30.6642 45.9922 30.5034C45.5518 30.2266 44.8828 30.1237 44.3456 30.2004C43.8083 30.2772 43.4027 30.4654 43.0545 30.663C42.3892 31.0406 41.9464 31.489 41.9069 31.5295C41.9027 31.5328 41.6576 31.7301 41.333 31.8397C41.1693 31.895 41.0121 31.9234 40.8499 31.9185C40.6878 31.9138 40.4811 31.8791 40.1905 31.7331C39.9341 31.6043 39.8861 31.5156 39.8837 31.4339C39.8819 31.3523 39.9478 31.2602 40.0692 31.1676C40.3122 30.9824 40.7251 30.8383 40.7251 30.8383C40.973 30.7565 41.0432 30.5883 40.8817 30.4626C40.7201 30.3369 40.3881 30.3015 40.1401 30.3834C40.1401 30.3834 39.5767 30.5619 39.1769 30.8667C39.0177 30.9881 38.8779 31.1367 38.8302 31.307L38.4263 31.3239C38.1314 31.3362 37.9123 31.4674 37.9367 31.6168Z" fill="white"/>
<path d="M34.217 35.2305C34.217 35.2305 37.2048 37.3865 42.1637 37.5713C47.1226 37.7561 48.8166 36.8629 48.5086 37.2017C48.2006 37.5405 45.675 38.4953 40.8085 38.1873C35.942 37.8793 34.217 36.4625 34.217 36.4625V35.2305Z" fill="black"/>
<path d="M34.217 39.9062C34.217 39.9062 37.2048 42.0623 42.1637 42.2471C47.1226 42.4319 48.8166 41.5387 48.5086 41.8775C48.2006 42.2163 45.675 43.1711 40.8085 42.8631C35.942 42.5551 34.217 41.1383 34.217 41.1383V39.9062Z" fill="black"/>
<path d="M34.217 45.2461C34.217 45.2461 37.2048 47.4021 42.1637 47.5869C47.1226 47.7717 48.8166 46.8785 48.5086 47.2173C48.2006 47.5561 45.675 48.5109 40.8085 48.2029C35.942 47.8949 34.217 46.4781 34.217 46.4781V45.2461Z" fill="black"/>
<path d="M49.791 10.2227L41.0718 10.3833L40.2729 11.6242C42.0042 12.5469 44.608 14.825 43.51 19.9489C43.4229 20.3552 43.3639 20.7123 43.3272 21.0287L49.7097 12.3418C49.7597 11.5819 49.7942 10.8691 49.791 10.2227Z" fill="black"/>
<path d="M49.8263 3.01999C48.2243 2.07822 46.3317 3.18649 46.3317 3.18649L36.0204 8.94801C36.0204 8.94801 34.5132 9.95641 35.2872 11.1953C36.0613 12.4343 37.6344 12.3138 37.6344 12.3138L44.7464 11.661L47.6348 18.1929C47.6348 18.1929 48.2946 19.6259 49.7536 19.6998C51.2126 19.7736 51.3607 17.9662 51.3607 17.9662L51.3803 6.15448C51.3803 6.15448 51.4283 3.96176 49.8263 3.01999Z" fill="white"/>
<path d="M7.60677 18.9194C7.60677 18.9194 7.3329 15.0207 7.5383 14.5481C7.74371 14.0755 10.6536 13.9771 11.0644 14.4496C11.2873 14.7061 11.4067 18.6437 11.3383 18.8209C11.2698 18.9981 7.60677 18.9194 7.60677 18.9194Z" fill="#599EFC"/>
<path d="M13.8389 18.9204C13.8389 18.9204 13.5651 11.833 13.7705 11.3605C13.9758 10.888 16.8852 10.7896 17.296 11.2621C17.5189 11.5185 17.6383 18.6448 17.5698 18.822C17.5014 18.9992 13.8389 18.9204 13.8389 18.9204Z" fill="#599EFC"/>
<path d="M20.0713 18.9177C20.0713 18.9177 19.7975 9.70412 20.0029 9.23163C20.2083 8.75913 23.1177 8.6607 23.5284 9.13319C23.7513 9.38958 23.8707 18.6421 23.8022 18.8193C23.7338 18.9965 20.0713 18.9177 20.0713 18.9177Z" fill="white"/>
<path d="M11.328 17.1094C10.0608 17.1763 8.78515 17.2282 7.51221 17.2671C7.55414 18.1557 7.60673 18.9225 7.60673 18.9225C7.60673 18.9225 11.2698 19.0013 11.3383 18.824C11.3676 18.7483 11.3609 17.9786 11.328 17.1094Z" fill="black"/>
<path d="M17.5755 16.6328C16.335 16.7607 15.0634 16.8688 13.7727 16.959C13.8066 18.0687 13.8388 18.9218 13.8388 18.9218C13.8388 18.9218 17.502 19.0006 17.5704 18.8233C17.5946 18.7609 17.5943 17.8175 17.5755 16.6328Z" fill="black"/>
<path d="M6.16042 18.8569C6.16042 18.8569 12.2904 18.5221 15.3038 18.5234C18.3173 18.5247 24.229 18.8569 24.229 18.8569C24.6553 18.8729 24.999 19.2004 24.999 19.627C24.999 20.0536 24.6556 20.397 24.229 20.397H6.16042C5.73382 20.397 5.39038 20.0536 5.39038 19.627C5.39038 19.2004 5.73382 18.8569 6.16042 18.8569Z" fill="white"/>
</svg>
