<svg width="100" height="100" viewBox="0 0 100 100" fill="none" xmlns="http://www.w3.org/2000/svg">
<g clipPath="url(#clip0_4213_23041)">
<path d="M50.6758 98.7129C77.0851 98.7129 98.4941 77.3039 98.4941 50.8945C98.4941 24.4852 77.0851 3.07617 50.6758 3.07617C24.2664 3.07617 2.85742 24.4852 2.85742 50.8945C2.85742 77.3039 24.2664 98.7129 50.6758 98.7129Z" fill="#514BDB"/>
<path d="M35.3685 90.0985C36.1987 89.7546 36.5929 88.8029 36.249 87.9727C35.9052 87.1426 34.9534 86.7483 34.1233 87.0922C33.2931 87.4361 32.8989 88.3878 33.2428 89.218C33.5866 90.0482 34.5384 90.4424 35.3685 90.0985Z" fill="white"/>
<path d="M74.9071 9.16628C75.0511 8.27933 74.4488 7.44363 73.5618 7.29968C72.6749 7.15574 71.8392 7.75806 71.6952 8.64501C71.5513 9.53196 72.1536 10.3677 73.0405 10.5116C73.9275 10.6556 74.7632 10.0532 74.9071 9.16628Z" fill="#B8CBFE"/>
<path d="M89.0511 76.2779C90.7128 80.4609 88.6615 85.2172 84.4791 86.8793C80.2962 88.5418 75.5398 86.491 73.8773 82.3072C72.2144 78.1248 74.266 73.3684 78.4484 71.7063C82.6318 70.044 87.3878 72.0941 89.0511 76.2779ZM76.0064 81.4621C77.2019 84.4711 80.6234 85.9467 83.6324 84.7504C86.6423 83.5549 88.1166 80.1334 86.9211 77.1244C85.7248 74.1145 82.3035 72.6395 79.2945 73.8354C76.2857 75.0315 74.8105 78.4525 76.0064 81.4621Z" fill="#FEC900"/>
<path fill-rule="evenodd" clip-rule="evenodd" d="M63.8002 89.5322C64.3656 90.0154 64.9766 90.3918 65.4727 91.0398C64.5627 91.9447 64.2397 92.5527 63.008 92.9672C62.1344 93.2611 61.2172 93.2449 60.3184 93.1969C59.1844 93.1363 58.1783 92.7594 57.0254 93.4062C55.9379 94.0168 55.5668 95.333 54.3469 95.9504C52.7854 96.7412 51.2109 96.4285 49.8912 96.235C49.24 96.1389 48.718 95.9266 47.8396 96.4043C47.2289 96.7363 46.8322 97.4184 46.2859 97.9625C44.9086 99.3307 43.273 99.9998 41.4131 99.3426C41.5346 98.6711 41.8543 98.0828 42.0307 97.4361C44.7311 97.8021 45.0486 94.8047 47.7256 93.999C49.6873 93.4078 51.6775 94.7705 53.323 93.9143C53.9387 93.5949 54.3631 92.8131 54.7629 92.4031C55.257 91.8965 55.8129 91.3768 56.5463 91.0834C58.4504 90.3213 60.7373 91.5648 62.4943 90.7242C63.0793 90.4445 63.2754 89.9934 63.8002 89.5322Z" fill="#79BB35"/>
<path fill-rule="evenodd" clip-rule="evenodd" d="M51.4971 3.55156L52.2469 6.69941L54.5994 4.47617L56.9512 2.25273L53.8496 1.32773L50.748 0.40332L51.4971 3.55156Z" fill="#FE5D0D"/>
<path fill-rule="evenodd" clip-rule="evenodd" d="M97.5922 44.808L99.9998 45.5979L99.4805 43.117L98.9607 40.6367L97.0727 42.327L95.1846 44.0176L97.5922 44.808Z" fill="#79BB35"/>
<path d="M20.1446 82.0505L15.8232 85.5459L19.3182 89.8666L23.6395 86.3712L20.1446 82.0505Z" fill="#FEC900"/>
<path d="M23.4797 61.1037C23.0648 60.6691 22.4467 60.4961 21.8638 60.6482L13.5443 62.8744L20.0316 56.1935C20.4699 55.7425 20.6121 55.0701 20.3935 54.4804C20.1758 53.8908 19.631 53.472 19.0049 53.4142L7.55251 52.355L17.925 47.2027C18.4357 46.9494 18.773 46.4591 18.8285 45.8918C18.884 45.324 18.6478 44.7775 18.1957 44.4302L11.923 39.6041L18.523 41.1494C19.1259 41.2914 19.7467 41.0865 20.1455 40.6173C20.5467 40.149 20.6511 39.5033 20.4193 38.9314L15.8351 27.6664C15.6689 27.259 15.3535 26.9406 14.948 26.7707C14.5424 26.6004 14.0963 26.5988 13.6953 26.7648C13.2886 26.9298 12.9709 27.2435 12.8008 27.6476C12.6301 28.0517 12.6269 28.4984 12.7924 28.9048L16.1793 37.2269L5.27322 34.6742C4.52439 34.5002 3.7447 34.8789 3.41814 35.5693C3.08884 36.2632 3.29118 37.1068 3.89958 37.5754L14.109 45.4306L0.911302 51.9861C0.257395 52.3111 -0.106276 53.0396 0.0275126 53.7578C0.161302 54.4767 0.762669 55.0256 1.49021 55.0922L15.2838 56.3681L7.04353 64.8543C6.53064 65.3828 6.43279 66.1951 6.80583 66.8302C7.17966 67.466 7.94079 67.7738 8.64587 67.5849L19.7914 64.6021L17.3588 72.0793C17.0797 72.9404 17.5523 73.8687 18.4135 74.1486C18.6066 74.2115 18.8068 74.2379 19.0088 74.2271C19.681 74.191 20.2732 73.7365 20.4824 73.0951L23.8502 62.742C24.0363 62.1681 23.8947 61.5406 23.4797 61.1037Z" fill="#B8CBFE"/>
<path d="M83.1837 76.7126C97.6966 62.1996 97.6966 38.6695 83.1837 24.1566C68.6707 9.6436 45.1406 9.64361 30.6276 24.1566C16.1147 38.6695 16.1147 62.1996 30.6276 76.7126C45.1406 91.2255 68.6707 91.2255 83.1837 76.7126Z" fill="#1D1D1B"/>
<path d="M77.8046 72.1617C91.2593 58.707 91.2593 36.8926 77.8046 23.4379C64.3498 9.98313 42.5354 9.98313 29.0807 23.4379C15.626 36.8926 15.626 58.707 29.0807 72.1617C42.5354 85.6165 64.3498 85.6165 77.8046 72.1617Z" fill="white"/>
<path d="M42.4048 83.2855C62.003 89.382 82.8327 78.4369 88.9292 58.8386C95.0257 39.2404 84.0806 18.4107 64.4823 12.3142C44.8841 6.21756 24.0544 17.1629 17.9577 36.7611C11.8612 56.3594 22.8065 77.189 42.4048 83.2855ZM23.3067 38.425C28.4843 21.781 46.1743 12.4855 62.8182 17.6631C79.4624 22.8406 88.7577 40.5306 83.5802 57.1746C78.4026 73.8187 60.7126 83.1142 44.0684 77.9365C27.4245 72.7592 18.1292 55.0691 23.3067 38.425Z" fill="#FE5D0D"/>
<path d="M61.8761 29.9969C62.2505 27.2418 60.3206 24.7043 57.5656 24.3299L54.4855 23.8535L54.3302 24.9863C53.0503 25.743 52.1144 27.0531 51.8986 28.6406L48.646 52.6354C48.433 54.202 48.9667 55.6971 49.9722 56.7652L49.829 57.8088L52.6603 58.2467C52.7587 58.266 52.8556 58.2887 52.9564 58.3023C55.7115 58.6769 58.249 56.7469 58.6234 53.9918L61.8761 29.9969Z" fill="#1D1D1B"/>
<path d="M49.8276 57.8176C52.5827 58.1922 55.1202 56.2621 55.4948 53.507L58.7473 29.5123C59.1219 26.7572 57.1918 24.2197 54.4368 23.8453C51.6817 23.4707 49.1442 25.4008 48.7698 28.1559L45.5172 52.1506C45.1424 54.9057 47.0725 57.4432 49.8276 57.8176Z" fill="#FE5D0D"/>
<path d="M52.7903 60.7889L52.7913 60.7826L49.6762 60.3008L49.5151 61.3426C48.1702 62.0859 47.1784 63.4281 46.9555 65.068C46.7415 66.6428 47.2823 68.1443 48.2977 69.2137L48.1372 70.2512L51.2522 70.733V70.7326C51.2569 70.7332 51.2614 70.7346 51.2659 70.7352C54.0212 71.1098 56.5583 69.1799 56.9331 66.4246C57.2999 63.7264 55.4544 61.2426 52.7903 60.7889Z" fill="#1D1D1B"/>
<path d="M49.4742 70.2505C52.2307 69.8855 54.1692 67.355 53.8041 64.5985C53.439 61.8421 50.9085 59.9035 48.1521 60.2686C45.3957 60.6337 43.4571 63.1642 43.8222 65.9207C44.1873 68.6771 46.7178 70.6156 49.4742 70.2505Z" fill="#FE5D0D"/>
<path d="M23.0125 1.64476L37.0592 1.47855C40.7444 1.46741 43.7399 4.44456 43.7526 8.12991L43.784 18.0125C43.7965 21.6979 40.819 24.6955 37.1344 24.7076L36.6477 24.709L36.8627 38.1983L28.1508 24.7369L23.0879 24.8731C19.4041 24.8852 16.4065 21.9069 16.3948 18.2209L16.3623 8.3389C16.3506 4.65316 19.328 1.65687 23.0125 1.64476Z" fill="#FEC900"/>
<path d="M27.0646 21.6705C26.4066 21.6629 25.9971 20.9967 26.2814 20.4156C26.6846 19.5914 27.0998 18.773 27.5101 17.9523C27.906 17.1603 28.3023 16.3685 28.6982 15.5766C28.8146 15.3435 28.8144 15.3428 28.5744 15.2627C27.4851 14.899 26.3947 14.5393 25.307 14.1707C24.75 13.982 24.7178 13.4502 24.8281 12.8922C24.891 12.5746 25.7053 7.88164 26.049 5.89843C26.1369 5.3916 26.5744 5.02031 27.0887 5.01621C28.9271 5.00156 33.0016 4.97968 33.276 5.07226C33.6248 5.19003 33.8215 5.44257 33.8754 5.80507C33.9041 5.99765 33.8404 6.17128 33.7557 6.34042C32.9635 7.92421 32.1719 9.50859 31.3805 11.0926C31.2508 11.3523 31.251 11.3525 31.5176 11.4414C32.5705 11.7922 33.6236 12.1426 34.6764 12.4936C35.4254 12.7432 35.5996 13.4709 35.0426 14.0281C32.606 16.4652 30.1683 18.9012 27.7338 21.3402C27.5387 21.5359 27.3209 21.6619 27.0646 21.6705Z" fill="white"/>
</g>
<defs>
<clipPath id="clip0_4213_23041">
<rect width="100" height="100" fill="white"/>
</clipPath>
</defs>
</svg>
