<svg width="100" height="100" viewBox="0 0 100 100" fill="none" xmlns="http://www.w3.org/2000/svg">
<g clipPath="url(#clip0_4419_78583)">
<path d="M85.2187 84.2303C104.484 64.9648 104.484 33.7291 85.2186 14.4635C65.953 -4.80218 34.7173 -4.80224 15.4517 14.4633C-3.81382 33.7289 -3.81376 64.9646 15.4519 84.2302C34.7175 103.496 65.9532 103.496 85.2187 84.2303Z" fill="#EAEAEA"/>
<path d="M42.452 94.5377C43.379 94.5377 44.1305 93.7862 44.1305 92.8592C44.1305 91.9322 43.379 91.1807 42.452 91.1807C41.5249 91.1807 40.7734 91.9322 40.7734 92.8592C40.7734 93.7862 41.5249 94.5377 42.452 94.5377Z" fill="white"/>
<path d="M25.1043 8.93418C26.0313 8.93418 26.7828 8.18268 26.7828 7.25566C26.7828 6.32865 26.0313 5.57715 25.1043 5.57715C24.1773 5.57715 23.4258 6.32865 23.4258 7.25566C23.4258 8.18268 24.1773 8.93418 25.1043 8.93418Z" fill="#FEC900"/>
<path fill-rule="evenodd" clip-rule="evenodd" d="M20.9965 33.4723L0.316406 38.8678L1.66387 28.0404L6.7082 32.4742L9.45078 25.0643L13.985 30.5898L16.8727 24.6318L20.9965 33.4723Z" fill="#FE5D0D"/>
<path fill-rule="evenodd" clip-rule="evenodd" d="M59.2064 93.6057L62.8975 92.8848L61.6771 96.4428L60.4562 100L57.9857 97.1641L55.5156 94.3279L59.2064 93.6057Z" fill="#FEC900"/>
<path d="M2.38379 67.8029L0.990234 65.5353L18.9328 54.5107L20.3246 56.7773L2.38379 67.8029Z" fill="#FEC900"/>
<path d="M14.4865 68.2068L8.80664 81.8564L11.2635 82.8788L16.9433 69.2291L14.4865 68.2068Z" fill="#FEC900"/>
<path fill-rule="evenodd" clip-rule="evenodd" d="M13.0767 49.7508C11.6519 50.6965 9.73041 50.3082 8.78451 48.8834C7.83881 47.4586 8.22709 45.5371 9.65189 44.5912C11.0767 43.6453 12.9982 44.0338 13.9441 45.4586C14.8898 46.8834 14.5015 48.8051 13.0767 49.7508Z" fill="#79BB35"/>
<path d="M88.9277 43.1208L84.7832 47.083L88.7448 51.227L92.8894 47.2648L88.9277 43.1208Z" fill="#B8CBFE"/>
<path fill-rule="evenodd" clip-rule="evenodd" d="M95.0044 25.2217C95.6933 25.5596 96.4003 25.7791 97.0622 26.2992C96.3849 27.4369 96.2181 28.1271 95.0935 28.8572C94.2958 29.375 93.3751 29.5939 92.4646 29.7766C91.3158 30.0068 90.2138 29.8883 89.2277 30.8301C88.2974 31.7191 88.2642 33.1295 87.2033 34.0592C85.8456 35.2498 84.1921 35.341 82.8238 35.4859C82.1486 35.5568 81.5722 35.4785 80.8169 36.1813C80.2917 36.6697 80.0703 37.4529 79.6638 38.1367C78.6384 39.857 77.1753 40.9451 75.1482 40.7654C75.0974 40.0633 75.266 39.3936 75.2765 38.702C78.0689 38.3754 77.6177 35.2984 80.0861 33.807C81.8949 32.7133 84.2331 33.5646 85.658 32.2871C86.1913 31.81 86.415 30.9201 86.7093 30.408C87.0732 29.775 87.4954 29.1131 88.1531 28.6318C89.8605 27.382 92.4648 28.0383 94.0048 26.7479C94.5181 26.3184 94.5984 25.817 95.0044 25.2217Z" fill="#79BB35"/>
<path d="M97.6448 64.0269C99.3591 68.3423 97.2429 73.2494 92.928 74.964C88.6126 76.6793 83.7056 74.5634 81.9903 70.2472C80.2747 65.9324 82.3913 61.0252 86.7064 59.3105C91.022 57.5955 95.9286 59.7107 97.6448 64.0269ZM84.1868 69.3754C85.4202 72.4797 88.9501 74.0019 92.0544 72.7677C95.1597 71.5343 96.6806 68.0045 95.4472 64.9002C94.213 61.7949 90.6835 60.273 87.579 61.5068C84.4749 62.741 82.953 66.2705 84.1868 69.3754Z" fill="#FE5D0D"/>
<path d="M61.1719 0.0205555L57.041 0.0344226L62.5605 14.4922L69.5566 14.4688C69.5701 14.2709 69.5527 8.34556 69.5527 8.34556C69.5373 3.7397 65.7777 0.00512576 61.1719 0.0205555Z" fill="#1D1D1B"/>
<path d="M45.7624 1.18652C41.1565 1.20195 37.418 3.84727 37.4336 8.45332C37.4336 8.45332 37.4379 13.9447 37.4528 14.1426L44.318 14.1469L44.3317 8.43008C44.329 7.62754 44.9793 6.97285 45.7819 6.97012L45.7624 1.18652Z" fill="#1D1D1B"/>
<path d="M81.5623 13.6162L77.5812 13.6295C77.5854 15.9289 77.5762 18.2283 77.5703 20.5276L81.5855 20.5141C83.4902 20.5076 85.0293 18.9582 85.0231 17.0535C85.0164 15.1488 83.467 13.6098 81.5623 13.6162Z" fill="#1D1D1B"/>
<path d="M77.535 13.6301L65.4987 13.5868C65.5121 13.3889 65.525 8.35923 65.525 8.35923C65.5096 3.75317 61.7498 0.0187976 57.144 0.0342273L41.7313 0.0859851C37.1252 0.101415 33.3908 3.86118 33.4063 8.46704C33.4063 8.46704 33.4531 13.4965 33.4678 13.6942L20.6387 13.7055C18.734 13.712 17.1949 15.2614 17.2012 17.1661C17.2076 19.0708 18.7571 20.6098 20.6617 20.6036L77.5578 20.5282C79.4625 20.5217 81.0016 18.9723 80.9953 17.0676C80.9893 15.1627 79.4399 13.6237 77.535 13.6301ZM40.3199 13.0784L40.3043 8.4438C40.3016 7.64126 40.952 6.98657 41.7545 6.98384L57.1672 6.93208C57.9697 6.92934 58.6244 7.57973 58.6272 8.38227L58.6428 13.0168C58.6436 13.2293 58.5865 13.4245 58.5026 13.61L40.4645 13.6706C40.3789 13.4854 40.3207 13.2907 40.3199 13.0784Z" fill="#002291"/>
<path d="M65.4121 25.3545L65.816 87.5752H70.2541C73.4584 87.5752 76.0955 85.0537 76.2389 81.8525L78.5682 25.3547H65.4121V25.3545Z" fill="#1D1D1B"/>
<path d="M23.4277 25.3545L25.757 81.8523C25.9004 85.0535 28.5373 87.575 31.7418 87.575H65.8156C69.0199 87.575 71.657 85.0535 71.8004 81.8523L74.1297 25.3545H23.4277Z" fill="#ADD0FF"/>
<path d="M66.4588 78.9297H31.3457C30.0687 78.9297 29.0332 79.965 29.0332 81.2422C29.0332 82.5193 30.0686 83.5547 31.3457 83.5547H66.4588C67.7359 83.5547 68.7713 82.5193 68.7713 81.2422C68.7713 79.965 67.7359 78.9297 66.4588 78.9297Z" fill="#8E8EFF"/>
<path d="M66.4588 71.877H31.3457C30.0687 71.877 29.0332 72.9123 29.0332 74.1895C29.0332 75.4664 30.0686 76.502 31.3457 76.502H66.4588C67.7359 76.502 68.7713 75.4666 68.7713 74.1895C68.7713 72.9123 67.7359 71.877 66.4588 71.877Z" fill="#79BB35"/>
<path d="M31.3457 69.4502H66.4588C67.7359 69.4502 68.7713 68.4148 68.7713 67.1377C68.7713 65.8607 67.7359 64.8252 66.4588 64.8252H31.3457C30.0687 64.8252 29.0332 65.8605 29.0332 67.1377C29.0332 68.4148 30.0686 69.4502 31.3457 69.4502Z" fill="#FE5D0D"/>
<path d="M27.8941 32.8833C28.8176 31.4454 29.9361 30.5048 31.4094 30.0101C32.7844 29.5485 33.8793 29.871 34.3494 30.8085C34.8283 31.7626 34.4195 32.7097 33.1109 33.4731C32.0232 34.1073 30.8386 34.5716 29.9918 35.57C29.4838 36.1686 28.7301 36.4188 27.9707 35.9919C27.0982 35.5017 27.1269 34.6989 27.4078 33.8921C27.5496 33.4843 27.7845 33.1058 27.8941 32.8833Z" fill="white"/>
<path d="M36.9224 29.8864C37.4652 29.2259 38.9427 29.1331 39.6746 29.6897C40.2291 30.1116 40.3166 30.6464 39.8832 31.1944C39.3529 31.8651 37.9128 31.9405 37.1929 31.3546C36.6654 30.9255 36.5597 30.4155 36.9224 29.8864Z" fill="white"/>
</g>
<defs>
<clipPath id="clip0_4419_78583">
<rect width="100" height="100" fill="white"/>
</clipPath>
</defs>
</svg>
