<svg width="54" height="55" viewBox="0 0 54 55" fill="none" xmlns="http://www.w3.org/2000/svg">
<g clip-path="url(#clip0_8333_82340)">
<path d="M27.8435 46.1723L30.9655 50.4298C31.1014 50.6145 31.2942 50.7362 31.5055 50.787C31.5066 50.7896 31.5066 50.7896 31.5092 50.7886C31.6753 50.828 31.8495 50.8207 32.0185 50.7633L33.3586 50.3114L33.4462 50.283C33.4537 50.2801 33.4612 50.2771 33.4698 50.2766L28.8217 43.3125C28.8059 43.3535 28.7889 43.3921 28.7662 43.4299L27.784 45.1599C27.6018 45.4808 27.6263 45.8772 27.8435 46.1723Z" fill="#DEC538"/>
<path d="M18.4186 44.855C19.164 45.2332 20.0798 45.4984 21.1994 45.5649C21.4842 45.5812 21.7468 45.7335 21.9085 45.969L29.3909 56.9529C29.7088 57.4173 30.3623 57.5009 30.7843 57.1269L35.3525 53.0889C35.7271 52.7568 35.775 52.1899 35.4599 51.7997L34.4685 50.5781C34.2275 50.2808 33.8297 50.161 33.4687 50.2761C33.4603 50.2765 33.4526 50.2795 33.4451 50.2824L33.3576 50.3108L32.0177 50.7627C31.8487 50.8201 31.6745 50.8273 31.5084 50.7879C31.5058 50.7889 31.5058 50.7889 31.5048 50.7863C31.2935 50.7356 31.1009 50.6139 30.9648 50.4292L27.8433 46.1724C27.6264 45.8774 27.6017 45.481 27.7838 45.1603L28.7657 43.4306C28.7885 43.3926 28.8054 43.3542 28.8212 43.3132C28.9092 43.0931 28.9085 42.8469 28.8228 42.628C28.7914 42.5476 28.7462 42.4695 28.6921 42.3979L26.9819 40.1844C26.7402 39.8701 26.7222 39.4393 26.937 39.1057L28.0991 37.3025C28.5888 36.5453 27.8255 35.6027 26.9825 35.924L15.9772 40.1202C15.5073 40.2983 15.2629 40.8145 15.4221 41.2887C15.7592 42.2908 16.568 43.9204 18.4186 44.855Z" fill="#E16A2B"/>
<path d="M25.9093 40.294C24.6722 41.3105 22.9592 43.4356 22.24 44.8349C22.1201 45.068 22.4072 45.2993 22.6096 45.1322C23.8078 44.1409 25.5219 42.0158 26.2569 40.5736C26.314 40.4614 26.2695 40.3242 26.1573 40.2671C26.0742 40.2246 25.9771 40.2384 25.9093 40.294Z" fill="#A95330"/>
<g opacity="0.25">
<path d="M18.4185 44.8493C20.5196 45.9155 21.3719 45.1828 21.9084 45.9634L29.3908 56.9473C29.7087 57.4118 30.3621 57.4954 30.7841 57.1214L35.3524 53.0834C35.727 52.7513 35.7748 52.1843 35.4598 51.7942L34.4684 50.5726C34.2219 50.2688 33.8131 50.1504 33.445 50.2769C32.1554 50.5792 29.9983 51.5538 27.9645 49.7278C26.6536 48.5508 25.8665 46.9289 24.8653 45.5081C23.9659 44.233 22.5162 43.1589 20.965 43.3454C19.9495 43.4701 19.1249 44.0829 18.4185 44.8493Z" fill="#000E3F"/>
</g>
<path d="M35.6711 51.6307L34.6799 50.4091C34.4161 50.0839 33.9989 49.9239 33.5936 49.9753L29.1174 43.269C29.18 43.0258 29.1695 42.7694 29.0764 42.5307C29.0364 42.429 28.9801 42.3299 28.9077 42.2338L27.1978 40.0206C27.0269 39.7988 27.014 39.4911 27.1658 39.2553L28.3276 37.4525C28.6157 37.0071 28.5861 36.4525 28.2522 36.04C27.9179 35.6273 27.3818 35.4825 26.8855 35.6719L15.8806 39.8677C15.2719 40.0986 14.957 40.7617 15.1641 41.3776C15.488 42.3408 16.3255 44.105 18.2958 45.1C19.1357 45.5262 20.1071 45.7749 21.1837 45.8388C21.3814 45.8501 21.5683 45.9572 21.6834 46.1246L29.1661 57.1089C29.3624 57.3957 29.6727 57.5845 30.0176 57.627C30.0667 57.6331 30.1161 57.6361 30.1651 57.6361C30.458 57.6361 30.7431 57.5292 30.9645 57.3331L35.5329 53.2948C36.0173 52.8654 36.0782 52.1346 35.6711 51.6307ZM31.9302 50.5075C31.8157 50.5462 31.6998 50.5533 31.5846 50.5288C31.5792 50.5272 31.5737 50.5257 31.5682 50.5244C31.4137 50.4873 31.2774 50.397 31.1843 50.271L28.0627 46.0138C27.9088 45.8047 27.8922 45.5236 28.0205 45.2975L28.8459 43.8431L33.0436 50.1323L31.9302 50.5075ZM35.172 52.8873L30.6037 56.9256C30.4596 57.0528 30.2744 57.1096 30.0843 57.0869C29.8944 57.0634 29.7236 56.9595 29.6157 56.802L22.1328 45.8172C21.9226 45.5114 21.5795 45.3162 21.2154 45.2955C20.2144 45.2359 19.3148 45.0068 18.5417 44.6145L18.5413 44.6144C16.7446 43.7069 15.9774 42.0883 15.6802 41.2043C15.5668 40.8671 15.7397 40.5036 16.0742 40.3768L27.0795 36.1806C27.1655 36.148 27.2475 36.1338 27.3243 36.1338C27.5433 36.1338 27.7212 36.2493 27.8292 36.3826C27.975 36.5626 28.0622 36.8607 27.8704 37.1575L26.7083 38.9607C26.4323 39.3895 26.4557 39.949 26.7668 40.3532L28.4752 42.5642C28.5155 42.6177 28.5481 42.6749 28.5696 42.7294C28.6303 42.8846 28.6299 43.0614 28.5674 43.2178C28.5574 43.2439 28.5473 43.2685 28.5292 43.2987L27.5473 45.0284C27.4888 45.1316 27.4468 45.241 27.4211 45.3532C27.3568 45.6334 27.3944 45.9304 27.5307 46.187C27.5579 46.2385 27.5891 46.2883 27.6243 46.336L30.7461 50.5931C30.7877 50.6496 30.8341 50.7021 30.8844 50.7501C31.0354 50.8941 31.2225 50.9982 31.4274 51.05C31.4336 51.0519 31.44 51.0535 31.4463 51.0551V51.0554C31.5271 51.0745 31.6091 51.0821 31.6913 51.0839C31.7005 51.0842 31.7095 51.0871 31.7186 51.0871C31.7271 51.0871 31.7355 51.0852 31.744 51.0851C31.786 51.0842 31.8278 51.0802 31.8697 51.0748C31.8885 51.0723 31.9073 51.0713 31.9262 51.068C31.9865 51.0574 32.0465 51.0431 32.1051 51.0232L33.5248 50.545C33.525 50.545 33.5252 50.5447 33.5255 50.5447C33.5343 50.543 33.5432 50.5405 33.552 50.5377C33.8047 50.4576 34.0886 50.5434 34.2579 50.7519L35.2487 51.9732C35.4716 52.2498 35.438 52.6515 35.172 52.8873Z" fill="#000E3F"/>
<path d="M7.86562 39.6211C13.1829 44.8666 24.2444 36.3692 36.2926 34.8322C34.0068 32.5722 32.0208 29.5799 30.6476 26.0705C30.63 26.0258 30.6116 25.9787 30.5957 25.9306C30.2793 25.1078 30.0051 24.2828 29.776 23.463C29.1945 21.3998 28.889 19.3542 28.8344 17.4023C25.7382 20.5844 22.6222 23.1679 15.1292 27.4727C14.6371 27.7569 14.1001 28.0441 13.5445 28.3416C12.7082 28.7917 11.8259 29.263 10.9743 29.7763C8.84092 31.063 6.89757 32.6157 6.33268 34.7242C5.85982 36.4908 6.57962 38.374 7.86562 39.6211Z" fill="#D8D6D5"/>
<path d="M19.1849 39.9025C17.4655 40.4832 15.5214 41.067 13.6412 41.2436C13.5483 41.2565 13.4553 41.2629 13.3653 41.2693C11.6329 41.3975 9.97118 41.1569 8.60765 40.2298C8.43128 40.1112 8.26448 39.9796 8.10072 39.8415C8.02058 39.7709 7.94363 39.7004 7.86654 39.6233C6.58025 38.3786 5.85841 36.4922 6.33316 34.7278C6.89776 32.6169 8.84183 31.0641 10.9752 29.7777C11.8254 29.2646 12.7077 28.7929 13.5448 28.3438C12.9 31.1218 13.0443 34.3684 15.5788 37.1659C16.461 38.1444 17.6385 39.0684 19.1782 39.8992C19.1816 39.8993 19.1816 39.9025 19.1849 39.9025Z" fill="#322BBF"/>
<path d="M8.60675 40.2301C10.7221 41.6674 13.5048 41.4479 16.173 40.7899C9.95695 37.5997 10.1406 32.7118 10.9741 29.7773C8.84079 31.0641 6.89744 32.6167 6.33255 34.7253C5.77491 36.808 6.87773 39.0563 8.60675 40.2301Z" fill="#5E7BE0"/>
<g opacity="0.25">
<path d="M36.2936 34.8302C30.1148 35.6162 24.1959 38.2372 19.1786 39.8958C17.6388 39.065 16.4612 38.141 15.5791 37.1625C18.1456 36.2546 20.7411 35.0258 22.8519 33.0499C26.6439 29.492 26.4482 27.3105 27.7826 25.2382C28.2671 24.4907 28.9728 23.82 29.7748 23.4609C30.0058 24.2822 30.2785 25.1066 30.5961 25.9279C30.612 25.976 30.6314 26.0241 30.6474 26.069C32.0203 29.5786 34.0061 32.5718 36.2936 34.8302Z" fill="#89826F"/>
</g>
<g opacity="0.25">
<path d="M19.1784 39.8975C17.1733 40.5583 15.3159 41.0651 13.6412 41.2416C13.5483 41.2545 13.4553 41.2609 13.3653 41.2673C11.2898 41.447 9.50601 41.0876 8.10089 39.8395C8.02075 39.769 7.9438 39.6984 7.8667 39.6213C9.93265 38.7969 12.7367 38.1746 15.5789 37.1641C16.4612 38.1427 17.6386 39.0667 19.1784 39.8975Z" fill="#000E3F"/>
</g>
<path opacity="0.5" d="M8.9678 32.5546C7.35824 34.182 7.36751 37.2204 9.23029 38.5811C9.44133 38.7351 9.70947 38.4832 9.57177 38.2632C8.43587 36.4474 8.50776 34.7687 9.33146 32.802L9.33306 32.7982C9.3806 32.6843 9.32711 32.5534 9.21319 32.5056C9.12666 32.4695 9.03013 32.4918 8.9678 32.5546Z" fill="#F3E881"/>
<path opacity="0.75" d="M27.2114 21.0053C20.1112 27.116 18.7625 26.8004 19.1463 27.3888C19.2143 27.493 19.3431 27.5344 19.456 27.4979C22.5169 26.4955 25.8214 23.9683 27.5878 21.3385C27.7516 21.0944 27.4353 20.8126 27.2114 21.0053Z" fill="white"/>
<path d="M36.4839 34.6374C32.0537 30.2577 29.2798 23.5989 29.1063 17.3937C29.0998 17.1532 28.8063 17.0396 28.6392 17.2115C21.3037 24.7506 12.8874 27.965 9.34881 30.5132C4.70999 33.8527 5.21996 38.2611 8.45365 40.4534C8.71697 40.5433 10.0928 41.9833 14.1888 41.449C19.9306 40.6732 27.9312 36.1722 36.327 35.1012C36.4303 35.088 36.517 35.0171 36.5505 34.9184C36.5836 34.8197 36.5578 34.7108 36.4839 34.6374ZM7.00447 37.9998C5.38849 34.8174 7.53531 32.28 10.5451 30.3621C9.92529 33.1519 10.0259 37.5907 15.39 40.6719C11.9643 41.4 8.59306 41.1376 7.00447 37.9998ZM16.1889 40.4875C10.5179 37.5219 10.3302 33.1503 11.2075 29.9551C11.8604 29.5647 12.4276 29.2536 13.1578 28.8596C12.2551 33.6575 14.2549 37.3338 18.5002 39.8263C17.7056 40.0788 16.9341 40.3028 16.1889 40.4875ZM19.2031 39.5978C14.7829 37.173 12.6713 33.5191 13.7856 28.5199C19.06 25.6945 24.3769 22.2826 28.5882 18.0398C28.9146 24.0039 31.5546 30.3076 35.7167 34.6348C29.7486 35.4998 24.0061 38.0066 19.2031 39.5978Z" fill="#000E3F"/>
<path d="M30.2313 26.8681C31.5258 30.1764 33.3293 33.0242 35.366 35.2008C38.9376 39.0201 43.2302 40.7887 46.7825 39.3987C52.3605 37.2161 53.9962 28.0671 50.4335 18.9628C46.8709 9.85833 39.4603 4.24943 33.8823 6.43204C30.0092 7.94759 28.036 12.8231 28.3856 18.7095C28.3859 18.7228 28.3863 18.7361 28.3889 18.7486C28.5433 21.2873 29.1286 24.013 30.1821 26.7363C30.1973 26.7814 30.2147 26.8259 30.2313 26.8681Z" fill="#3350C8"/>
<path d="M48.0535 19.8954C50.0422 24.9777 50.3112 30.0047 49.0715 33.35C49.0233 33.4796 48.974 33.6066 48.9201 33.7297C48.2513 35.3107 47.2166 36.4702 45.8449 37.007C42.5941 38.2791 38.3673 35.6949 35.1975 30.9439C35.19 30.9322 35.1826 30.9206 35.1752 30.909C34.3259 29.6247 33.5495 28.1838 32.8878 26.6193C32.7938 26.3939 32.6999 26.1686 32.6099 25.9388C31.8873 24.0922 31.3939 22.2581 31.1159 20.5056C31.1136 20.492 31.1101 20.4759 31.1103 20.4613C30.7949 18.4495 30.7615 16.5549 31.003 14.8875C31.06 14.4749 31.1377 14.0775 31.2295 13.6949C31.8068 11.2992 33.0223 9.5303 34.8183 8.82759C39.0845 7.15785 45.0082 12.1129 48.0535 19.8954Z" fill="#D8D6D5"/>
<path opacity="0.25" d="M48.9203 33.7289C48.2515 35.31 47.2168 36.4695 45.8452 37.0062C42.5867 38.2812 38.348 35.6816 35.1753 30.9083C34.3259 29.624 33.5496 28.1831 32.8879 26.6185C32.7939 26.3932 32.6999 26.1678 32.61 25.938C31.8874 24.0915 31.3939 22.2574 31.116 20.5049C30.7949 18.4782 30.7604 16.5662 31.0031 14.8867C33.4263 22.6797 38.4735 31.7963 48.9203 33.7289Z" fill="#89826F"/>
<path d="M46.0096 25.2949C45.6741 25.703 45.5883 25.8559 44.407 26.4842L44.4044 26.4853C44.3266 26.5244 44.2421 26.5692 44.1526 26.6158C44.1282 26.6281 44.1066 26.6396 44.0823 26.6521C42.8216 27.3085 39.6288 28.7735 35.1981 30.9383C35.1906 30.9266 35.1832 30.915 35.1758 30.9034C34.3264 29.6191 33.5501 28.1782 32.8884 26.6137C32.7944 26.3883 32.7004 26.163 32.6105 25.9331C32.3525 25.2739 32.1238 24.6148 31.9251 23.9583C31.5618 22.7841 31.2943 21.6246 31.1165 20.5C31.1142 20.4864 31.1107 20.4703 31.1108 20.4557C34.9958 19.2704 40.5666 17.5477 42.0475 17.2683C45.4238 16.6372 47.6226 23.3355 46.0096 25.2949Z" fill="#EAAD54"/>
<path d="M39.4153 21.0278C37.6377 21.1607 34.6658 21.8971 33.0597 22.6023C32.8544 22.6924 32.9518 23.0435 33.1786 23.0264C35.002 22.8846 37.9651 22.1176 39.527 21.4265C39.6205 21.3851 39.6591 21.2653 39.6131 21.1591C39.5759 21.0727 39.4943 21.022 39.4153 21.0278Z" fill="#E47532"/>
<path d="M40.7274 24.5204C39.1093 25.0735 36.4121 26.5223 34.9792 27.6542C34.8012 27.7946 34.9671 28.1191 35.1798 28.0461C36.8435 27.472 39.5363 25.9853 40.9159 24.889C40.9968 24.8249 41.0091 24.6964 40.9433 24.602C40.8903 24.5256 40.8019 24.4952 40.7274 24.5204Z" fill="#E47532"/>
<path d="M42.4269 24.1435C40.2659 21.0456 41.2306 18.331 41.1848 18.5943C41.26 18.3607 40.9571 18.1737 40.8258 18.3739C39.4091 20.5351 41.1491 25.1299 43.6781 25.8609C43.8945 25.9234 43.9959 25.6067 43.7991 25.4851C43.7991 25.4851 43.1301 25.1331 42.4269 24.1435Z" fill="#E47532"/>
<path d="M45.0459 21.072C45.6186 22.5354 45.4942 23.9521 44.7681 24.2362C44.0419 24.5202 42.9892 23.5644 42.4164 22.1009C41.8437 20.6374 41.9681 19.2208 42.6943 18.9367C43.4204 18.6526 44.4733 19.6086 45.0459 21.072Z" fill="#E47532"/>
<g opacity="0.25">
<path d="M44.4041 26.4918C44.3263 26.5309 44.2418 26.5757 44.1522 26.6223C44.1279 26.6347 44.1063 26.6461 44.082 26.6586C42.8213 27.3151 39.6285 28.78 35.1978 30.9448C35.1902 30.9331 35.1828 30.9215 35.1755 30.9099C34.3261 29.6256 33.5498 28.1847 32.8881 26.6202C32.794 26.3948 32.7001 26.1695 32.6101 25.9396C32.3522 25.2804 32.1235 24.6213 31.9248 23.9648C36.1892 26.8838 40.1115 24.4841 44.4041 26.4918Z" fill="#000E3F"/>
</g>
<path opacity="0.75" d="M43.5123 15.6296L43.5144 15.6319C43.7449 15.9109 44.1346 15.6403 43.9806 15.3083C42.3075 11.7106 38.0604 9.14944 34.7825 10.6085C34.5011 10.7337 34.6374 11.2067 34.9457 11.1765C34.9457 11.1765 38.9847 10.1499 43.5123 15.6296Z" fill="white"/>
<path d="M50.6871 18.8618C47.0761 9.63327 39.4944 3.94249 33.7833 6.17698C27.6171 8.58957 26.6057 18.2943 29.9755 26.9592C30.0094 26.946 30.5166 26.7484 30.4827 26.7617C27.1458 18.2033 28.3014 8.90651 33.9817 6.68376C39.4117 4.55912 46.6781 10.1112 50.1802 19.0602C51.885 23.417 52.449 27.9154 51.7679 31.7266C51.0954 35.4895 49.2897 38.1235 46.6833 39.1435C43.3568 40.4444 39.2005 38.901 35.5648 35.0132C33.4809 32.7861 31.7242 29.9345 30.4847 26.767C30.4508 26.7802 29.9437 26.9783 29.9777 26.965L29.9779 26.9654C31.2424 30.1965 33.0367 33.1079 35.1673 35.385C38.0603 38.4789 41.2937 40.1404 44.2368 40.1404C45.1529 40.1404 46.0411 39.9792 46.8817 39.6502C49.6711 38.5589 51.5966 35.7788 52.3037 31.8224C53.0025 27.9138 52.4282 23.3109 50.6871 18.8618Z" fill="#000E3F"/>
<path d="M34.9486 31.0603C34.9499 31.0622 34.9448 31.0545 34.9695 31.0925L34.9693 31.0926C35.0003 31.1255 39.1161 37.6051 44.0868 37.6051C44.7308 37.6051 45.3538 37.4926 45.9448 37.2613C47.3386 36.716 48.4545 35.5319 49.1699 33.84C49.2259 33.7121 49.277 33.5806 49.3272 33.4455C50.6432 29.8944 50.2619 24.7922 48.3074 19.7973C46.8181 15.9913 44.6026 12.7282 42.0688 10.6092C39.4893 8.45195 36.8789 7.72954 34.7195 8.57513C32.8881 9.29175 31.59 11.0405 30.9654 13.6322C30.8668 14.0416 30.789 14.4516 30.7341 14.8493C29.9691 20.1257 31.961 26.541 34.9486 31.0603ZM35.2983 30.5932C33.3294 27.5618 31.9855 24.0409 31.4158 20.6539C33.8718 19.9032 40.5426 17.8361 42.0975 17.5426C43.6138 17.2592 44.6816 18.6395 45.1824 19.4876C46.3325 21.4351 46.6266 24.1239 45.7994 25.1287L45.7993 25.1289L45.7453 25.195C44.9876 26.1229 43.36 26.66 35.2983 30.5932ZM31.2732 14.9257C31.3259 14.5439 31.4006 14.1514 31.4948 13.7597C32.0757 11.3486 33.2594 9.731 34.918 9.08191C36.8844 8.3124 39.3 9.00322 41.7197 11.0267C44.1845 13.0882 46.3442 16.2733 47.8008 19.9957C49.7079 24.8697 50.0879 29.8269 48.8172 33.2559C48.7707 33.3807 48.7235 33.503 48.6701 33.6245C48.0118 35.1813 47.0007 36.2636 45.7466 36.7543C42.7933 37.91 38.7421 35.6219 35.6009 31.0512C43.92 26.9942 45.3156 26.582 46.167 25.5389L46.2199 25.4744C47.3101 24.15 46.806 21.1663 45.6513 19.2107C44.6759 17.559 43.3445 16.7559 41.9971 17.0075C40.3973 17.3093 33.6611 19.3982 31.3361 20.109C31.0684 18.2416 31.0451 16.4987 31.2732 14.9257Z" fill="#000E3F"/>
<path d="M5.49443 21.4429C5.93447 21.8854 6.25508 22.2357 6.62018 22.7124L6.61511 22.7165C6.47002 22.8761 6.29494 23.0887 6.10173 23.1954L6.09695 23.1999C5.64734 22.8616 5.30354 22.4192 4.84219 22.03C4.61145 22.1441 4.44694 22.4359 4.21982 22.573L4.21011 22.5815L4.20532 22.5863L4.20982 22.5904C5.08569 23.587 6.80063 25.3664 7.33474 25.8736C7.3933 25.7062 7.88624 25.4837 7.96103 25.248C7.65506 24.7881 7.17951 24.4122 6.8144 23.9359C6.96181 23.7214 7.144 23.5548 7.36199 23.4171L7.37112 23.4174C7.80116 23.7819 8.20091 24.3059 8.65399 24.6758L8.65878 24.6713C8.80357 24.5125 9.11838 24.2684 9.3042 24.0292L6.10376 20.7891C5.89823 20.9495 5.60893 21.2406 5.49443 21.4429Z" fill="white"/>
<path d="M7.66336 19.543L7.54233 19.6411C7.24274 19.8913 7.09925 19.9829 6.97402 20.0762C6.92793 20.1129 6.78965 20.2 6.75806 20.2333L6.76632 20.2439C7.56146 21.4745 8.74099 22.5698 9.63093 23.8663C9.73993 23.7112 10.4932 23.2772 10.5148 23.0755C9.51991 21.9815 8.61692 20.7209 7.68003 19.5634L7.66336 19.543Z" fill="white"/>
<path d="M11.2282 20.1189L11.2247 20.1135L11.2301 20.1103L11.2511 20.095C11.5752 19.8323 11.6603 19.4926 11.6114 19.1436C11.5263 18.0943 10.3336 17.5633 9.4663 18.1171C8.91103 18.4246 8.48215 18.8425 8.12646 19.1831C8.43215 19.5007 10.8434 22.8294 10.8012 22.859C10.8585 22.794 11.5143 22.4147 11.6811 22.1441C11.4723 21.8857 10.9182 21.219 10.7338 20.871L10.7557 20.8792C11.3217 21.0349 12.0713 21.459 12.4387 21.6842L12.4447 21.6803C12.7773 21.4748 13.0671 21.2207 13.3161 21.0434L13.3107 21.0469C12.6838 20.6151 11.8984 20.4324 11.2282 20.1189ZM10.4584 19.6217C10.3081 19.7683 10.0993 19.9015 9.92373 20.0028L9.91837 20.0065C9.77894 19.8665 9.57153 19.5427 9.42803 19.3739C9.60472 19.0956 9.84546 18.8844 10.1013 18.9185C10.4064 18.9321 10.687 19.371 10.4584 19.6217Z" fill="white"/>
<path d="M12.3552 16.293L12.2232 16.3754C11.8962 16.5886 11.7426 16.6617 11.607 16.7394C11.5573 16.7704 11.4091 16.841 11.3743 16.8703L11.3811 16.8813C12.0236 18.1978 13.0633 19.426 13.7923 20.8187C13.9184 20.6782 14.7178 20.3367 14.7633 20.14C13.907 18.9348 13.1608 17.576 12.3691 16.3147L12.3552 16.293Z" fill="white"/>
<path d="M17.1052 18.0989C16.9883 17.8883 16.8831 17.6865 16.7597 17.4643C16.5793 17.1414 16.3958 16.8118 16.2127 16.4976L15.1933 14.668C15.0727 14.7058 14.9416 14.7645 14.7992 14.8438C14.6575 14.9229 14.5275 15.0097 14.4093 15.1051C14.5083 15.2957 14.5915 15.4575 14.68 15.617C14.832 15.8894 14.9884 16.1298 15.1564 16.4312C15.229 16.5618 15.3035 16.7354 15.2904 16.7653C15.2733 16.775 14.3904 16.1659 14.2847 16.0832C13.9713 15.8407 13.898 15.8298 13.6348 15.6111C13.6159 15.5778 13.2284 15.7639 13.1317 15.8182C13.0407 15.8679 12.9533 15.9252 12.8889 15.983C13.1182 16.4878 13.3946 17.0112 13.6862 17.5332C14.0818 18.2429 14.4438 18.8526 14.8462 19.5739L15.0678 19.9715C15.2438 19.8734 15.4506 19.8028 15.6321 19.7018C15.7171 19.6539 15.7934 19.6039 15.866 19.5339C15.7877 19.4065 15.6958 19.2419 15.5977 19.0652C15.2433 18.4295 14.8105 17.6136 14.8333 17.601C14.8501 17.5913 14.9261 17.661 15.0023 17.7304L15.1536 17.869C15.5993 18.2535 16.155 18.6362 16.7183 19.0585C16.8716 18.9737 17.1032 18.8815 17.2561 18.7962C17.3873 18.7233 17.4138 18.6783 17.428 18.663L17.3648 18.5498C17.2786 18.396 17.1909 18.2515 17.1052 18.0989Z" fill="white"/>
<path d="M19.2209 15.2893L19.2126 15.2861L19.2007 15.2921C19.0412 15.3666 18.1459 15.6626 18.0035 15.88C18.0003 15.8888 17.9944 15.8916 17.9944 15.8916C17.9885 15.8942 17.9885 15.8942 17.9908 15.8998L17.9937 15.9061C18.1499 16.163 18.1585 16.2743 18.3062 16.5139C18.3966 16.5071 18.6452 16.3475 18.7481 16.3219C18.8033 16.3171 18.8946 16.6054 18.9069 16.6784C18.93 16.804 18.8927 16.8935 18.8233 16.9759C18.7308 17.0695 18.6089 17.162 18.4827 17.1995C18.4243 17.2125 18.3686 17.2169 18.3225 17.2095C18.1199 17.1608 17.9805 16.9383 17.8831 16.7761C17.5604 16.2084 17.2433 15.4663 17.1791 15.0368C17.1661 14.9636 17.16 14.8735 17.1694 14.8478C17.2198 14.709 17.3603 14.6717 17.4987 14.6148C17.7289 14.5075 18.0064 14.7799 18.1279 14.9167C18.3775 14.8361 18.4608 14.7838 18.6903 14.6759C18.8111 14.6119 18.861 14.5965 18.8678 14.5643L18.8568 14.5265C18.5207 13.5137 17.5739 13.4238 16.7483 13.9463C16.5498 14.0739 16.3747 14.2213 16.2784 14.4313C16.1231 14.6971 16.1674 14.9925 16.2471 15.2711C16.3242 15.5434 16.4361 15.8143 16.5488 16.0704C16.8037 16.6621 16.9568 16.914 17.238 17.3929C17.3296 17.5434 17.4365 17.6953 17.5015 17.7725C17.7525 18.0647 18.0043 18.2197 18.3799 18.2093C18.8316 18.1919 19.2738 17.8778 19.6102 17.5846C19.8583 17.3327 19.9886 17.042 19.843 16.6219C19.7215 16.1616 19.4634 15.686 19.2209 15.2893Z" fill="white"/>
<path d="M19.6244 12.6562C19.3746 12.6796 19.0913 12.8639 18.8879 12.9672L18.8696 12.9746C19.2458 14.0988 19.7354 15.1211 20.1456 16.1891L20.1512 16.1865C20.3839 16.0855 20.7156 15.9517 20.917 15.8428C20.4526 14.8311 20.0224 13.6943 19.6244 12.6562Z" fill="white"/>
<path d="M21.0539 16.1758C20.8192 16.2702 20.4847 16.3285 20.3235 16.4841L20.3258 16.4903C20.4159 16.7135 20.538 17.2249 20.5924 17.2028L21.0421 17.0147L21.0539 17.0094C21.1449 16.9733 21.1891 16.9624 21.2857 16.9232L21.3279 16.9067C21.2327 16.6714 21.138 16.4006 21.0539 16.1758Z" fill="white"/>
<path d="M4.66244 18.625C4.74549 18.5727 4.80955 18.5272 4.86449 18.4819C4.95899 18.4019 5.01508 18.3379 5.08755 18.2518C5.0503 17.9945 4.6436 17.4185 4.66302 17.1991L4.6678 17.1949C4.94218 17.2794 5.42845 17.7372 5.67239 17.7954L5.73239 17.7453L5.91168 17.5948C5.97633 17.5404 6.04054 17.4949 6.07271 17.4424C5.19814 16.2071 4.37951 14.9581 3.51407 13.7235L3.50494 13.7227C3.38681 13.8045 3.27304 13.8914 3.15839 13.9876C3.03881 14.0878 2.923 14.1926 2.82937 14.314L2.83343 14.3194C3.26796 14.9477 4.09413 15.8934 4.52011 16.5126C4.27342 16.38 3.52842 15.765 3.43131 15.7702C3.43015 15.7797 3.43435 15.7844 3.44189 15.8036C3.61785 16.1656 3.79163 16.5033 3.9573 16.874C3.33261 16.4215 2.6582 15.4251 2.10988 14.8831C1.98611 14.9787 1.84348 15.0815 1.70883 15.1938C1.59418 15.2903 1.49287 15.3924 1.40576 15.4912L1.40982 15.495C2.39498 16.6302 3.54451 17.6268 4.65737 18.6291L4.66244 18.625Z" fill="white"/>
<path d="M8.83739 15.4167C8.74376 15.1632 8.56128 14.9104 8.38184 14.6948L8.37416 14.6848C7.90571 15.0462 7.43755 15.3199 6.97287 15.6538L6.96403 15.6524C6.82677 15.495 6.60037 15.2258 6.48906 14.993C6.52094 14.8823 6.91083 14.6888 7.0852 14.4756C6.89373 14.2201 6.75444 13.9605 6.54645 13.7499L6.54268 13.7437C6.32266 13.8947 6.10496 14.0595 5.88248 14.1965L5.87364 14.195C5.68898 14.0385 5.5768 13.7832 5.42345 13.5818L5.42461 13.572L5.44055 13.5607C5.87451 13.1839 6.40108 12.9249 6.77691 12.5009L6.77329 12.4962C6.59486 12.248 6.44934 11.9686 6.23367 11.7468C6.21062 11.7155 4.85949 12.7207 4.07202 13.3525C4.87427 14.61 5.78522 15.7407 6.66733 16.9644C7.38972 16.5323 8.11674 15.9282 8.83739 15.4167Z" fill="white"/>
<path d="M8.06472 12.3596L8.07037 12.3559C8.07211 12.3467 8.06863 12.3414 8.06863 12.3414C7.9183 11.726 7.82871 11.5519 7.57967 10.7827L7.57575 10.7773C7.42513 10.8672 6.96038 11.1915 6.96241 11.1818C7.00735 11.3002 7.39194 12.4695 7.48152 12.752C7.53502 12.8108 8.00441 12.3983 8.06472 12.3596Z" fill="white"/>
<path d="M11.2428 13.8535C11.0612 13.5752 10.5758 12.8566 10.4275 12.4917L10.4486 12.502C10.996 12.7138 11.699 13.2104 12.0425 13.4714L12.0484 13.4682C12.3999 13.2975 12.7137 13.073 12.9792 12.9215L12.9733 12.9247C12.3931 12.4326 11.6298 12.172 10.9948 11.793L10.9915 11.7879L10.9972 11.785L11.0196 11.7714C11.3685 11.5428 11.4869 11.2125 11.473 10.8613C11.4937 9.80889 10.3597 9.161 9.44194 9.6251C8.85855 9.87556 8.3901 10.2483 8.00195 10.5523C8.2743 10.8978 10.3406 14.4508 10.2954 14.4769C10.3593 14.418 11.0496 14.1058 11.2428 13.8535ZM9.70834 11.5477L9.70269 11.5509C9.57746 11.397 9.40411 11.0544 9.27787 10.8719C9.48166 10.6135 9.74226 10.4276 9.9933 10.4855C10.2955 10.531 10.5309 10.9946 10.2787 11.2219C10.1139 11.3528 9.89285 11.4644 9.70834 11.5477Z" fill="white"/>
<path d="M15.5617 11.6829C15.513 11.417 15.3774 11.1361 15.2382 10.8923L15.2328 10.8806C14.7079 11.1553 14.199 11.3431 13.6836 11.5907L13.675 11.5884C13.5672 11.4088 13.3911 11.104 13.3221 10.8561C13.3728 10.7522 13.7908 10.6304 13.9997 10.4497C13.8555 10.1658 13.7637 9.88515 13.5959 9.64151L13.593 9.63527C13.3499 9.74543 13.1064 9.86979 12.8636 9.96487L12.8551 9.96197C12.7006 9.77645 12.6348 9.50526 12.5187 9.2793L12.5222 9.27104L12.5393 9.2622C13.0322 8.96739 13.5962 8.80346 14.0404 8.45227L14.0378 8.44603C13.9046 8.17079 13.8104 7.87004 13.6366 7.61451C13.6192 7.57871 12.1136 8.33428 11.2283 8.81882C11.7983 10.1971 12.4984 11.4691 13.1538 12.829C13.9407 12.5289 14.7618 12.0604 15.5617 11.6829Z" fill="white"/>
</g>
<defs>
<clipPath id="clip0_8333_82340">
<rect width="54.0012" height="54.0012" fill="white" transform="translate(-0.000976562 0.9375)"/>
</clipPath>
</defs>
</svg>
