<svg width="55" height="55" viewBox="0 0 55 55" fill="none" xmlns="http://www.w3.org/2000/svg">
<path d="M40.2859 23.778C40.2859 21.9974 39.9245 20.2353 39.2238 18.5985C38.523 16.9616 37.4974 15.4839 36.2089 14.2549C34.9205 13.0259 33.3961 12.0711 31.728 11.4484C30.0599 10.8256 28.2827 10.5478 26.5041 10.6318C19.7492 10.9425 14.272 16.4345 13.978 23.1902C13.8987 24.9129 14.1599 26.6344 14.7466 28.2561C15.3332 29.8778 16.2339 31.3679 17.397 32.6412C19.5879 35.0447 20.8639 38.1405 20.8639 41.3935V43.731H33.3879V41.2459C33.3879 38.0609 34.6507 35.0338 36.8084 32.6912C39.0488 30.2642 40.2907 27.081 40.2859 23.778Z" fill="#FFB020"/>
<path d="M22.7757 39.6125C22.7702 39.5477 22.3222 34.3984 21.0642 30.2095C19.8099 28.8214 19.074 26.8666 19.0086 26.2202C18.9722 25.8599 19.118 25.7387 19.2467 25.701C19.5116 25.6227 19.7758 25.8147 20.4099 27.0521C20.8689 27.9803 21.2469 28.9464 21.5397 29.9396C23.2616 31.7659 25.3466 31.6906 26.408 28.7846C26.0956 27.0701 26.2125 25.0479 26.4107 23.925C26.5742 22.998 26.7556 22.7833 26.9775 22.746C27.0554 22.7345 27.1348 22.7491 27.2036 22.7874C27.2723 22.8257 27.3264 22.8857 27.3576 22.9579C27.7291 23.6267 27.7247 26.562 26.9556 28.8112C27.1887 30.0004 27.6032 30.7927 28.1586 31.1079C29.305 31.7577 30.9368 30.8239 31.9673 30.0078C32.3812 27.9556 34.2502 24.9747 35.1037 25.5922C35.8648 26.1432 34.5801 28.54 32.452 30.2968C32.3406 30.9573 32.4241 30.4585 32.0608 39.6009C32.058 39.6712 32.0275 39.7375 31.9759 39.7852C31.9503 39.8089 31.9204 39.8272 31.8877 39.8393C31.8551 39.8514 31.8204 39.8569 31.7856 39.8555C31.7508 39.8542 31.7166 39.846 31.685 39.8314C31.6534 39.8169 31.6249 39.7962 31.6013 39.7707C31.5535 39.7191 31.5282 39.6506 31.531 39.5804C31.6793 35.6558 31.8623 30.7514 31.8626 30.7478C30.7029 31.5677 29.1317 32.2685 27.8973 31.5693C27.2827 31.221 26.8741 30.515 26.6137 29.6521C25.4876 31.9823 23.4821 32.1963 21.8207 30.9166C22.8991 34.9118 23.2829 39.3199 23.3041 39.5683C23.3074 39.6031 23.3038 39.6383 23.2934 39.6717C23.283 39.7052 23.2661 39.7362 23.2437 39.7631C23.2212 39.7899 23.1937 39.8121 23.1626 39.8282C23.1315 39.8444 23.0976 39.8542 23.0627 39.8572C23.0278 39.8601 22.9927 39.8561 22.9594 39.8454C22.926 39.8347 22.8952 39.8175 22.8685 39.7948C22.8419 39.7721 22.82 39.7443 22.8042 39.7131C22.7883 39.6819 22.7788 39.6478 22.7762 39.6129L22.7757 39.6125ZM34.7816 26.0572C34.3835 26.2304 33.2226 27.6664 32.6721 29.3958C33.3794 28.726 34.872 27.0273 34.7816 26.0572ZM19.7313 26.9043C19.9302 27.4496 20.1772 27.9761 20.4694 28.4777C20.2585 27.9374 20.012 27.4118 19.7313 26.9043ZM27.003 23.6588C26.8322 24.395 26.6745 25.9121 26.7812 27.4469C27.0903 25.9572 27.1051 24.4247 27.003 23.6588Z" fill="white"/>
<path d="M27.1258 52.4381C28.5325 52.4381 29.673 51.2977 29.673 49.8909C29.673 48.4842 28.5325 47.3438 27.1258 47.3438C25.719 47.3438 24.5786 48.4842 24.5786 49.8909C24.5786 51.2977 25.719 52.4381 27.1258 52.4381Z" fill="#EAE5DB"/>
<path d="M34.29 37.9492V43.9476C34.2897 45.4242 33.8331 46.8647 32.9829 48.0719C32.1326 49.2792 30.9301 50.1942 29.5399 50.692H24.7117C23.3213 50.1945 22.1187 49.2795 21.2684 48.0722C20.418 46.8649 19.9617 45.4243 19.9617 43.9476V37.9492H34.29Z" fill="#00ABFE"/>
<path d="M34.4932 39.8526L19.8437 38.7711C19.7638 38.7653 19.6836 38.7759 19.6081 38.8025C19.5326 38.829 19.4633 38.8708 19.4047 38.9253C19.346 38.9798 19.2992 39.0458 19.2672 39.1191C19.2352 39.1925 19.2186 39.2717 19.2185 39.3517C19.2185 39.4987 19.2741 39.6403 19.3742 39.7479C19.4742 39.8556 19.6113 39.9215 19.7578 39.9323L34.4074 41.014C34.4873 41.02 34.5675 41.0093 34.6431 40.9828C34.7186 40.9563 34.7879 40.9145 34.8466 40.8601C34.9053 40.8056 34.9521 40.7396 34.9841 40.6662C35.0161 40.5928 35.0326 40.5136 35.0326 40.4335C35.0327 40.2864 34.9771 40.1448 34.877 40.037C34.777 39.9293 34.6398 39.8634 34.4932 39.8526Z" fill="#A369F7"/>
<path d="M34.4932 42.6924L19.8437 41.611C19.7638 41.605 19.6836 41.6157 19.608 41.6422C19.5325 41.6687 19.4632 41.7105 19.4045 41.7649C19.3458 41.8194 19.299 41.8854 19.267 41.9588C19.235 42.0322 19.2185 42.1114 19.2185 42.1915C19.2185 42.3385 19.2741 42.48 19.3742 42.5877C19.4742 42.6954 19.6113 42.7613 19.7578 42.7721L34.4074 43.8541C34.4873 43.86 34.5674 43.8493 34.643 43.8227C34.7185 43.7962 34.7877 43.7544 34.8464 43.6999C34.905 43.6455 34.9518 43.5795 34.9839 43.5062C35.0159 43.4328 35.0325 43.3536 35.0326 43.2736C35.0326 43.1265 34.977 42.9849 34.877 42.8771C34.7769 42.7693 34.6398 42.7033 34.4932 42.6924Z" fill="#A369F7"/>
<path d="M34.4932 45.5284L19.8437 44.4469C19.7638 44.441 19.6836 44.4516 19.608 44.4781C19.5325 44.5046 19.4632 44.5464 19.4045 44.6009C19.3458 44.6554 19.299 44.7214 19.267 44.7948C19.235 44.8682 19.2185 44.9474 19.2185 45.0275C19.2185 45.1744 19.2741 45.316 19.3742 45.4237C19.4742 45.5313 19.6113 45.5972 19.7578 45.608L34.4073 46.6895C34.4872 46.6954 34.5673 46.6847 34.6429 46.6582C34.7184 46.6316 34.7876 46.5898 34.8463 46.5354C34.9049 46.4809 34.9517 46.4149 34.9838 46.3416C35.0158 46.2682 35.0324 46.189 35.0325 46.109C35.0325 45.962 34.9769 45.8204 34.8769 45.7128C34.7768 45.6051 34.6397 45.5392 34.4932 45.5284Z" fill="#A369F7"/>
<path d="M27.1255 8.57889C27.0552 8.57889 26.9879 8.55098 26.9382 8.50131C26.8885 8.45163 26.8606 8.38425 26.8606 8.31399V2.10474C26.8606 2.03449 26.8885 1.96711 26.9382 1.91743C26.9879 1.86775 27.0552 1.83984 27.1255 1.83984C27.1958 1.83984 27.2631 1.86775 27.3128 1.91743C27.3625 1.96711 27.3904 2.03449 27.3904 2.10474V8.31399C27.3904 8.38425 27.3625 8.45163 27.3128 8.50131C27.2631 8.55098 27.1958 8.57889 27.1255 8.57889Z" fill="#FFB020"/>
<path d="M11.0461 23.2759H4.83741C4.76715 23.2759 4.69978 23.248 4.6501 23.1983C4.60042 23.1486 4.57251 23.0812 4.57251 23.011C4.57251 22.9407 4.60042 22.8734 4.6501 22.8237C4.69978 22.774 4.76715 22.7461 4.83741 22.7461H11.0467C11.1169 22.7461 11.1843 22.774 11.234 22.8237C11.2836 22.8734 11.3116 22.9407 11.3116 23.011C11.3116 23.0812 11.2836 23.1486 11.234 23.1983C11.1843 23.248 11.1169 23.2759 11.0467 23.2759H11.0461Z" fill="#FFB020"/>
<path d="M49.4134 23.2759H43.2041C43.1339 23.2759 43.0665 23.248 43.0168 23.1983C42.9671 23.1486 42.9392 23.0812 42.9392 23.011C42.9392 22.9407 42.9671 22.8734 43.0168 22.8237C43.0665 22.774 43.1339 22.7461 43.2041 22.7461H49.4134C49.4836 22.7461 49.551 22.774 49.6007 22.8237C49.6503 22.8734 49.6783 22.9407 49.6783 23.011C49.6783 23.0812 49.6503 23.1486 49.6007 23.1983C49.551 23.248 49.4836 23.2759 49.4134 23.2759Z" fill="#FFB020"/>
<path d="M15.5684 11.8314L11.1784 7.44112C11.1301 7.39116 11.1034 7.32424 11.104 7.25479C11.1046 7.18533 11.1325 7.11889 11.1816 7.06977C11.2307 7.02066 11.2971 6.9928 11.3666 6.9922C11.4361 6.99159 11.503 7.01829 11.5529 7.06655L15.9432 11.4568C15.9685 11.4812 15.9887 11.5105 16.0025 11.5428C16.0164 11.5751 16.0237 11.6098 16.024 11.645C16.0243 11.6802 16.0176 11.7151 16.0043 11.7476C15.991 11.7802 15.9713 11.8098 15.9465 11.8346C15.9216 11.8595 15.892 11.8792 15.8594 11.8925C15.8269 11.9058 15.792 11.9125 15.7568 11.9122C15.7217 11.9119 15.6869 11.9046 15.6546 11.8907C15.6223 11.8768 15.593 11.8567 15.5686 11.8314H15.5684Z" fill="#FFB020"/>
<path d="M42.6981 38.9603L38.3078 34.57C38.2595 34.5201 38.2328 34.4531 38.2334 34.3837C38.234 34.3142 38.2619 34.2478 38.311 34.1987C38.3601 34.1496 38.4265 34.1217 38.496 34.1211C38.5655 34.1205 38.6324 34.1472 38.6823 34.1955L43.0724 38.5857C43.1206 38.6357 43.1473 38.7026 43.1467 38.772C43.1461 38.8415 43.1182 38.9079 43.0691 38.957C43.02 39.0061 42.9536 39.034 42.8841 39.0346C42.8147 39.0352 42.7477 39.0085 42.6978 38.9603H42.6981Z" fill="#FFB020"/>
<path d="M38.3078 11.8314C38.2581 11.7817 38.2302 11.7143 38.2302 11.6441C38.2302 11.5738 38.2581 11.5065 38.3078 11.4568L42.6981 7.06655C42.7481 7.01829 42.815 6.99159 42.8845 6.9922C42.9539 6.9928 43.0204 7.02066 43.0695 7.06977C43.1186 7.11889 43.1464 7.18533 43.147 7.25479C43.1476 7.32424 43.1209 7.39116 43.0727 7.44112L38.6824 11.8314C38.6327 11.881 38.5653 11.9089 38.4951 11.9089C38.4248 11.9089 38.3575 11.881 38.3078 11.8314Z" fill="#FFB020"/>
<path d="M11.1784 38.959C11.1287 38.9093 11.1008 38.8419 11.1008 38.7717C11.1008 38.7014 11.1287 38.6341 11.1784 38.5844L15.5686 34.1942C15.5931 34.1689 15.6223 34.1487 15.6546 34.1348C15.6869 34.1209 15.7217 34.1136 15.7569 34.1133C15.792 34.113 15.8269 34.1197 15.8595 34.133C15.892 34.1463 15.9216 34.166 15.9465 34.1909C15.9713 34.2157 15.991 34.2453 16.0043 34.2779C16.0177 34.3104 16.0244 34.3453 16.0241 34.3805C16.0237 34.4157 16.0164 34.4504 16.0026 34.4827C15.9887 34.5151 15.9685 34.5443 15.9432 34.5687L11.553 38.959C11.5033 39.0086 11.4359 39.0365 11.3657 39.0365C11.2954 39.0365 11.2281 39.0086 11.1784 38.959Z" fill="#FFB020"/>
</svg>
