<svg width="54" height="54" viewBox="0 0 54 54" fill="none" xmlns="http://www.w3.org/2000/svg">
<g clip-path="url(#clip0_8333_82467)">
<path d="M23.2678 45.3766C22.7913 46.4884 21.5207 47.0443 20.3295 46.7266C16.9147 45.8531 6.90862 43.153 3.49384 42.2795C1.98498 41.8824 1.27026 40.2941 1.82615 38.9441C6.11449 29.6527 10.0058 15.8348 10.0852 5.59041C10.0852 4.08155 11.4352 2.96976 12.8646 3.208C18.6618 4.08155 24.3002 4.9551 30.0974 6.06689C31.2886 6.30513 32.1621 7.33751 32.0827 8.52871C31.7651 19.8054 27.715 34.9734 23.2678 45.3766Z" fill="#32CE5A"/>
<path d="M5.08252 37.9021C6.19431 38.061 6.98845 39.3316 6.59138 40.364C10.8003 41.5552 15.0886 42.667 19.2181 43.7788C19.6152 42.667 21.0446 41.9522 22.077 42.5081C25.9683 32.3432 28.6684 21.6224 30.0184 10.9015C29.3831 11.2192 28.5095 10.9809 28.1125 10.4251C27.636 9.86916 27.636 8.99561 28.033 8.43971C23.5859 7.96323 19.0593 7.08968 14.6916 6.13672C15.168 6.53379 14.771 7.48675 14.5327 8.04265C14.2945 8.59854 13.6592 8.99561 13.0239 8.91619C12.1503 19.0017 9.52968 28.849 5.08252 37.9021Z" fill="#1FB64A"/>
<path d="M25.8078 27.1611C26.5053 23.1434 23.7787 19.3149 19.7178 18.6099C15.6569 17.905 11.7995 20.5904 11.102 24.6081C10.4045 28.6258 13.1311 32.4543 17.192 33.1593C21.2529 33.8643 25.1103 31.1788 25.8078 27.1611Z" fill="#32CE5A"/>
<path d="M21.1237 28.4509C21.2031 27.9744 21.6796 27.5773 21.759 26.7038C21.9178 25.592 21.4413 25.0361 20.806 24.9567C20.0913 24.8773 19.6148 25.1949 19.0589 26.2273C18.2648 27.5773 17.3912 28.2126 16.3589 28.0538C14.3735 27.7361 13.8176 25.4331 14.7706 23.5272C14.9294 23.289 15.0882 22.8125 15.4059 22.8125C15.7235 22.8125 16.0412 23.0507 16.1206 23.289C16.2 23.5272 15.8824 23.8449 15.803 24.0831C15.2471 25.1155 15.3265 26.4655 16.3589 26.6244C17.0736 26.7038 17.3912 26.3067 18.0265 25.2743C18.8207 23.9243 19.6148 23.289 20.8854 23.5272C23.109 23.8449 23.4267 26.4655 22.3943 28.4509C22.2355 28.8479 21.9972 29.3244 21.4413 29.1656C21.2031 29.0068 21.0443 28.7685 21.1237 28.4509Z" fill="white"/>
<path d="M14.6126 25.1148C14.2948 25.0353 13.9771 24.9559 13.6593 24.8764C13.421 24.797 13.3416 24.797 13.3416 24.4793C13.3416 24.3204 13.421 24.0026 13.5799 23.9232C13.6593 23.8437 13.6593 23.9232 14.8509 24.2409" fill="white"/>
<path d="M22.2356 27.4962L23.1889 27.7346C23.4272 27.814 23.5066 27.814 23.6655 27.5757C23.7449 27.4168 23.8244 27.099 23.7449 26.9402C23.6655 26.8607 23.6655 26.8607 22.5534 26.543" fill="white"/>
<path d="M23.2168 14.8675C23.5453 13.503 22.7055 12.1307 21.3411 11.8022C19.9767 11.4738 18.6044 12.3136 18.2759 13.678C17.9474 15.0424 18.7872 16.4147 20.1516 16.7432C21.516 17.0716 22.8884 16.2319 23.2168 14.8675Z" fill="#32CE5A"/>
<path d="M17.2348 37.677C17.553 36.3552 16.7394 35.0258 15.4177 34.7076C14.0959 34.3894 12.7664 35.2029 12.4482 36.5247C12.13 37.8465 12.9436 39.1759 14.2653 39.4941C15.5871 39.8123 16.9166 38.9988 17.2348 37.677Z" fill="#32CE5A"/>
<path d="M22.2347 46.5449C21.6788 46.8625 21.0435 46.942 20.4082 46.7831C16.3581 45.6713 12.308 44.639 8.25789 43.5272C6.5108 42.0977 4.7637 40.1124 5.08135 37.8888C5.31959 36.3799 6.5108 35.1887 7.62259 34.077C21.3611 20.5766 26.523 8.0293 28.1907 7.07634C29.5407 6.2822 29.9378 8.0293 30.0966 8.98227C30.2555 10.1735 29.8584 11.3647 29.3819 12.5559C25.4112 22.7208 14.8492 30.0269 21.1229 43.3683C21.52 44.2419 22.1553 45.4331 22.2347 46.5449Z" fill="black"/>
<path d="M7.62288 36.2951C14.9289 29.1479 23.585 17.7123 27.3969 8.26208C27.9528 6.91205 29.541 6.35615 30.8911 7.07088C35.9735 9.92976 40.8972 12.8681 45.9002 15.9652C46.9326 16.6005 47.3297 17.8711 46.8532 18.9829C42.406 29.3861 33.1146 42.0128 25.1733 50.113C24.2997 50.9866 22.9497 51.066 21.9967 50.3513C17.3113 46.8571 12.6259 43.4423 7.94054 40.0275C6.66992 39.0745 6.51109 37.3274 7.62288 36.2951Z" fill="#32CE5A"/>
<path d="M10.958 36.45C11.911 37.0059 12.1492 38.5148 11.5139 39.3089C15.0081 41.9295 18.5817 44.4708 22.0759 47.0914C22.7906 46.2179 24.4583 46.059 25.173 46.9326C32.4791 38.9912 38.9116 30.0175 43.9941 20.4085C43.2793 20.4879 42.5646 19.932 42.3264 19.2173C42.0881 18.5025 42.4058 17.7084 42.9617 17.3907C38.991 15.2466 35.0997 12.8642 31.3673 10.4023C31.6055 10.9582 30.9702 11.7524 30.4937 12.1494C30.0967 12.5465 29.3025 12.7053 28.7466 12.3877C24.3789 21.4408 18.4229 29.6204 10.958 36.45Z" fill="#1FB64A"/>
<path d="M34.198 34.0452C36.3068 30.5536 35.1554 25.9953 31.6264 23.8639C28.0973 21.7324 23.5269 22.835 21.4181 26.3265C19.3094 29.818 20.4607 34.3763 23.9898 36.5078C27.5188 38.6392 32.0892 37.5367 34.198 34.0452Z" fill="#32CE5A"/>
<path d="M30.5736 32.0795C31.1295 31.1266 30.8912 30.4118 30.3353 30.0942C29.7 29.6971 29.1441 29.9353 28.1912 30.6501C26.9999 31.6824 25.8882 31.8413 25.0146 31.3648C23.2675 30.3324 23.5852 27.95 25.1734 26.6C25.4117 26.3617 25.7293 26.0441 26.047 26.2029C26.2852 26.2823 26.5235 26.6 26.5235 26.9176C26.5235 27.1559 26.1264 27.3941 25.9676 27.5529C25.094 28.3471 24.6175 29.5383 25.5705 30.0942C26.2058 30.4118 26.6823 30.1736 27.5558 29.4589C28.747 28.5059 29.7794 28.1882 30.8118 28.8236C32.7177 29.9353 32.0824 32.4766 30.4941 33.9854C30.1765 34.3031 29.7794 34.7002 29.3824 34.3825C29.2235 34.3031 29.1441 34.1443 29.1441 33.9854C29.1441 33.2707 30.0971 32.9531 30.5736 32.0795Z" fill="white"/>
<path d="M24.459 28.0471C24.2207 27.8882 23.903 27.6499 23.6647 27.491C23.5058 27.3321 23.4263 27.2527 23.5058 27.0144C23.5852 26.8555 23.7441 26.6172 23.903 26.6172C24.0618 26.6172 23.9824 26.6172 24.9357 27.3321" fill="white"/>
<path d="M30.7324 33.04C30.9706 33.1988 31.2881 33.4369 31.5263 33.5957C31.6851 33.7545 31.7645 33.8339 32.0026 33.5957C32.1614 33.5163 32.3202 33.2781 32.3202 33.04C32.3202 32.8812 32.3202 32.9606 31.2881 32.2461" fill="white"/>
<path d="M36.2355 21.6127C37.037 20.4603 36.7525 18.8763 35.6001 18.0748C34.4476 17.2733 32.8636 17.5577 32.0621 18.7102C31.2606 19.8626 31.5451 21.4466 32.6975 22.2482C33.85 23.0497 35.434 22.7652 36.2355 21.6127Z" fill="#32CE5A"/>
<path d="M22.444 40.7083C23.2205 39.5919 22.9449 38.0574 21.8284 37.2809C20.712 36.5045 19.1775 36.7801 18.401 37.8965C17.6246 39.0129 17.9002 40.5474 19.0166 41.3239C20.133 42.1004 21.6675 41.8248 22.444 40.7083Z" fill="#32CE5A"/>
<path d="M19.297 48.7707C18.9793 48.5325 19.3764 48.056 19.694 48.3736C21.0441 49.6443 22.6323 50.8355 24.2206 50.4384C25.1736 50.2002 25.9677 49.406 26.6824 48.3736C33.9091 39.5587 41.3739 30.3468 46.0593 19.7053C46.377 18.9112 46.6946 18.1965 46.6152 17.4818C46.2976 15.417 43.121 14.6229 39.7062 12.7169C39.3886 12.5581 39.6268 12.0022 40.0239 12.161C43.6769 14.2258 46.8535 14.9405 47.1711 17.4023C47.33 18.2759 46.9329 19.1494 46.6152 19.9436C41.8504 30.6644 34.3855 39.8764 27.1589 48.7707C26.5236 49.5648 25.65 50.6766 24.3794 50.9943C22.4735 51.4708 20.7264 50.1207 19.297 48.7707Z" fill="black"/>
<path d="M4.765 29.3943C7.54447 22.8029 9.13274 15.7351 9.29157 8.58791C9.29157 7.47612 9.37098 6.28491 9.68864 5.25254C9.92688 4.53782 10.5622 3.34661 11.4357 2.94954C12.2299 2.63189 13.4211 2.87013 14.4535 3.02896C16.3594 3.34661 16.677 3.2672 22.5536 4.69664C22.7125 4.77606 22.7919 4.93488 22.7919 5.09371C22.7919 5.25254 22.5536 5.33195 22.3948 5.33195C20.0124 4.69664 17.5506 4.14075 15.0888 3.82309C14.1358 3.66427 12.5475 3.2672 11.674 3.58485C11.1181 3.82309 10.4828 4.69664 10.2445 5.49078C9.37098 8.03201 10.8004 16.6881 5.24148 29.7119C5.16206 29.9502 4.68558 29.7913 4.765 29.3943Z" fill="black"/>
<path d="M51.6984 46.4829C50.1896 45.927 48.7601 45.2123 47.3307 44.4181C47.1718 44.3387 47.013 44.4181 47.013 44.6564C47.013 46.1652 47.0924 47.7535 47.3307 49.2624C47.3307 49.5006 47.0924 49.6594 46.9336 49.4212C43.9953 45.5299 42.6453 40.4474 42.9629 35.8415C42.9629 35.762 42.9629 35.762 42.9629 35.6826C43.0423 35.6032 45.9012 29.806 45.7424 30.2031C46.3777 36.0797 47.7277 42.0357 51.9367 46.0858C52.0955 46.2446 51.9367 46.5623 51.6984 46.4829Z" fill="#EF3A3E"/>
<path d="M43.7568 50.915C43.5186 51.3915 42.8039 51.3121 42.8039 50.7562C42.645 49.1679 42.1686 47.5796 41.3744 46.1502C40.2626 48.1355 38.1185 49.4856 35.8949 49.6444C35.4978 49.6444 35.2596 49.2473 35.4184 48.8503C37.8008 44.959 39.3891 40.5118 39.945 35.5882L43.9951 33.5234C44.3127 35.6676 44.551 37.9706 44.551 40.1148C44.7098 42.656 44.7098 48.612 43.7568 50.915Z" fill="#FC5B63"/>
<path d="M48.0453 40.2831C46.9335 40.4419 45.5835 40.3625 44.5511 40.1243C42.7246 39.8066 40.8186 39.0125 39.6274 37.583C39.7069 37.0271 39.7863 36.4712 39.8657 35.8359C41.9304 36.3918 44.3923 36.7095 46.8541 36.7095C47.2511 38.2183 47.7276 39.489 48.0453 40.2831Z" fill="black"/>
<path d="M44.1537 38.4608C48.6712 38.4608 52.3333 34.7986 52.3333 30.2812C52.3333 25.7637 48.6712 22.1016 44.1537 22.1016C39.6363 22.1016 35.9741 25.7637 35.9741 30.2812C35.9741 34.7986 39.6363 38.4608 44.1537 38.4608Z" fill="#FFDC00"/>
<path d="M44.1538 35.3642C46.9607 35.3642 49.2362 33.0887 49.2362 30.2817C49.2362 27.4747 46.9607 25.1992 44.1538 25.1992C41.3468 25.1992 39.0713 27.4747 39.0713 30.2817C39.0713 33.0887 41.3468 35.3642 44.1538 35.3642Z" fill="#FCE67A"/>
<path d="M46.2196 31.9355C44.5516 31.5384 44.5516 31.5384 44.4722 31.6178L43.2808 32.7298C43.2014 32.8092 42.9631 32.7298 42.9631 32.5709C42.8043 30.9824 42.8837 30.9824 42.7248 30.903L41.2952 30.1087C41.1363 30.0293 41.1363 29.791 41.2952 29.791C42.8837 29.0762 42.8043 29.1556 42.8837 28.9967L43.2014 27.4082C43.2014 27.2493 43.4397 27.1699 43.5191 27.3288C44.6311 28.5996 44.6311 28.5996 44.7105 28.5996L46.299 28.4407C46.4579 28.4407 46.5373 28.5996 46.4579 28.7584C45.5842 30.1881 45.5842 30.1881 45.6636 30.347L46.3784 31.7766C46.5373 31.8561 46.3784 32.0149 46.2196 31.9355Z" fill="white"/>
<path d="M38.0388 36.1483C34.5446 32.9717 34.5446 27.4922 37.88 24.3156C38.1976 24.0774 38.5947 24.4745 38.277 24.7127C35.1005 27.7304 35.1799 32.8129 38.3564 35.6718C38.7535 35.9894 38.277 36.4659 38.0388 36.1483Z" fill="black"/>
<path d="M45.6628 35.0341C47.9658 34.24 49.3953 31.8576 48.8394 29.3958C48.8394 29.237 48.9188 29.0781 49.0776 29.0781C49.2364 29.0781 49.3953 29.1575 49.3953 29.3164C49.9512 32.0164 48.3629 34.7165 45.8217 35.59C45.504 35.7489 45.2658 35.193 45.6628 35.0341Z" fill="black"/>
<path d="M43.5184 11.5937L43.2009 10.3235C43.1215 9.92653 43.6772 9.84714 43.7566 10.1647L44.0741 11.4349C44.1535 11.8318 43.5978 11.9906 43.5184 11.5937Z" fill="black"/>
<path d="M45.7421 11.6045L46.3773 9.77828C46.5361 9.38127 47.0919 9.61948 46.9331 9.93708L46.2979 11.7633C46.1391 12.1603 45.5833 12.0015 45.7421 11.6045Z" fill="black"/>
<path d="M47.5685 13.0297L48.3629 12.1559C48.6013 11.8381 49.0779 12.2353 48.8396 12.5531L48.0452 13.4269C47.7274 13.6652 47.3302 13.268 47.5685 13.0297Z" fill="black"/>
</g>
<defs>
<clipPath id="clip0_8333_82467">
<rect width="54.0012" height="54.0012" fill="white"/>
</clipPath>
</defs>
</svg>
