<svg width="54" height="54" viewBox="0 0 54 54" fill="none" xmlns="http://www.w3.org/2000/svg">
<path d="M15.3933 15.1425C15.3933 15.1425 15.4099 16.1744 16.3176 15.9369C17.2252 15.6994 17.0347 14.7479 16.4723 14.6204C15.9099 14.4929 15.3946 14.783 15.3933 15.1425Z" fill="#171D8F"/>
<path d="M30.7153 21.2305L29.7327 23.1454H25.539C25.3204 23.1454 25.1139 23.1124 24.9191 23.0526C24.7243 22.9929 24.5414 22.9062 24.3699 22.7988C24.1984 22.6914 24.0385 22.5633 23.8898 22.4204C23.7412 22.2774 23.6038 22.1198 23.4774 21.9534C23.3511 21.7871 23.2358 21.6123 23.1313 21.4347C23.109 21.3969 23.0925 21.3588 23.0712 21.3208C23.06 21.3273 23.0512 21.3361 23.0399 21.3426C21.6336 22.1462 19.9256 21.8949 17.6654 22.799C15.4052 23.7031 15.8574 25.4611 15.6565 27.1186C15.5073 28.3492 16.0781 42.2492 16.3819 44.4072C16.4532 44.9992 16.9932 45.6407 18.1068 45.6407C23.9603 45.6407 31.6081 45.6405 35.7323 44.8122C36.7341 44.8122 37.6552 44.4126 37.7916 43.1221C38.0303 40.8577 38.398 28.2676 38.2587 27.1186C38.0578 25.4611 38.5096 23.7031 36.2494 22.799C33.9892 21.8949 32.2816 22.1462 30.8753 21.3426C30.8174 21.3095 30.7701 21.2665 30.7153 21.2305Z" fill="#FFC517"/>
<path d="M17.2129 36.7126C17.2129 36.4994 18.5737 24.8936 19.2178 26.0722C19.8618 27.2508 20.009 34.55 23.7393 35.8688C27.4696 37.1876 32.2172 37.5267 32.8954 32.8168C33.5736 28.1069 33.9127 23.6607 34.817 26.6751C35.7213 29.6894 34.8547 38.7325 34.7417 39.4107C34.6286 40.0889 39.4139 42.9525 33.3099 42.8018C27.2058 42.6511 24.2668 42.0106 22.1191 41.483C19.9714 40.9555 18.7656 36.3963 18.7656 36.3963L17.2129 36.7126Z" fill="#FFAC17"/>
<path d="M26.9577 15.9727C26.9577 15.9727 25.4508 16.8267 25.1997 17.8312C24.9506 18.8277 24.452 20.5139 23.0713 21.3254C23.0926 21.3634 23.1091 21.4015 23.1313 21.4393C23.2359 21.6169 23.3512 21.7918 23.4775 21.9581C23.6039 22.1244 23.7413 22.2821 23.8899 22.425C24.0386 22.5679 24.1985 22.696 24.37 22.8034C24.5414 22.9108 24.7244 22.9975 24.9192 23.0572C25.1139 23.117 25.3205 23.15 25.5391 23.15H29.7328L30.7153 21.2351C29.4371 20.3958 28.9565 18.7944 28.7157 17.8312C28.4645 16.8267 26.9577 15.9727 26.9577 15.9727Z" fill="#FEAC7C"/>
<path d="M28.7605 18.4806C28.7605 19.4881 27.977 20.3049 27.0106 20.3049C26.0442 20.3049 25.2607 19.4881 25.2607 18.4806C25.2607 17.473 26.0442 16.6562 27.0106 16.6563C27.977 16.6563 28.7605 17.473 28.7605 18.4806Z" fill="#FF4B3D"/>
<path d="M26.9953 4.76953C23.7438 4.76953 21.1081 7.40555 21.1081 10.657C21.1081 10.9908 21.1235 11.3217 21.1505 11.6496C20.9682 11.5817 20.7798 11.5683 20.6001 11.6226C20.0149 11.7992 19.7444 12.6193 19.9964 13.4539C20.2483 14.2886 21.0512 15.2329 21.6364 15.0563C21.7298 15.0281 21.8107 14.9707 21.8819 14.8947C22.896 17.5352 24.8053 19.4261 26.9953 19.4261C29.2162 19.4261 31.1492 17.6146 32.1518 14.9088C32.2199 14.9775 32.2963 15.0299 32.3838 15.0563C32.969 15.2329 33.7717 14.2886 34.0236 13.4539C34.2755 12.6193 34.0054 11.7992 33.4201 11.6226C33.2319 11.5658 33.0342 11.5835 32.8439 11.66C32.8687 11.331 32.8824 10.9967 32.8824 10.657C32.8824 7.40554 30.2467 4.76953 26.9953 4.76953Z" fill="#FEAC7C"/>
<path d="M42.8863 24.9844C42.8863 24.9844 41.756 25.625 41.5676 26.3786C41.3792 27.1322 41.0023 28.4133 39.9473 29.0161C38.8923 29.619 37.6111 29.4306 35.9156 30.1089C34.22 30.7871 34.5592 32.1059 34.4085 33.3493C34.2965 34.2726 34.7248 37.5346 34.9527 39.1535C35.0062 39.5976 35.4112 40.0788 36.2466 40.0788C40.6309 40.8441 45.0345 40.9695 49.4689 40.0788C50.2204 40.0788 50.9115 39.7789 51.0138 38.8108C51.1929 37.1121 51.4687 34.2113 51.3642 33.3493C51.2135 32.1059 51.5525 30.7871 49.8569 30.1089C48.1613 29.4306 46.8804 29.619 45.8254 29.0161C44.7703 28.4133 44.3935 27.1322 44.2051 26.3786C44.0167 25.625 42.8863 24.9844 42.8863 24.9844Z" fill="#171D8F"/>
<path d="M44.1984 26.8461C44.1984 27.0255 44.1645 27.2031 44.0987 27.3687C44.0329 27.5344 43.9364 27.685 43.8148 27.8118C43.6931 27.9386 43.5487 28.0392 43.3898 28.1078C43.2309 28.1765 43.0605 28.2118 42.8885 28.2118C42.7165 28.2118 42.5462 28.1765 42.3872 28.1078C42.2283 28.0392 42.0839 27.9386 41.9623 27.8118C41.8406 27.685 41.7442 27.5344 41.6783 27.3687C41.6125 27.2031 41.5786 27.0255 41.5786 26.8461C41.5786 26.6668 41.6125 26.4892 41.6783 26.3235C41.7442 26.1578 41.8406 26.0073 41.9623 25.8805C42.0839 25.7536 42.2283 25.6531 42.3872 25.5844C42.5462 25.5158 42.7165 25.4805 42.8885 25.4805C43.0605 25.4805 43.2309 25.5158 43.3898 25.5844C43.5487 25.6531 43.6931 25.7536 43.8148 25.8805C43.9364 26.0073 44.0329 26.1578 44.0987 26.3235C44.1645 26.4892 44.1984 26.6668 44.1984 26.8461Z" fill="#171D8F"/>
<path d="M42.8779 16.5781C40.4432 16.5781 38.4695 18.552 38.4695 20.9868C38.4695 21.2367 38.481 21.4845 38.5012 21.73C38.3647 21.6792 38.2237 21.6692 38.0891 21.7098C37.6509 21.8421 37.4484 22.4561 37.637 23.0811C37.8256 23.7061 38.4269 24.4133 38.8651 24.281C38.935 24.2599 38.9956 24.2169 39.0489 24.1601C39.8083 26.1373 41.238 27.5532 42.8779 27.5532C44.541 27.5532 45.9885 26.1967 46.7392 24.1706C46.7902 24.222 46.8474 24.2612 46.9129 24.281C47.3512 24.4133 47.9522 23.7061 48.1408 23.0811C48.3295 22.4561 48.1272 21.8421 47.689 21.7098C47.548 21.6673 47.4 21.6805 47.2575 21.7378C47.276 21.4914 47.2863 21.2412 47.2863 20.9868C47.2863 18.552 45.3127 16.5781 42.8779 16.5781Z" fill="#171D8F"/>
<path d="M11.1275 24.9844C11.1275 24.9844 9.99717 25.625 9.80877 26.3786C9.62037 27.1322 9.24355 28.4133 8.18853 29.0161C7.13351 29.619 5.85235 29.4306 4.15678 30.1089C2.46121 30.7871 2.80038 32.1059 2.64966 33.3493C2.53776 34.2726 2.96596 37.5346 3.19393 39.1535C3.24739 39.5976 3.65239 40.0788 4.48781 40.0788C8.87206 40.8441 13.2757 40.9695 17.7101 40.0788C18.4617 40.0788 19.1527 39.7789 19.255 38.8108C19.4341 37.1121 19.7099 34.2113 19.6054 33.3493C19.4547 32.1059 19.7937 30.7871 18.0981 30.1089C16.4025 29.4306 15.1216 29.619 14.0666 29.0161C13.0115 28.4133 12.6347 27.1322 12.4463 26.3786C12.2579 25.625 11.1275 24.9844 11.1275 24.9844Z" fill="#171D8F"/>
<path d="M12.4396 26.8461C12.4396 27.2083 12.3016 27.5557 12.056 27.8118C11.8103 28.0679 11.4771 28.2118 11.1297 28.2118C10.9577 28.2118 10.7874 28.1765 10.6285 28.1078C10.4695 28.0392 10.3251 27.9386 10.2035 27.8118C10.0819 27.685 9.98536 27.5344 9.91953 27.3687C9.85371 27.2031 9.81982 27.0255 9.81982 26.8461C9.81982 26.4839 9.95783 26.1366 10.2035 25.8805C10.4491 25.6243 10.7823 25.4805 11.1297 25.4805C11.4771 25.4805 11.8103 25.6243 12.056 25.8805C12.3016 26.1366 12.4396 26.4839 12.4396 26.8461Z" fill="#171D8F"/>
<path d="M11.1189 16.5781C8.68413 16.5781 6.71044 18.552 6.71044 20.9868C6.71044 21.2367 6.72199 21.4845 6.74217 21.73C6.60567 21.6792 6.46464 21.6692 6.33005 21.7098C5.89182 21.8421 5.68932 22.4561 5.87796 23.0811C6.0666 23.7061 6.66784 24.4133 7.10607 24.281C7.17599 24.2599 7.23657 24.2169 7.28988 24.1601C8.04928 26.1373 9.479 27.5532 11.1189 27.5532C12.782 27.5532 14.2294 26.1967 14.9802 24.1706C15.0311 24.222 15.0884 24.2612 15.1539 24.281C15.5921 24.4133 16.1932 23.7061 16.3818 23.0811C16.5705 22.4561 16.3682 21.8421 15.9299 21.7098C15.7889 21.6673 15.6409 21.6805 15.4984 21.7378C15.517 21.4914 15.5273 21.2412 15.5273 20.9868C15.5273 18.552 13.5536 16.5781 11.1189 16.5781Z" fill="#171D8F"/>
<path d="M34.1669 35.6641C34.1669 35.6641 33.0365 36.3047 32.8481 37.0583C32.6597 37.8118 32.2829 39.0929 31.2278 39.6958C30.1728 40.2987 28.8917 40.1103 27.1961 40.7885C25.5005 41.4668 25.8397 42.7856 25.689 44.029C25.5771 44.9522 26.0053 48.8357 26.2332 50.4546C26.2867 50.8987 26.6917 51.3799 27.5271 51.3799C31.9183 51.3799 37.6555 51.3799 40.7494 50.7585C41.501 50.7585 42.192 50.4586 42.2944 49.4905C42.4734 47.7918 42.7492 44.891 42.6447 44.029C42.494 42.7856 42.833 41.4668 41.1374 40.7885C39.4418 40.1103 38.1609 40.2987 37.1059 39.6958C36.0509 39.0929 35.674 37.8118 35.4856 37.0583C35.2972 36.3047 34.1669 35.6641 34.1669 35.6641Z" fill="#171D8F"/>
<path d="M35.4789 37.518C35.4789 37.8802 35.3409 38.2276 35.0953 38.4837C34.8496 38.7398 34.5164 38.8837 34.169 38.8837C33.997 38.8837 33.8267 38.8483 33.6678 38.7797C33.5088 38.7111 33.3644 38.6105 33.2428 38.4837C33.1212 38.3569 33.0247 38.2063 32.9588 38.0406C32.893 37.8749 32.8591 37.6973 32.8591 37.518C32.8591 37.1558 32.9971 36.8084 33.2428 36.5523C33.4885 36.2962 33.8216 36.1523 34.169 36.1523C34.5164 36.1523 34.8496 36.2962 35.0953 36.5523C35.3409 36.8084 35.4789 37.1558 35.4789 37.518Z" fill="#171D8F"/>
<path d="M34.1579 27.25C31.7232 27.25 29.7495 29.2239 29.7495 31.6586C29.7495 31.9086 29.7611 32.1564 29.7812 32.4019C29.6447 32.3511 29.5037 32.3411 29.3691 32.3817C28.9309 32.514 28.7284 33.128 28.917 33.753C29.1057 34.378 29.7069 35.0852 30.1451 34.9529C30.2151 34.9318 30.2756 34.8888 30.3289 34.8319C31.0883 36.8092 32.5181 38.2251 34.1579 38.2251C35.821 38.2251 37.2685 36.8686 38.0193 34.8425C38.0702 34.8939 38.1274 34.9331 38.193 34.9529C38.6312 35.0852 39.2322 34.378 39.4209 33.753C39.6095 33.128 39.4072 32.514 38.969 32.3817C38.828 32.3391 38.68 32.3524 38.5375 32.4097C38.5561 32.1633 38.5663 31.913 38.5663 31.6586C38.5663 29.2239 36.5927 27.25 34.1579 27.25Z" fill="#171D8F"/>
<path d="M19.8531 35.6641C19.8531 35.6641 20.9835 36.3047 21.1719 37.0583C21.3603 37.8118 21.7371 39.0929 22.7922 39.6958C23.8472 40.2987 25.1283 40.1103 26.8239 40.7885C28.5195 41.4668 28.1803 42.7856 28.331 44.029C28.4429 44.9522 28.0147 48.8357 27.7868 50.4546C27.7333 50.8987 27.3283 51.3799 26.4929 51.3799C22.1017 51.3799 16.3645 51.3799 13.2706 50.7585C12.519 50.7585 11.828 50.4586 11.7256 49.4905C11.5466 47.7918 11.2708 44.891 11.3753 44.029C11.526 42.7856 11.187 41.4668 12.8826 40.7885C14.5781 40.1103 15.8591 40.2987 16.9141 39.6958C17.9691 39.0929 18.346 37.8118 18.5344 37.0583C18.7228 36.3047 19.8531 35.6641 19.8531 35.6641Z" fill="#171D8F"/>
<path d="M18.5408 37.518C18.5408 37.8802 18.6788 38.2276 18.9244 38.4837C19.1701 38.7398 19.5033 38.8837 19.8507 38.8837C20.0227 38.8837 20.193 38.8483 20.352 38.7797C20.5109 38.7111 20.6553 38.6105 20.7769 38.4837C20.8986 38.3569 20.995 38.2063 21.0609 38.0406C21.1267 37.8749 21.1606 37.6973 21.1606 37.518C21.1606 37.1558 21.0226 36.8084 20.7769 36.5523C20.5313 36.2962 20.1981 36.1523 19.8507 36.1523C19.5033 36.1523 19.1701 36.2962 18.9244 36.5523C18.6788 36.8084 18.5408 37.1558 18.5408 37.518Z" fill="#171D8F"/>
<path d="M19.8621 27.25C22.2969 27.25 24.2705 29.2239 24.2705 31.6586C24.2705 31.9086 24.259 32.1564 24.2388 32.4019C24.3753 32.3511 24.5164 32.3411 24.651 32.3817C25.0892 32.514 25.2917 33.128 25.103 33.753C24.9144 34.378 24.3132 35.0852 23.8749 34.9529C23.805 34.9318 23.7444 34.8888 23.6911 34.8319C22.9317 36.8092 21.502 38.2251 19.8621 38.2251C18.199 38.2251 16.7516 36.8686 16.0008 34.8425C15.9499 34.8939 15.8926 34.9331 15.8271 34.9529C15.3889 35.0852 14.7878 34.378 14.5992 33.753C14.4105 33.128 14.6128 32.514 15.0511 32.3817C15.1921 32.3391 15.3401 32.3524 15.4826 32.4097C15.464 32.1633 15.4537 31.913 15.4537 31.6586C15.4537 29.2239 17.4274 27.25 19.8621 27.25Z" fill="#171D8F"/>
<path d="M21.3694 5.858C21.3694 5.858 19.5843 7.8296 20.1704 9.4282C20.7566 11.0268 20.1603 10.622 20.7774 11.6455C21.6092 13.0251 21.4493 11.3465 21.5559 11.0534C21.6624 10.7604 23.8738 8.73548 23.5275 7.08359C23.1811 5.4317 21.3694 5.858 21.3694 5.858Z" fill="#171D8F"/>
<path d="M32.844 11.6587C32.844 11.6587 32.8527 12.335 32.3199 11.8022C31.787 11.2693 31.6804 8.49839 31.6804 8.49839C31.6804 8.49839 31.3607 8.55168 30.668 7.91224C29.9753 7.2728 30.1884 6.60671 30.1884 6.60671C30.1884 6.60671 29.3358 6.89979 29.0427 6.8465C28.7497 6.79322 28.5099 6.36692 28.5099 6.36692C28.5099 6.36692 25.4725 8.36517 23.1812 7.40601C20.8899 6.44685 20.73 4.82161 20.8899 4.31538C21.0497 3.80916 21.4227 4.20881 21.4227 4.20881C21.4227 4.20881 22.8082 2.63672 25.9255 2.63672C29.0427 2.63672 30.5614 3.91573 30.5614 3.91573C30.5614 3.91573 31.1476 3.70259 31.4673 3.8358C31.787 3.96902 31.8936 4.50189 31.8936 4.50189C31.8936 4.50189 32.3465 4.07559 33.0659 4.98147C33.7853 5.88734 32.8794 7.00636 32.8794 7.00636C32.8794 7.00636 33.4922 7.43266 33.7586 8.41846C34.025 9.40426 32.844 11.6587 32.844 11.6587Z" fill="#171D8F"/>
<path d="M26.3391 12.5485C26.3391 12.5485 25.7364 13.9424 26.0378 14.2438C26.3391 14.5452 26.4522 14.6582 26.6782 14.4698C26.9042 14.2815 27.0926 14.1308 27.0926 13.8671C27.0926 13.6034 26.5652 11.9834 26.3391 12.5485Z" fill="#FF4B3D"/>
<path d="M21.1678 13.7677C20.8193 12.7036 20.7346 12.4587 20.5086 12.4775C20.2826 12.4964 20.7722 13.1273 20.7346 13.3533C20.6969 13.5793 20.3579 13.2591 20.5745 13.5605C20.7911 13.8618 21.1018 13.9277 21.1678 14.2008C21.2337 14.4739 21.4314 14.1443 21.1678 13.7677Z" fill="#FF4B3D"/>
<path d="M32.6015 13.7677C32.9499 12.7036 33.0347 12.4587 33.2607 12.4775C33.4867 12.4964 32.997 13.1273 33.0347 13.3533C33.0724 13.5793 33.4114 13.2591 33.1948 13.5605C32.9782 13.8618 32.6674 13.9277 32.6015 14.2008C32.5356 14.4739 32.3378 14.1443 32.6015 13.7677Z" fill="#FF4B3D"/>
<path d="M26.9994 22.5478C26.9994 22.5478 24.5687 20.4185 23.9469 20.3243C23.3251 20.2301 23.0236 21.0027 22.6656 21.3041C22.3076 21.6056 23.1367 24.8089 24.2107 25.2799C25.2847 25.751 27.7908 23.3391 26.9994 22.5478Z" fill="white"/>
<path d="M26.9988 22.5478C26.9988 22.5478 29.4295 20.4185 30.0513 20.3243C30.6732 20.2301 30.9746 21.0027 31.3327 21.3041C31.6907 21.6056 30.8616 24.8089 29.7876 25.2799C28.7135 25.751 26.2074 23.3391 26.9988 22.5478Z" fill="white"/>
<path d="M13.2241 13.9927C13.2241 13.9927 9.97043 13.0829 8.44344 10.7404C6.91646 8.39798 7.77208 5.56415 9.94307 4.24883C12.1141 2.9335 15.0808 3.66492 16.5413 6.39571C18.0018 9.12649 16.7054 12.1317 16.7054 12.1317L13.2241 13.9927Z" fill="#FFC517"/>
<path d="M17.1835 8.75781C16.6277 9.88619 15.7241 11.0552 14.2558 11.7341C12.4941 12.5486 10.7899 12.361 9.35889 11.8207C10.9886 13.3509 13.1998 13.9705 13.1998 13.9705L16.6747 12.1127C16.6747 12.1127 17.3237 10.6057 17.1835 8.75781Z" fill="#FFAC17"/>
<path d="M14.6398 13.4853C14.6398 13.4853 13.6037 10.8289 11.8516 10.1318C10.0995 9.43476 9.81688 7.60731 11.7197 6.92908C13.6225 6.25085 14.508 7.83338 14.15 8.92608C13.792 10.0188 13.679 10.697 13.9616 11.1868C14.2442 11.6767 15.2992 13.4099 15.2992 13.4099L14.6398 13.4853Z" fill="white"/>
<path d="M13.2239 13.9958C13.2239 13.9958 12.7978 14.5783 13.635 15.2861C14.4721 15.9939 14.9655 15.9108 15.8237 15.414C16.6819 14.9172 17.3555 14.6915 17.4203 14.1588C17.4851 13.626 17.4729 12.2893 16.7057 12.1344C15.9385 11.9795 13.5704 13.2085 13.2239 13.9958Z" fill="#171D8F"/>
<path d="M39.3268 7.03335C39.3268 7.03335 36.1562 13.3478 36.4493 13.9606C36.7424 14.5734 37.6216 14.7866 37.9147 14.6533C38.2078 14.5201 42.2842 9.48453 42.3908 8.63195C42.4973 7.77936 40.0195 5.86104 39.3268 7.03335Z" fill="#FF4B3D"/>
<path d="M35.9848 14.9733C35.2878 14.9921 34.4778 15.4066 34.7604 16.3484C35.0429 17.2902 36.3238 17.4032 36.9831 16.9135C37.6424 16.4237 37.4729 14.8038 35.9848 14.9733Z" fill="#FF4B3D"/>
<path d="M43.0298 13.3541C43.0298 13.3541 39.627 16.838 39.6913 17.3018C39.7556 17.7655 40.2885 18.0894 40.5088 18.0632C40.7292 18.037 44.4595 15.5824 44.7078 15.0448C44.9561 14.5071 43.73 12.7291 43.0298 13.3541Z" fill="#FF4B3D"/>
<path d="M39.1735 17.8748C38.712 17.7414 38.0936 17.8441 38.0821 18.5216C38.0708 19.199 38.8881 19.541 39.4233 19.3573C39.9585 19.1736 40.1859 18.0746 39.1735 17.8748Z" fill="#FF4B3D"/>
</svg>
