<svg width="54" height="54" viewBox="0 0 54 54" fill="none" xmlns="http://www.w3.org/2000/svg">
<path d="M44.8949 41.596C46.9972 40.567 48.2266 39.3796 48.0628 38.2934C47.7446 36.1809 42.2888 35.2519 35.877 36.2181C29.4655 37.1842 24.5255 39.6799 24.8442 41.7923C24.9827 42.712 26.0955 43.4072 27.8365 43.8195L22.0979 49.6312C22.0979 49.6312 34.7916 58.8926 51.8439 48.3237L44.8949 41.596Z" fill="#CB4D00"/>
<path d="M52.1165 47.4509C49.912 48.784 47.8121 49.8166 45.8202 50.607L41.9641 43.2617L41.6749 43.4137L45.5151 50.7284C44.5376 51.1062 43.588 51.4231 42.6648 51.6887L40.8325 45.4979L40.519 45.5908L42.3507 51.7791C35.6037 53.6455 30.351 52.6811 26.8869 51.3482L30.3484 46.5111L30.0829 46.3208L26.5967 51.1922L26.7289 51.2869C23.711 50.0976 22.098 48.6495 22.098 48.6495L21.2808 49.8482C37.0798 59.8726 52.7703 48.5951 52.7703 48.5951L52.1165 47.4509Z" fill="#182E5C"/>
<path d="M47.3698 38.1258L47.1649 37.8711C35.2584 47.4543 25.8804 41.0629 25.7875 40.9976L25.5991 41.2647C25.6538 41.3032 28.829 43.4731 33.8143 43.4731C37.5146 43.473 42.2129 42.2768 47.3698 38.1258Z" fill="#182E5C"/>
<path d="M30.8423 47.357L28.3362 51.0938L28.6075 51.2757L31.1137 47.539L30.8423 47.357Z" fill="#182E5C"/>
<path d="M41.9685 46.0825L41.6665 46.207L42.9755 49.3826L43.2776 49.2581L41.9685 46.0825Z" fill="#182E5C"/>
<path d="M42.201 24.3559L26.5653 1.91016L10.2759 16.1295L17.3888 24.689L2.59424 34.2712L5.26361 38.6295L19.0069 26.6364L26.3473 35.4698L42.201 24.3559Z" fill="#182E5C"/>
<path d="M8.6416 16.0754L10.276 17.8188L28.3089 2.40095L27.0557 0.00390625L8.6416 16.0754Z" fill="#FFB924"/>
<path d="M25.3125 35.4726L42.5825 23.1602L43.6723 24.3587L25.8574 36.4805L25.3125 35.4726Z" fill="#FFB924"/>
<path d="M1.23242 33.8373L2.59448 33.1836L6.29905 38.6315L4.88267 39.7756L1.23242 33.8373Z" fill="#FFB924"/>
<path d="M10.3917 28.7486L9.58911 29.3125L12.2311 33.0726L13.0337 32.5087L10.3917 28.7486Z" fill="#FFB924"/>
</svg>
