<svg width="174" height="136" viewBox="0 0 174 136" fill="none" xmlns="http://www.w3.org/2000/svg">
<path d="M159.741 23.6576C149.336 14.4564 144.585 16.47 143.108 15.9797C134.513 24.4247 125.993 32.7932 117.496 41.2291C115.678 41.1278 114.136 41.7611 112.633 42.7203C109.137 44.9557 106.288 48.0701 104.372 51.752C103.794 52.7655 103.535 53.9294 103.627 55.0925C102.594 56.1321 101.558 57.177 100.519 58.2272C97.6904 58.5253 94.8648 58.7839 91.9953 59.033C92.361 58.7565 92.7093 58.4577 93.0383 58.1384L113.615 38.0827C114.94 36.7924 115.867 35.1497 116.287 33.349C116.706 31.5484 116.602 29.665 115.985 27.922C113.739 21.4081 105.302 19.3092 100.205 24.1687L84.5129 39.1255L76.4026 31.1141C74.7889 29.52 72.655 28.5604 70.3916 28.411C68.1283 28.2616 65.8868 28.9324 64.0775 30.3006C62.2683 31.6687 61.0123 33.6427 60.5395 35.8612C60.0667 38.0797 60.4087 40.3942 61.5029 42.3812L61.3675 42.4664L41.7209 0.707031C8.37706 4.20751 1.0569 26.7521 0.261719 27.7217L25.9126 64.7993L24.6094 65.6202C25.4123 66.7832 27.402 72.1247 34.2073 79.4474L36.5231 81.9396L37.3935 81.3943L38.1192 82.4435C38.1738 82.776 36.1629 82.9123 34.4708 82.9682C33.8398 82.9889 33.2295 83.1982 32.7186 83.5689C32.2076 83.9396 31.8194 84.4549 31.604 85.0483C29.165 91.7852 26.5692 91.6368 26.6541 91.5561C25.5829 91.5237 24.5316 91.8497 23.6668 92.4826C22.802 93.1154 22.1731 94.0189 21.88 95.0496C21.8835 95.0843 20.9831 98.3165 24.0017 99.902C26.5394 101.235 29.7726 103.471 29.8 106.226C29.7996 106.326 29.8012 106.385 29.802 106.4C29.8208 107.047 29.9913 107.68 30.2998 108.249C30.6084 108.818 31.0462 109.306 31.5781 109.675C32.11 110.043 32.7211 110.281 33.362 110.37C34.0029 110.459 34.6557 110.396 35.2678 110.186C36.0807 109.911 36.7857 109.386 37.2818 108.685C37.778 107.985 38.0398 107.146 38.03 106.287V106.265C38.0571 105.564 38.3886 104.176 40.4008 103.352C39.7441 106.248 42.0923 110.739 44.3674 112.461C43.7093 117.385 47.4033 122.336 51.3935 123.416C52.4791 127.095 55.4832 130.198 59.3776 130.432C60.0515 132.056 61.2469 133.409 62.7751 134.279C65.4394 135.754 68.4601 135.369 71.2667 134.117C73.7829 135.984 77.5815 136.687 81.6868 135.2C82.4227 135.345 83.1812 135.326 83.9093 135.147C84.6374 134.968 85.3177 134.632 85.9025 134.162C88.4556 133.772 90.8293 132.614 92.7072 130.84C93.3956 130.663 94.0399 130.345 94.5998 129.907C95.1598 129.469 95.6232 128.92 95.9613 128.295C97.7267 127.439 99.3069 126.245 100.612 124.78C101.461 124.431 102.202 123.862 102.758 123.131C107.796 120.851 110.654 116.86 110.494 112.283C111.049 111.568 111.534 110.842 112.021 110.205C113.78 107.903 113.229 108.655 114.983 106.413C114.983 106.413 120.595 107.94 121.969 112.62C123.051 116.305 126.703 116.146 126.668 116.133C127.793 116.157 128.893 115.806 129.796 115.135C130.699 114.464 131.353 113.512 131.655 112.428C132.297 110.126 133.503 107.631 135.732 107.631L135.737 107.631C136.837 107.651 137.907 107.274 138.752 106.569C139.596 105.864 140.159 104.878 140.336 103.793C140.329 103.758 141.063 100.185 137.613 98.7839C135.403 97.8863 132.547 96.479 131.438 93.0075C131.128 91.9944 130.533 91.0917 129.725 90.4065C128.916 89.7214 127.928 89.2827 126.878 89.1426L125.371 89.3537C126.792 86.9354 126.186 87.5888 128.185 85.6659L128.942 86.7303C134.435 84.7137 130.314 85.5495 136.729 85.4216C138.047 85.4384 139.325 84.9645 140.313 84.0919C142.079 82.4744 141.869 80.5838 143.114 76.2878L143.543 74.8054L143.001 73.6417C144.486 72.5632 145.98 71.4939 147.443 70.4467C170.162 54.1891 172.321 49.0894 173.73 47.7686C173.302 46.7017 176.717 38.6733 159.741 23.6576Z" fill="white"/>
<path d="M65.7661 34.3215C64.8579 35.3594 64.3881 36.7094 64.4556 38.0869C64.5232 39.4645 65.1228 40.762 66.1281 41.7061L80.5809 55.2788C81.8827 56.5013 83.6061 57.1744 85.3919 57.1579C87.1778 57.1413 88.8884 56.4363 90.1673 55.1898L110.745 35.134C111.33 34.5636 111.782 33.8708 112.069 33.1053C112.355 32.3398 112.469 31.5205 112.402 30.7059C112.335 29.8914 112.089 29.1017 111.681 28.3933C111.273 27.685 110.714 27.0755 110.043 26.6084C108.993 25.8775 107.724 25.5317 106.448 25.6295C105.173 25.7274 103.971 26.2629 103.045 27.1453L84.4631 44.8572L73.5122 34.0397C72.9956 33.5295 72.3802 33.1303 71.7036 32.8668C71.0271 32.6032 70.3038 32.4809 69.5782 32.5073C68.8527 32.5337 68.1402 32.7082 67.4846 33.0202C66.829 33.3322 66.2442 33.7751 65.7661 34.3215Z" fill="#7AD001"/>
<path d="M102.678 113.973C105.206 112.583 106.994 110.183 108.661 107.829C113.918 100.408 118.783 92.7176 123.237 84.7891C137.385 70.1695 156.703 61.5664 169.618 46.2602C169.645 38.527 162.452 31.5519 157.013 26.742C153.511 23.6446 149.612 20.513 144.68 20.2031C130.846 33.7961 117.012 47.3891 102.513 62.0634C92.2418 70.2772 82.2003 78.7781 72.8477 88.1949C79.5607 99.3747 89.5344 108.57 102.678 113.973Z" fill="#FFAD92"/>
<path d="M39.2317 5.08203C39.2317 5.08203 14.9409 7.43672 5.02734 27.378L42.0415 80.8803C42.0415 80.8803 45.2338 104.107 56.7825 115.656C68.3312 127.204 73.5936 130.713 73.5936 130.713C73.5936 130.713 76.8721 133.668 82.5811 130.223C82.5811 130.223 89.0601 130.962 91.4692 125.538C91.4692 125.538 96.4295 124.687 98.8193 120.19C98.8193 120.19 107.189 118.152 106.326 111.766C106.326 111.766 85.6411 89.4063 79.8017 79.6261C73.9623 69.8458 80.5736 68.3269 80.5736 68.3269L66.0242 62.0298L39.2317 5.08203Z" fill="#ED6C4D"/>
<path d="M120.356 68.8532C117.27 64.0168 113.383 59.7416 108.861 56.2114C108.32 55.7892 107.717 55.2759 107.719 54.5894C107.722 53.6216 110.373 49.0447 114.849 46.1862C115.589 45.7132 116.419 45.2765 117.295 45.3378C118.442 45.4181 119.343 46.3132 120.116 47.164C124.273 51.6893 127.951 56.6316 131.093 61.9122C127.86 64.5658 124.453 67.008 120.356 68.8532Z" fill="#00ABFE"/>
<path d="M130.416 81.7044C132.359 80.9245 134.546 81.3541 136.639 81.3075C137.481 81.2889 137.692 81.049 137.869 80.348C138.306 78.6105 138.665 76.853 139.16 75.1431C135.539 67.3681 130.791 60.17 125.068 53.7812C120.84 55.078 117.159 57.7337 114.594 61.3364C120.174 67.7489 125.322 74.5379 130.416 81.7044Z" fill="#00ABFE"/>
<path d="M123.847 65.2453C124.33 65.3112 124.822 65.2664 125.286 65.1145C125.517 65.0348 125.72 64.8914 125.872 64.701C126.024 64.5105 126.119 64.2808 126.146 64.0384C126.113 63.6126 125.938 63.2102 125.651 62.8944C124.406 61.2018 123.084 59.5703 121.684 57.9998C121.587 57.8656 121.45 57.7651 121.293 57.7125C121.148 57.7016 121.005 57.7482 120.895 57.8421C120.785 57.9361 120.716 58.0698 120.704 58.2141C120.606 58.9312 122.142 61.379 123.847 65.2453Z" fill="white"/>
<path d="M128.939 69.4702C128.386 69.852 127.936 70.2782 128.213 70.9229C128.323 71.1614 128.516 71.3521 128.756 71.46C128.995 71.5678 129.266 71.5856 129.518 71.5101C129.764 71.4181 129.967 71.2387 130.09 71.0062C130.212 70.7736 130.245 70.5042 130.181 70.2492C130.035 69.7455 129.362 69.1785 128.939 69.4702Z" fill="#0071FF"/>
<path d="M133.647 76.0601C133.093 76.4418 132.644 76.868 132.92 77.5128C133.03 77.7513 133.223 77.942 133.463 78.0498C133.702 78.1577 133.973 78.1754 134.225 78.0999C134.471 78.0079 134.674 77.8286 134.797 77.596C134.919 77.3635 134.952 77.094 134.888 76.839C134.742 76.3354 134.069 75.7684 133.647 76.0601Z" fill="#0071FF"/>
<path d="M121.493 69.598C121.493 69.598 119.863 71.4977 117.058 68.3242C114.253 65.1507 113.13 63.8956 112.912 61.6436C112.693 59.3916 114.151 57.5784 118.336 54.7631C122.522 51.9478 124.681 50.1781 127.58 53.5973C130.478 57.0166 132.762 59.8106 131.701 61.9833C131.701 61.9833 126.434 54.9274 125.593 54.9718C122.825 55.118 115.58 58.1732 116.048 62.4361L121.493 69.598Z" fill="#FF605B"/>
<path d="M127.292 91.625C127.292 91.625 126.384 101.059 117.336 103.06C117.336 103.06 125.705 103.631 126.635 113.221C126.635 113.221 128.008 102.951 136.422 103.541C136.422 103.541 126.962 101.183 127.292 91.625Z" fill="#FFB020"/>
<path d="M35.4847 85.0938C35.4847 85.0938 33.3965 96.5024 25.8438 95.6259C25.8438 95.6259 33.9163 98.7877 33.9163 106.29C33.9163 106.29 33.7197 99.3962 42.8549 98.6471C42.8549 98.6471 36.1946 97.4856 35.4847 85.0938Z" fill="#FFB020"/>
<path d="M30.0625 67.0499L61.0545 47.5273C61.0545 47.5273 65.5285 52.5788 66.1792 58.5088L37.2208 76.6485C37.2208 76.6485 32.5272 71.597 30.0625 67.0499Z" fill="#FFB020"/>
<path d="M48.9581 73.0724C55.6572 73.0724 61.088 67.6416 61.088 60.9424C61.088 54.2433 55.6572 48.8125 48.9581 48.8125C42.2589 48.8125 36.8281 54.2433 36.8281 60.9424C36.8281 67.6416 42.2589 73.0724 48.9581 73.0724Z" fill="#FFB020"/>
<path d="M48.9571 71.3322C54.6957 71.3322 59.3478 66.6801 59.3478 60.9415C59.3478 55.2029 54.6957 50.5508 48.9571 50.5508C43.2185 50.5508 38.5664 55.2029 38.5664 60.9415C38.5664 66.6801 43.2185 71.3322 48.9571 71.3322Z" fill="white"/>
<path d="M47.9769 62.8159L44.0724 60.2941C43.8792 60.1692 43.7435 59.9728 43.6952 59.7479C43.6468 59.5231 43.6898 59.2882 43.8146 59.095C43.9394 58.9018 44.1358 58.7661 44.3607 58.7177C44.5856 58.6694 44.8204 58.7123 45.0136 58.8372L48.1138 60.8392L50.6857 55.8342C50.7909 55.6296 50.973 55.4752 51.192 55.4048C51.411 55.3345 51.649 55.354 51.8536 55.4592C52.0583 55.5643 52.2127 55.7464 52.2831 55.9654C52.3534 56.1845 52.3338 56.4225 52.2287 56.6271L49.219 62.4838C49.1636 62.5915 49.0863 62.6864 48.992 62.7624C48.8977 62.8384 48.7886 62.8938 48.6716 62.9251C48.5546 62.9564 48.4323 62.9628 48.3127 62.944C48.193 62.9252 48.0787 62.8815 47.9769 62.8159Z" fill="#1D1D3D"/>
<path d="M52.8254 107.599C54.3288 106.266 57.3497 103.635 57.7619 101.686C57.8954 100.935 57.7518 100.161 57.3579 99.5078C56.9639 98.8546 56.3463 98.3665 55.6198 98.1341C54.1324 97.7112 52.5833 98.4582 51.2521 99.2451C48.9255 100.621 46.7172 102.187 44.65 103.928C44.1031 104.389 44.506 105.429 44.8795 106.257C45.5012 107.634 46.2687 109.149 47.7003 109.632C49.637 110.287 51.3976 108.866 52.8254 107.599Z" fill="#FFAD92"/>
<path d="M76.2781 118.847C75.6083 118.864 75.6836 118.902 68.5858 122.052C70.174 120.808 71.6205 119.393 72.8993 117.832C74.4912 115.886 74.4688 114.832 73.1903 112.532C72.1553 110.67 71.3032 110.175 68.9517 111.096C64.8002 112.73 60.8656 114.868 57.2364 117.463C59.4785 115.668 61.7207 113.872 63.963 112.077C65.3171 110.993 66.7218 109.843 67.4072 108.25C68.0928 106.656 67.7796 104.489 66.2649 103.643C64.6801 102.759 62.7301 103.663 61.1503 104.557C57.9094 106.391 54.6684 108.225 51.4274 110.059C50.4568 110.608 49.197 110.956 48.7817 111.843C47.8685 113.796 48.6969 116.181 50.1116 117.807C51.8785 119.838 53.5772 119.936 55.2936 118.908C55.2565 118.937 55.2177 118.965 55.1806 118.994C55.0085 119.902 55.0195 120.836 55.213 121.74C55.4065 122.644 55.7786 123.5 56.3075 124.259C58.0223 126.69 60.0721 126.759 62.7738 125.559C62.7975 125.548 62.8207 125.537 62.8444 125.526C62.7091 126.369 62.7327 127.231 62.914 128.065C64.3776 134.182 72.464 129.83 76.7028 125.174C77.6139 124.173 78.4667 123 78.5507 121.649C78.6347 120.298 77.631 118.812 76.2781 118.847Z" fill="#FFAD92"/>
<path d="M81.9653 124.229C81.8938 124.141 81.8405 124.039 81.8085 123.929C81.7764 123.82 81.7662 123.706 81.7785 123.592C81.7907 123.479 81.8251 123.369 81.8798 123.269C81.9345 123.169 82.0083 123.081 82.0971 123.01C87.1495 118.941 91.8875 114.497 96.2707 109.715C96.3476 109.631 96.4404 109.563 96.5436 109.515C96.6468 109.467 96.7585 109.439 96.8723 109.434C96.9861 109.429 97.0998 109.447 97.2068 109.486C97.3139 109.525 97.4122 109.584 97.4962 109.661C97.5802 109.738 97.6482 109.831 97.6964 109.934C97.7446 110.037 97.772 110.149 97.777 110.263C97.782 110.377 97.7645 110.49 97.7256 110.597C97.6866 110.704 97.627 110.803 97.5501 110.887C93.1076 115.733 88.3055 120.238 83.1847 124.361C83.096 124.433 82.994 124.486 82.8847 124.518C82.7754 124.55 82.6609 124.56 82.5477 124.548C82.4344 124.536 82.3247 124.501 82.2248 124.447C82.1248 124.392 82.0367 124.318 81.9653 124.229Z" fill="#C6523C"/>
<path d="M98.0411 120.626L94.2417 116.745C94.0817 116.581 93.9934 116.36 93.9962 116.13C93.999 115.901 94.0926 115.682 94.2566 115.521C94.4206 115.36 94.6416 115.271 94.8711 115.273C95.1006 115.275 95.3199 115.368 95.4811 115.532L99.2805 119.412C99.4406 119.577 99.5289 119.798 99.5261 120.028C99.5233 120.257 99.4296 120.476 99.2656 120.637C99.1016 120.797 98.8807 120.886 98.6512 120.884C98.4216 120.882 98.2023 120.789 98.0411 120.626Z" fill="#C6523C"/>
<path d="M90.8994 126.55C89.3974 125.405 88.0988 124.016 87.0579 122.44C86.931 122.248 86.8856 122.013 86.9316 121.788C86.9776 121.562 87.1113 121.364 87.3032 121.238C87.4951 121.111 87.7296 121.065 87.9551 121.111C88.1805 121.157 88.3784 121.291 88.5053 121.483C89.439 122.897 90.6041 124.144 91.9517 125.171C92.1346 125.311 92.2545 125.517 92.2852 125.745C92.3158 125.973 92.2546 126.204 92.1151 126.387C91.9755 126.57 91.769 126.69 91.541 126.72C91.3131 126.751 91.0822 126.69 90.8994 126.55Z" fill="#C6523C"/>
<path d="M82.0994 130.8L79.2435 128.23C79.0728 128.076 78.9702 127.861 78.9582 127.631C78.9463 127.402 79.0259 127.177 79.1798 127.006C79.3336 126.835 79.549 126.732 79.7786 126.72C80.0082 126.708 80.2333 126.787 80.4043 126.941L83.2595 129.509C83.3444 129.586 83.4134 129.678 83.4627 129.781C83.5119 129.883 83.5404 129.995 83.5465 130.109C83.5526 130.223 83.5362 130.337 83.4983 130.444C83.4603 130.552 83.4016 130.651 83.3253 130.735C83.2491 130.82 83.1569 130.889 83.054 130.938C82.9511 130.987 82.8396 131.016 82.7257 131.022C82.6119 131.028 82.4979 131.011 82.3905 130.973C82.283 130.935 82.1841 130.876 82.0994 130.8Z" fill="#C6523C"/>
<path d="M109.584 61.2734C100.352 62.5697 91.0315 63.232 81.5555 64.0469C75.5957 65.2503 71.1953 70.1918 67.4991 75.0193C64.7534 78.6052 61.9754 82.4203 58.3525 85.1181C58.0061 85.3822 57.7416 85.7391 57.5898 86.1474C57.438 86.5557 57.405 86.9987 57.4947 87.425C57.5843 87.8512 57.793 88.2434 58.0965 88.5559C58.3999 88.8684 58.7858 89.0885 59.2092 89.1906C60.6053 89.5377 62.0333 89.7403 63.4708 89.7954C66.6587 89.9034 69.9267 89.154 72.5541 87.3453C74.5788 85.9516 76.1441 84.0024 77.7462 82.2474C84.4253 85.7538 92.0212 87.1211 99.5037 86.164C102.621 85.7578 105.833 84.8657 108.016 83.4175C109.433 80.4902 111.543 77.9089 112.678 74.8616C114.468 70.06 113.502 64.3357 109.584 61.2734Z" fill="#FFAD92"/>
<path d="M93.5884 87.9028C91.0969 87.904 88.6152 87.5913 86.2019 86.9721C80.6813 85.5518 77.3575 83.0412 77.2186 82.9348C77.0361 82.7949 76.9167 82.5883 76.8864 82.3604C76.8562 82.1325 76.9177 81.9019 77.0574 81.7193C77.197 81.5367 77.4035 81.417 77.6314 81.3866C77.8592 81.3561 78.0899 81.4173 78.2726 81.5568C78.4339 81.6788 91.1283 91.0687 107.621 82.6434C107.723 82.5914 107.833 82.5599 107.947 82.5507C108.061 82.5416 108.175 82.5549 108.283 82.5899C108.392 82.625 108.492 82.681 108.579 82.755C108.666 82.8289 108.737 82.9192 108.789 83.0207C108.841 83.1222 108.872 83.233 108.882 83.3466C108.891 83.4603 108.877 83.5746 108.842 83.683C108.807 83.7915 108.751 83.8919 108.677 83.9786C108.603 84.0654 108.512 84.1366 108.411 84.1884C102.927 86.9894 97.8612 87.9028 93.5884 87.9028Z" fill="#ED6C4D"/>
</svg>
