<svg width="100" height="100" viewBox="0 0 100 100" fill="none" xmlns="http://www.w3.org/2000/svg">
<g clip-path="url(#clip0_4419_78583)">
<path d="M85.2197 84.2303C104.485 64.9648 104.485 33.7291 85.2196 14.4635C65.954 -4.80218 34.7183 -4.80224 15.4527 14.4633C-3.81285 33.7289 -3.81278 64.9646 15.4528 84.2302C34.7185 103.496 65.9542 103.496 85.2197 84.2303Z" fill="#EAEAEA"/>
<path d="M42.4529 94.5377C43.3799 94.5377 44.1314 93.7862 44.1314 92.8592C44.1314 91.9322 43.3799 91.1807 42.4529 91.1807C41.5259 91.1807 40.7744 91.9322 40.7744 92.8592C40.7744 93.7862 41.5259 94.5377 42.4529 94.5377Z" fill="white"/>
<path d="M25.1053 8.93418C26.0323 8.93418 26.7838 8.18268 26.7838 7.25566C26.7838 6.32865 26.0323 5.57715 25.1053 5.57715C24.1783 5.57715 23.4268 6.32865 23.4268 7.25566C23.4268 8.18268 24.1783 8.93418 25.1053 8.93418Z" fill="#FEC900"/>
<path fill-rule="evenodd" clip-rule="evenodd" d="M20.9975 33.4723L0.317383 38.8678L1.66484 28.0404L6.70918 32.4742L9.45176 25.0643L13.9859 30.5898L16.8736 24.6318L20.9975 33.4723Z" fill="#FE5D0D"/>
<path fill-rule="evenodd" clip-rule="evenodd" d="M59.2064 93.6057L62.8975 92.8848L61.6771 96.4428L60.4562 100L57.9857 97.1641L55.5156 94.3279L59.2064 93.6057Z" fill="#FEC900"/>
<path d="M2.38379 67.8029L0.990234 65.5353L18.9328 54.5107L20.3246 56.7773L2.38379 67.8029Z" fill="#FEC900"/>
<path d="M14.4865 68.2068L8.80664 81.8564L11.2635 82.8788L16.9433 69.2291L14.4865 68.2068Z" fill="#FEC900"/>
<path fill-rule="evenodd" clip-rule="evenodd" d="M13.0786 49.7508C11.6538 50.6965 9.73236 50.3082 8.78646 48.8834C7.84076 47.4586 8.22904 45.5371 9.65384 44.5912C11.0786 43.6453 13.0001 44.0338 13.946 45.4586C14.8917 46.8834 14.5035 48.8051 13.0786 49.7508Z" fill="#79BB35"/>
<path d="M88.9297 43.1208L84.7852 47.083L88.7468 51.227L92.8913 47.2648L88.9297 43.1208Z" fill="#B8CBFE"/>
<path fill-rule="evenodd" clip-rule="evenodd" d="M95.0054 25.2217C95.6943 25.5596 96.4013 25.7791 97.0632 26.2992C96.3859 27.4369 96.2191 28.1271 95.0945 28.8572C94.2968 29.375 93.3761 29.5939 92.4656 29.7766C91.3167 30.0068 90.2148 29.8883 89.2287 30.8301C88.2984 31.7191 88.2652 33.1295 87.2042 34.0592C85.8466 35.2498 84.1931 35.341 82.8247 35.4859C82.1495 35.5568 81.5732 35.4785 80.8179 36.1813C80.2927 36.6697 80.0712 37.4529 79.6648 38.1367C78.6394 39.857 77.1763 40.9451 75.1492 40.7654C75.0984 40.0633 75.2669 39.3936 75.2775 38.702C78.0699 38.3754 77.6187 35.2984 80.087 33.807C81.8958 32.7133 84.2341 33.5646 85.6589 32.2871C86.1923 31.81 86.416 30.9201 86.7103 30.408C87.0742 29.775 87.4964 29.1131 88.154 28.6318C89.8615 27.382 92.4658 28.0383 94.0058 26.7479C94.5191 26.3184 94.5994 25.817 95.0054 25.2217Z" fill="#79BB35"/>
<path d="M97.6448 64.0269C99.3591 68.3423 97.2429 73.2494 92.928 74.964C88.6126 76.6793 83.7056 74.5634 81.9904 70.2472C80.2747 65.9324 82.3913 61.0252 86.7064 59.3105C91.022 57.5955 95.9286 59.7107 97.6448 64.0269ZM84.1868 69.3754C85.4202 72.4797 88.9501 74.0019 92.0544 72.7677C95.1597 71.5343 96.6806 68.0045 95.4472 64.9002C94.213 61.7949 90.6835 60.273 87.579 61.5068C84.4749 62.741 82.953 66.2705 84.1868 69.3754Z" fill="#FE5D0D"/>
<path d="M61.1709 0.0205555L57.04 0.0344226L62.5596 14.4922L69.5557 14.4688C69.5691 14.2709 69.5518 8.34556 69.5518 8.34556C69.5363 3.7397 65.7768 0.00512576 61.1709 0.0205555Z" fill="#1D1D1B"/>
<path d="M45.7624 1.18652C41.1565 1.20195 37.418 3.84727 37.4336 8.45332C37.4336 8.45332 37.4379 13.9447 37.4528 14.1426L44.318 14.1469L44.3317 8.43008C44.329 7.62754 44.9793 6.97285 45.7819 6.97012L45.7624 1.18652Z" fill="#1D1D1B"/>
<path d="M81.5623 13.6162L77.5812 13.6295C77.5854 15.9289 77.5762 18.2283 77.5703 20.5276L81.5855 20.5141C83.4902 20.5076 85.0293 18.9582 85.0231 17.0535C85.0164 15.1488 83.467 13.6098 81.5623 13.6162Z" fill="#1D1D1B"/>
<path d="M77.536 13.6301L65.4996 13.5868C65.5131 13.3889 65.526 8.35923 65.526 8.35923C65.5106 3.75317 61.7508 0.0187976 57.1449 0.0342273L41.7322 0.0859851C37.1262 0.101415 33.3918 3.86118 33.4072 8.46704C33.4072 8.46704 33.4541 13.4965 33.4688 13.6942L20.6397 13.7055C18.735 13.712 17.1959 15.2614 17.2022 17.1661C17.2086 19.0707 18.758 20.6098 20.6627 20.6036L77.5588 20.5282C79.4635 20.5217 81.0026 18.9723 80.9963 17.0676C80.9903 15.1627 79.4408 13.6237 77.536 13.6301ZM40.3209 13.0784L40.3053 8.4438C40.3026 7.64126 40.9529 6.98657 41.7555 6.98384L57.1682 6.93208C57.9707 6.92934 58.6254 7.57973 58.6281 8.38227L58.6438 13.0168C58.6446 13.2293 58.5875 13.4245 58.5035 13.61L40.4655 13.6706C40.3799 13.4854 40.3217 13.2907 40.3209 13.0784Z" fill="#002291"/>
<path d="M65.4131 25.3545L65.817 87.5752H70.2551C73.4594 87.5752 76.0965 85.0537 76.2398 81.8525L78.5691 25.3547H65.4131V25.3545Z" fill="#1D1D1B"/>
<path d="M23.4287 25.3545L25.758 81.8523C25.9014 85.0535 28.5383 87.575 31.7428 87.575H65.8166C69.0209 87.575 71.658 85.0535 71.8014 81.8523L74.1307 25.3545H23.4287Z" fill="#ADD0FF"/>
<path d="M66.4607 78.9297H31.3477C30.0707 78.9297 29.0352 79.965 29.0352 81.2422C29.0352 82.5193 30.0705 83.5547 31.3477 83.5547H66.4607C67.7379 83.5547 68.7732 82.5193 68.7732 81.2422C68.7732 79.965 67.7379 78.9297 66.4607 78.9297Z" fill="#8E8EFF"/>
<path d="M66.4607 71.877H31.3477C30.0707 71.877 29.0352 72.9123 29.0352 74.1895C29.0352 75.4664 30.0705 76.502 31.3477 76.502H66.4607C67.7379 76.502 68.7732 75.4666 68.7732 74.1895C68.7732 72.9123 67.7379 71.877 66.4607 71.877Z" fill="#79BB35"/>
<path d="M31.3477 69.4502H66.4607C67.7379 69.4502 68.7732 68.4148 68.7732 67.1377C68.7732 65.8607 67.7379 64.8252 66.4607 64.8252H31.3477C30.0707 64.8252 29.0352 65.8605 29.0352 67.1377C29.0352 68.4148 30.0705 69.4502 31.3477 69.4502Z" fill="#FE5D0D"/>
<path d="M27.8951 32.8833C28.8185 31.4454 29.9371 30.5048 31.4103 30.0101C32.7853 29.5485 33.8802 29.871 34.3504 30.8085C34.8293 31.7626 34.4205 32.7097 33.1119 33.4731C32.0242 34.1073 30.8396 34.5716 29.9928 35.57C29.4847 36.1686 28.731 36.4188 27.9717 35.9919C27.0992 35.5017 27.1279 34.6989 27.4088 33.8921C27.5506 33.4843 27.7855 33.1058 27.8951 32.8833Z" fill="white"/>
<path d="M36.9234 29.8864C37.4662 29.2259 38.9437 29.1331 39.6755 29.6897C40.23 30.1116 40.3175 30.6464 39.8841 31.1944C39.3539 31.8651 37.9138 31.9405 37.1939 31.3546C36.6664 30.9255 36.5607 30.4155 36.9234 29.8864Z" fill="white"/>
</g>
<defs>
<clipPath id="clip0_4419_78583">
<rect width="100" height="100" fill="white"/>
</clipPath>
</defs>
</svg>
