<svg width="54" height="54" viewBox="0 0 54 54" fill="none" xmlns="http://www.w3.org/2000/svg">
<path d="M10.3295 13.5453C8.70664 14.2244 6.81595 13.5299 5.38359 12.6754C3.61495 11.62 1.6174 9.8715 1.07426 7.79852C0.973103 7.30691 0.971603 6.72047 1.37113 6.3533C1.73079 6.02298 2.22338 6.06337 2.63878 6.25235C3.56092 6.66764 4.45227 6.77398 5.44145 6.87632C5.9005 6.92382 6.27214 7.05234 6.59649 7.29405C6.34814 5.64709 6.83768 3.93144 8.02211 2.72689C8.31541 2.45915 8.70644 2.22636 9.10716 2.4085C9.44131 2.56061 9.57274 2.91753 9.67353 3.24514C10.6226 6.07047 13.112 8.67893 11.9516 11.8228C12.3892 12.3096 12.8322 12.7891 13.2915 13.2472C13.8902 13.8444 14.4995 14.4318 15.1174 15.0103C18.3467 8.80294 24.9892 3.81971 32.3139 5.19458C32.8972 5.30413 33.4543 5.45656 33.9884 5.64398C38.2451 6.74189 42.4062 8.72611 44.2637 12.9561C45.7974 16.4484 46.4207 20.3282 46.2695 24.1291C45.9924 31.0962 43.0138 38.3508 37.1359 42.3552C38.4076 44.5845 39.5678 46.9516 40.3948 49.3798C40.6176 50.0931 40.6966 51.1757 39.8522 51.5202C39.0908 51.831 38.3762 51.1964 38.0154 50.5841C36.7638 48.366 35.5354 46.1376 34.4406 43.8376C27.328 46.8201 21.1359 43.6753 18.7067 42.1765C17.8293 43.8975 16.8925 45.5856 15.9433 47.2676C15.5824 47.8799 14.8679 48.5145 14.1065 48.2038C13.2622 47.8592 13.3411 46.7767 13.5638 46.0633C14.2692 43.9977 15.2411 42.0108 16.2548 40.0795C14.3247 37.8673 13.2263 34.9639 12.6574 32.118C11.6432 27.0451 12.1509 21.9222 14.1124 17.1348C13.8075 16.8673 13.502 16.6007 13.2014 16.3284C12.2131 15.4332 11.2583 14.5019 10.3295 13.5453Z" fill="#68182B"/>
<path d="M5.36882 11.9563C6.61002 12.7607 8.38553 13.5812 9.88574 13.0748C9.39898 12.5634 8.91927 12.0457 8.44879 11.5195C7.32541 11.7636 6.14353 11.8667 5.00205 11.7088C5.12536 11.7945 5.24815 11.8781 5.36882 11.9563Z" fill="#FAC135"/>
<path d="M6.51025 8.02249C5.92746 7.40589 5.18536 7.4916 4.37777 7.37514C3.66347 7.27216 2.99382 7.05784 2.33692 6.76201C2.15325 6.67857 1.91539 6.6444 1.76003 6.80038C1.55298 7.00842 1.59612 7.37654 1.64912 7.63421C1.74256 7.99081 1.88853 8.33767 2.07147 8.67312C3.52829 9.51301 5.20315 9.74963 6.85913 9.54127C6.56781 9.03911 6.39192 8.50967 6.51025 8.02249Z" fill="#FAC135"/>
<path d="M2.44371 9.27344C2.95993 10.0058 3.63964 10.6653 4.33854 11.2198C5.5857 11.53 6.91101 11.4695 8.17041 11.2169C8.16284 11.2083 8.15491 11.2002 8.14739 11.1914C7.85576 10.8612 7.42137 10.3931 7.0673 9.87511C5.48469 10.0973 3.88279 9.94304 2.44371 9.27344Z" fill="#FAC135"/>
<path d="M9.09762 3.39949C9.05785 3.27007 9.01751 3.06425 8.9041 2.97553C8.75237 2.85715 8.55392 3.04387 8.44373 3.14447C7.34228 4.26464 6.92127 5.87982 7.21799 7.40264C7.66959 7.43857 8.20012 7.83065 8.46214 8.06804C8.5029 6.87336 9.08305 5.76879 9.65698 4.72309C9.44044 4.28009 9.24541 3.83933 9.09762 3.39949Z" fill="#FAC135"/>
<path d="M9.85177 5.11719C9.28982 6.14931 8.75898 7.2324 8.82297 8.42112C9.1747 8.76414 9.51845 9.1181 9.85499 9.4814C10.0509 8.6038 10.4017 7.77983 10.8052 6.97048C10.504 6.34589 10.1645 5.72918 9.85177 5.11719Z" fill="#FAC135"/>
<path d="M10.9983 7.37891C10.6232 8.15268 10.3022 8.94679 10.1489 9.79451C10.6034 10.2948 11.051 10.8044 11.5004 11.3117C11.9126 9.94987 11.5652 8.64722 10.9983 7.37891Z" fill="#FAC135"/>
<path d="M38.5309 50.2832C38.7289 50.6194 39.1813 51.1766 39.6443 50.9656C40.1439 50.7379 39.9382 49.9199 39.8192 49.5388C39.0126 47.1711 37.8757 44.8599 36.6358 42.6836C36.4176 42.8216 36.1963 42.9562 35.9705 43.0852C35.6457 43.2709 35.3167 43.4399 34.9846 43.5961C36.0723 45.8752 37.29 48.0842 38.5309 50.2832Z" fill="#AA8053"/>
<path d="M34.6296 43.1181C37.856 41.5567 40.4744 38.9859 42.3004 35.9198C45.961 29.7728 46.6845 21.8326 44.4376 15.066C43.6801 12.7845 42.5926 10.7593 40.665 9.2583C39.5244 8.37022 38.2437 7.70856 36.9032 7.1875C40.5655 9.88243 42.5044 14.6569 42.7577 19.2793C43.1508 26.4486 40.6233 34.7203 35.1419 39.5813C32.2935 42.1072 27.9149 43.8616 24.0308 43.8122C27.4302 44.7213 31.407 44.6777 34.6296 43.1181Z" fill="#A2603F"/>
<path d="M14.139 46.2204C14.0191 46.6043 13.8146 47.4182 14.3139 47.6475C14.7761 47.8596 15.2305 47.2994 15.4276 46.9649C16.3823 45.2732 17.3245 43.5754 18.2063 41.8444C17.9588 41.6708 17.7148 41.4889 17.4781 41.2892C17.1989 41.0536 16.9366 40.8026 16.684 40.543C15.7248 42.3776 14.8077 44.2619 14.139 46.2204Z" fill="#AA8053"/>
<path d="M16.1302 38.9759C20.1243 44.3712 27.5362 44.019 32.7732 40.6392C38.6837 36.8244 41.4932 29.5087 42.0935 22.7542C42.6525 16.4629 40.6549 8.97133 34.2534 6.38154C30.91 5.02886 27.0851 5.52405 23.8662 7.00188C20.1361 8.71432 17.4143 11.8265 15.5699 15.4315C16.1815 15.9949 16.8021 16.549 17.4327 17.0915C20.0454 12.2238 24.9468 7.57831 30.9043 9.11458C36.1435 10.4653 38.6138 16.0572 38.5702 21.0673C38.5225 26.5405 36.1374 32.683 32.1306 36.4699C28.5778 39.8276 22.7293 40.7857 18.8418 37.3742C13.9442 33.0762 14.3232 24.6521 16.4879 19.1328C15.8463 18.6157 15.2106 18.0909 14.5862 17.5523C11.9582 24.1754 11.7102 33.005 16.1302 38.9759Z" fill="#FF5671"/>
<path d="M25.8858 24.3502C25.6729 25.0102 24.9941 24.996 24.4876 24.7006C24.3641 24.6277 24.2433 24.5507 24.1204 24.4771C23.9018 25.3075 23.6685 26.5759 24.1654 27.2563C25.1972 28.6691 26.4143 26.3014 26.7045 25.5502C27.0408 24.6793 27.3204 23.6214 27.0965 22.6954C26.7228 21.1495 25.6195 21.8132 25.004 22.7085C25.0731 22.7519 25.1414 22.7963 25.2108 22.8393C25.7283 23.1572 26.0855 23.7312 25.8858 24.3502Z" fill="#FF5671"/>
<path d="M27.0913 21.4412C28.3086 22.5181 27.6801 24.7958 27.1463 26.0373C26.7138 27.0433 25.6679 28.7536 24.2994 28.1627C22.9222 27.5681 23.2731 25.3237 23.5914 24.1532C23.0308 23.81 22.4755 23.4591 21.9261 23.0992C21.2142 25.4046 20.6431 29.4911 22.9563 30.9691C25.6193 32.6706 28.0062 29.1824 28.9085 27.1473C29.9655 24.7629 30.7851 21.3902 29.283 19.0164C28.5673 17.8854 27.3498 17.3887 26.0593 17.7986C24.5119 18.2899 23.4664 19.8222 22.7256 21.2029C23.3089 21.6082 23.8996 22.003 24.4974 22.3866C25.0684 21.5069 26.0864 20.5523 27.0913 21.4412Z" fill="white"/>
<path d="M27.8974 17.1729C30.1004 17.8348 30.7343 20.5387 30.6537 22.5528C30.5465 25.2362 29.4723 28.2377 27.6742 30.2561C26.365 31.726 24.0109 32.6828 22.3102 31.2289C20.0717 29.3151 20.5935 25.2456 21.4071 22.7555C20.7973 22.3477 20.1965 21.927 19.6007 21.4995C18.4508 24.8187 18.1347 29.0903 20.0262 32.1975C21.9062 35.2859 26.0209 35.3269 28.6232 33.1365C31.2318 30.9407 32.7224 27.3968 33.3425 24.1134C33.9597 20.8455 33.4862 16.5688 30.3809 14.6496C26.2712 12.1096 22.3006 16.114 20.4567 19.5446C21.0416 19.9917 21.6348 20.4276 22.2351 20.8537C23.3387 18.8479 25.3448 16.4058 27.8974 17.1729Z" fill="#FF5671"/>
<path d="M29.22 13.5019C32.7794 14.4773 34.232 18.4492 34.1839 21.8045C34.1279 25.7249 32.4655 30.1366 29.7019 32.9514C27.3732 35.3232 23.4112 36.308 20.6972 33.9359C17.2857 30.9541 17.7166 24.9759 19.0988 21.1399C18.3804 20.6145 17.6712 20.0765 16.9732 19.524C15.1274 24.3907 14.784 30.7486 17.7806 35.2475C20.6019 39.4831 26.5251 39.9474 30.4952 37.0635C34.5759 34.0996 36.8943 28.7611 37.7143 23.9162C38.5403 19.0374 37.351 13.0444 32.6745 10.4581C26.5595 7.07645 20.6654 12.2923 17.8985 17.4885C18.5805 18.065 19.2735 18.6285 19.9778 19.1774C21.7671 15.8619 25.0938 12.3711 29.22 13.5019Z" fill="white"/>
<path d="M14.5871 16.7705C15.3743 17.4662 16.1784 18.1432 16.9981 18.8008C17.0401 18.8198 17.0755 18.8481 17.1024 18.8825C19.5363 20.8271 22.1075 22.6018 24.7896 24.1836C25.0174 24.3165 25.2567 24.4175 25.3371 24.0981C25.418 23.7758 25.1563 23.5049 24.9102 23.3535C21.623 21.3134 18.5752 18.931 15.6979 16.3494C14.1992 15.0046 12.763 13.5912 11.3662 12.1416C10.6816 11.4314 10.0145 10.7046 9.35437 9.97168C8.78457 9.3391 8.19233 8.33769 7.35221 8.039C6.79309 7.83991 7.28102 8.9783 7.27853 8.97255C7.51402 9.51865 7.92537 10.0118 8.2981 10.4615C8.91922 11.2108 9.5954 11.9195 10.264 12.626C11.6368 14.0763 13.0911 15.4484 14.5871 16.7705Z" fill="#FF8E5B"/>
<path d="M30.8479 44.2461C28.5694 44.5781 26.1843 44.3863 24.0306 43.8103C27.9148 43.8598 32.2933 42.1054 35.1417 39.5795C40.6232 34.7184 43.1506 26.4468 42.7576 19.2775C42.7566 19.2606 42.7547 19.2436 42.7536 19.2266C42.8942 20.0504 42.9981 20.8717 43.089 21.6638C43.4921 25.1775 42.9848 28.732 41.704 32.0213C39.7186 37.1194 35.9847 42.0464 30.8479 44.2461Z" fill="#81391C"/>
<path d="M44.6946 30.3564C45.0513 28.2427 45.1923 26.0927 45.143 23.9815C45.0103 18.303 43.514 12.3599 39.3504 8.35938C39.8049 8.62955 40.2446 8.92564 40.665 9.253C42.5926 10.7539 43.6801 12.7792 44.4376 15.0607C46.0513 19.9202 46.1329 25.3852 44.6946 30.3564Z" fill="#F5995A"/>
<path d="M24.1666 27.2487C23.9863 27.002 23.9031 26.6775 23.8794 26.3249C23.9079 26.345 23.9352 26.3661 23.9654 26.3848C24.4706 26.6976 25.0876 26.5276 25.57 26.2667C26.0733 25.9944 26.5109 25.5777 26.863 25.0977C26.8127 25.2499 26.7603 25.3998 26.7048 25.5433C26.4147 26.2942 25.198 28.6612 24.1666 27.2487Z" fill="#DF3F58"/>
<path d="M24.7748 33.2474C28.8015 33.3643 31.3197 28.8112 32.472 25.5652C33.051 23.9336 33.4236 22.2139 33.5258 20.4844C33.6394 21.7224 33.5572 22.9799 33.3427 24.1156C32.7225 27.3989 31.232 30.9429 28.6234 33.1387C26.0211 35.3291 21.9063 35.2881 20.0264 32.1997C18.9881 30.494 18.6179 28.4375 18.6827 26.3803C18.7831 27.6149 19.0684 28.821 19.6355 29.9307C20.6112 31.8399 22.617 33.1847 24.7748 33.2474Z" fill="#DF3F58"/>
<path d="M14.828 35.6973C16.829 39.3183 20.282 41.9103 24.5115 41.9313C29.064 41.954 33.1795 39.4 36.0658 36.0303C39.6858 31.804 41.4795 26.2431 41.8365 20.7524C41.9205 19.462 41.9194 18.1686 41.8453 16.8789C42.1955 18.8334 42.2625 20.8466 42.0933 22.7502C41.4931 29.5047 38.6835 36.8204 32.773 40.6352C27.5361 44.015 20.1241 44.3671 16.13 38.9719C14.2671 36.4552 13.236 33.4301 12.8604 30.2771C13.251 32.1624 13.8842 33.9894 14.828 35.6973Z" fill="#DF3F58"/>
<path d="M31.5817 16.1234C30.5472 15.3383 29.2585 14.9574 27.9763 14.8696C26.1856 14.7471 24.4581 15.2759 22.9395 16.1847C24.9665 14.1714 27.6425 12.9567 30.381 14.6493C31.3925 15.2744 32.1233 16.1506 32.6296 17.1598C32.3322 16.7801 31.9878 16.4315 31.5817 16.1234Z" fill="#FF9780"/>
<path d="M17.7952 11.9221C19.411 9.85147 21.4205 8.12467 23.8662 7.00188C27.0851 5.52405 30.9099 5.02886 34.2534 6.38154C37.8551 7.83869 40.0628 10.8475 41.2053 14.3214C38.8767 9.86957 34.6851 6.20567 29.4266 6.4085C26.2878 6.52951 23.277 7.93382 20.7409 9.70796C19.7393 10.4085 18.7582 11.1611 17.7952 11.9221Z" fill="#FF9780"/>
<path d="M3.76983 8.97184C4.27904 9.07451 4.80397 9.09692 5.3221 9.10179C5.56929 9.10402 5.81057 9.07068 6.04853 9.00415C6.27872 8.93964 6.41427 8.8085 6.50123 8.64189C6.55505 8.94545 6.68578 9.25393 6.85913 9.55277C5.20309 9.76113 3.52829 9.52451 2.07147 8.68462C1.96745 8.494 1.87723 8.29923 1.79996 8.10156C2.35522 8.55659 3.04235 8.82478 3.76983 8.97184Z" fill="#EE9E2B"/>
<path d="M4.82415 10.7664C5.28312 10.8747 7.28311 11.2722 7.56686 10.5305C7.77894 10.7843 7.98543 11.0132 8.14763 11.1969C8.1552 11.2056 8.16314 11.2138 8.17065 11.2223C6.91126 11.475 5.5859 11.5354 4.33879 11.2252C3.99416 10.9518 3.65441 10.6526 3.33643 10.332C3.82714 10.5022 4.32593 10.6487 4.82415 10.7664Z" fill="#EE9E2B"/>
<path d="M5.66986 12.1445C6.86029 12.6011 8.80957 13.2251 9.29571 12.4461C9.49156 12.6568 9.68783 12.8669 9.88623 13.0754C8.5029 13.5422 6.88653 12.8809 5.66986 12.1445Z" fill="#EE9E2B"/>
<path d="M10.499 6.36328C10.6036 6.56607 10.7068 6.76938 10.8054 6.97388C10.4021 7.78292 10.0514 8.60669 9.85554 9.484C9.75855 9.37929 9.65964 9.27727 9.5614 9.17406C9.60889 8.79279 9.69375 8.41665 9.81541 8.0488C10.0011 7.48848 10.4239 6.93806 10.499 6.36328Z" fill="#EE9E2B"/>
<path d="M11.3539 8.28906C11.686 9.27259 11.8161 10.2796 11.5007 11.3213C11.3123 11.1085 11.1239 10.8955 10.9356 10.6829C11.4906 10.3216 11.444 9.11635 11.3539 8.28906Z" fill="#EE9E2B"/>
<path d="M9.3661 4.09766C9.45664 4.30762 9.55438 4.51794 9.65747 4.72894C9.08354 5.77464 8.50339 6.8792 8.46263 8.07389C8.37329 7.99294 8.25122 7.894 8.11318 7.7974C8.16421 7.21273 8.3206 6.65161 8.56022 6.09277C8.81068 5.50847 9.27302 4.78971 9.3661 4.09766Z" fill="#EE9E2B"/>
<path d="M35.6159 43.2734C35.7725 43.8229 36.0166 44.3472 36.2773 44.8698C36.6673 45.6518 37.0336 46.4387 37.3898 47.2367C37.9982 48.5994 38.6699 49.865 39.5881 50.981C39.1451 51.1256 38.7208 50.6013 38.5307 50.2787C37.2897 48.0798 36.0721 45.8707 34.9844 43.5917C35.1964 43.492 35.4066 43.3848 35.6159 43.2734Z" fill="#865725"/>
<path d="M14.4849 47.6956C14.6021 47.5661 14.7115 47.4292 14.8147 47.2885C15.2287 46.7235 15.519 46.0685 15.8145 45.4371C16.4528 44.0739 17.2711 42.8183 17.5427 41.3438C17.7594 41.5228 17.981 41.6895 18.2063 41.8475C17.3245 43.5785 16.3823 45.2763 15.4276 46.968C15.2548 47.2611 14.8847 47.7271 14.4849 47.6956Z" fill="#865725"/>
<path d="M20.331 20.6146C20.9688 20.9604 21.6143 21.2891 22.267 21.6014C23.1316 22.2076 24.0111 22.7933 24.9102 23.3513C25.1563 23.5027 25.418 23.7736 25.3371 24.0959C25.2567 24.4154 25.0174 24.3143 24.7896 24.1814C22.1075 22.5996 19.5364 20.8249 17.1024 18.8803C17.0755 18.8459 17.0401 18.8176 16.9981 18.7986C16.7751 18.6197 16.5563 18.4358 16.3356 18.2539C17.6436 19.0805 18.9717 19.8776 20.331 20.6146Z" fill="#FF564D"/>
<path d="M13.4575 14.2498C12.383 13.4603 11.4016 12.5069 10.4868 11.5964C9.37535 10.4903 8.43439 9.13743 7.08922 8.33036C7.06382 8.11698 7.10955 7.95291 7.35125 8.03899C8.1915 8.33777 8.78384 9.3393 9.35373 9.97198C10.0139 10.7051 10.6812 11.4319 11.3658 12.1422C12.0525 12.8549 12.7491 13.5585 13.4575 14.2498Z" fill="#FBC471"/>
<path d="M24.2421 30.0633C25.1577 30.166 26.0519 29.6591 26.7163 29.0802C27.9412 28.0129 28.6314 26.3716 29.1345 24.8663C29.6273 23.392 29.8316 21.9016 29.8792 20.3828C30.4814 22.5716 29.7753 25.1914 28.9084 27.1467C28.0062 29.1818 25.6192 32.67 22.9562 30.9685C21.5429 30.0654 21.2071 28.1887 21.3215 26.3394C21.424 27.0858 21.641 27.8125 22.036 28.4951C22.5135 29.32 23.2772 29.9554 24.2421 30.0633Z" fill="#BEBEBE"/>
<path d="M17.7803 35.2441C16.2195 32.9008 15.5664 30.053 15.5582 27.1742C15.6841 28.493 15.9443 29.7951 16.3702 31.0508C17.27 33.7035 19.0493 36.1768 21.7636 37.1525C24.5727 38.1624 27.8448 37.387 30.2912 35.8321C32.7499 34.2692 34.5465 31.8173 35.6445 29.1498C36.4539 27.1835 37.0995 25.1377 37.5673 23.0638C37.7118 22.4234 37.8514 21.7409 37.9561 21.043C37.9547 22.019 37.8711 22.9862 37.7141 23.9129C36.8941 28.7578 34.5757 34.0963 30.495 37.0602C26.5248 39.9441 20.6016 39.4798 17.7803 35.2441Z" fill="#BEBEBE"/>
<path d="M22.1479 23.2382C21.9359 23.6704 21.7401 24.1104 21.558 24.5554C21.6637 24.0261 21.7923 23.5304 21.9259 23.0977C21.9992 23.1456 22.0745 23.1905 22.1479 23.2382Z" fill="#EFEFEF"/>
<path d="M34.8939 12.7966C32.9874 11.1287 30.4723 10.162 27.9346 10.5329C24.7908 10.9925 22.0656 13.2253 20.1205 15.6179C19.5147 16.3631 18.9896 17.1679 18.5233 18.0066C18.3147 17.8343 18.1051 17.6633 17.8983 17.4885C20.6652 12.2923 26.5593 7.07649 32.6743 10.4581C34.4775 11.4554 35.7604 12.9605 36.6111 14.7118C36.1214 14.0162 35.5504 13.3711 34.8939 12.7966Z" fill="#EFEFEF"/>
<path d="M26.2569 18.5216C24.9358 18.9879 23.9541 20.2531 23.2087 21.3747C23.1845 21.4111 23.1622 21.4486 23.1383 21.4853C23.0003 21.3911 22.8614 21.2984 22.7243 21.2032C23.4652 19.8222 24.5109 18.2896 26.0585 17.7983C27.2259 17.4275 28.3321 17.8003 29.0627 18.7115C28.2332 18.2697 27.205 18.187 26.2569 18.5216Z" fill="#EFEFEF"/>
<path d="M17.5591 19.9777C17.3835 20.3861 17.2162 20.7978 17.0611 21.2128C16.3492 23.1186 15.8807 25.1107 15.5582 27.1276C15.5574 24.496 16.0945 21.8407 16.9733 19.5234C17.167 19.6769 17.3637 19.8266 17.5591 19.9777Z" fill="#EFEFEF"/>
</svg>
