<svg width="54" height="54" viewBox="0 0 54 54" fill="none" xmlns="http://www.w3.org/2000/svg">
<g clip-path="url(#clip0_8333_82453)">
<path d="M43.1433 5.06813C40.5359 1.78455 36.0617 -0.0941804 31.5443 0.00785853C22.71 0.207412 19.3375 6.41179 18.0659 10.5988C17.3581 12.9293 15.8097 14.9008 13.782 16.2502C8.0864 20.0402 4.3849 26.5885 4.5891 33.9891C4.88533 44.7269 13.5432 53.5244 24.2752 53.9858C26.3569 54.0753 28.3731 53.8538 30.2831 53.3669L30.2834 53.3677C30.2834 53.3677 45.7778 50.3682 48.7854 32.043C51.793 13.7179 43.1433 5.06813 43.1433 5.06813ZM35.4495 46.6145C33.3121 46.6145 32.1855 44.5088 32.1855 42.3713C32.1855 40.2338 37.2584 36.2673 39.3958 36.2673C41.5333 36.2673 41.8937 39.8156 40.2442 42.4222C39.1014 44.2286 37.587 46.6145 35.4495 46.6145Z" fill="#FFC517"/>
<path d="M30.9548 9.35187C31.059 8.12966 30.4302 6.90877 29.4921 6.15115C28.7444 5.54726 27.688 5.13136 26.7957 5.45867C26.0324 5.64548 25.4072 6.212 25.0914 6.96044C24.9075 7.39598 24.8252 7.87486 24.6215 8.30064C24.4209 8.72023 24.0754 8.93585 23.6972 9.1822C22.7597 9.79324 22.0814 10.6684 22.0704 11.8318C22.0604 12.8966 22.698 14.1835 23.8199 14.4321C24.1016 14.4947 24.3776 14.4758 24.6593 14.4268C24.8988 14.3851 25.179 14.2663 25.4253 14.3144C25.7544 14.3787 26.0411 14.7118 26.2857 14.9235C27.1544 15.6752 28.2772 15.992 29.3435 15.4242C30.403 14.8599 30.821 13.6705 30.5192 12.5441C30.3709 11.9906 30.2697 11.553 30.4676 10.9941C30.6643 10.4394 30.904 9.9491 30.9548 9.35187Z" fill="#7BEFE5"/>
<path d="M15.3891 21.2534C15.3744 21.4009 15.4139 21.5524 15.4982 21.6854C15.6275 22.1002 15.8216 22.4863 16.071 22.8378C16.0865 22.8872 16.1017 22.9366 16.1167 22.9857C16.2645 23.4683 16.405 23.9506 16.6295 24.4049C17.0778 25.3115 17.9497 25.9716 18.9956 25.8978C19.4959 25.8624 19.9973 25.7066 20.4077 25.4129C20.7731 25.1515 21.0551 24.7501 21.49 24.6022C21.9903 24.4322 22.5152 24.3898 23.0004 24.1663C23.4512 23.9588 23.8244 23.5911 24.0816 23.1701C24.6604 22.2227 24.605 21.0262 24.2051 20.0237C23.8087 19.0302 23.131 18.1987 22.0293 18.0021C21.5313 17.9133 21.0191 17.9147 20.5694 17.6579C20.147 17.4166 19.7732 17.113 19.3177 16.9305C18.3223 16.5316 17.2228 16.9356 16.4869 17.6568C15.6668 18.4605 15.2242 19.6857 15.3276 20.8279C15.3404 20.9724 15.362 21.1141 15.3891 21.2534Z" fill="#FC974C"/>
<path d="M16.263 33.7623C15.7432 33.4194 15.0313 33.2824 14.6509 32.7581C14.2183 32.1619 14.2066 31.3512 14.1229 30.65C14.034 29.9057 13.8964 29.1547 13.4509 28.5317C13.0127 27.9188 12.3524 27.5074 11.5826 27.5157C9.92695 27.5337 8.96062 29.0611 8.66105 30.5204C8.42018 31.6939 8.48543 32.8509 8.72951 33.985C8.94943 35.8052 9.59476 37.5763 10.7162 38.9965C11.6457 40.1736 13.0438 40.7389 14.5264 40.4504C15.9436 40.1747 17.0467 39.065 17.4433 37.696C17.8443 36.311 17.5265 34.5956 16.263 33.7623Z" fill="#FC6084"/>
<path d="M25.5999 41.5386C24.6192 40.8551 23.3242 40.5235 22.1416 40.7277C20.9825 40.9278 19.8256 41.7289 19.0729 42.612C18.1449 43.701 17.6655 45.119 17.9166 46.5452C17.9728 46.8643 18.0757 47.1546 18.2132 47.4187C18.2428 47.5027 18.2759 47.5851 18.3155 47.6642C18.5772 48.189 19.0809 48.6118 19.5767 48.9082C20.697 49.5782 22.0742 49.5805 23.3277 49.3838C24.5209 49.1965 25.706 48.6584 26.5114 47.7375C27.3227 46.8101 27.6634 45.6323 27.4688 44.4152C27.2801 43.2329 26.5726 42.2166 25.5999 41.5386Z" fill="#26C68D"/>
<path d="M29.6267 48.7031C23.9778 47.87 18.1359 45.0583 15.3677 39.821C13.9544 37.147 13.4337 34.0373 13.7525 31.0377C14.1639 27.1671 16.0795 23.6807 18.2065 20.4955C22.6725 13.8074 27.8119 7.7966 33.6703 2.28923C34.3143 1.68366 34.9636 1.06964 35.6201 0.454672C34.3001 0.132482 32.9246 -0.0233749 31.5443 0.00782022C22.71 0.207374 19.3375 6.41175 18.0659 10.5988C17.3581 12.9293 15.8097 14.9007 13.782 16.2501C8.0864 20.0402 4.3849 26.5884 4.5891 33.9891C4.88533 44.7268 13.5432 53.5243 24.2752 53.9857C26.3569 54.0752 28.3731 53.8538 30.2831 53.3668L30.2834 53.3676C30.2834 53.3676 35.0048 52.452 39.741 48.5506C36.3889 49.04 32.9884 49.1989 29.6267 48.7031Z" fill="#F5B800"/>
<path d="M22.95 13.964C25.0534 11.2938 27.2818 8.73582 29.6401 6.27784C29.5915 6.2345 29.5425 6.19176 29.492 6.15115C28.7443 5.54726 27.6879 5.13136 26.7955 5.45867C26.0323 5.64548 25.4071 6.212 25.0914 6.96032C24.9075 7.39586 24.8251 7.87474 24.6215 8.30052C24.4209 8.72011 24.0753 8.93573 23.6972 9.18208C22.7597 9.793 22.0814 10.6683 22.0704 11.8316C22.0633 12.5787 22.3761 13.4335 22.95 13.964Z" fill="#29ADFC"/>
<path d="M15.3892 21.2533C15.3745 21.4008 15.414 21.5523 15.4983 21.6853C15.6275 22.1001 15.8217 22.4862 16.0711 22.8377C16.0866 22.8872 16.1017 22.9365 16.1168 22.9856C16.1783 23.1861 16.2396 23.3862 16.3051 23.5847C16.8914 22.5222 17.5385 21.4919 18.2066 20.4914C18.8857 19.4743 19.5824 18.4748 20.2928 17.4884C19.9766 17.2865 19.6715 17.0723 19.3177 16.9305C18.3223 16.5316 17.223 16.9356 16.4869 17.6568C15.6668 18.4605 15.2242 19.6857 15.3276 20.8279C15.3405 20.9723 15.362 21.114 15.3892 21.2533Z" fill="#D8691E"/>
<path d="M15.3676 39.8217C13.9543 37.1478 13.4336 34.038 13.7523 31.0384C13.8004 30.5854 13.871 30.1382 13.9583 29.6955C13.8565 29.2828 13.7046 28.8862 13.451 28.5317C13.0128 27.9188 12.3526 27.5074 11.5826 27.5157C9.927 27.5337 8.96067 29.0611 8.6611 30.5204C8.42011 31.6939 8.48548 32.8509 8.72956 33.9849C8.94948 35.8051 9.59481 37.5762 10.7163 38.9964C11.6458 40.1735 13.0439 40.7388 14.5265 40.4503C14.8794 40.3816 15.2129 40.2611 15.5208 40.0979C15.4695 40.0059 15.417 39.9151 15.3676 39.8217Z" fill="#FF1D58"/>
<path d="M18.3653 43.6797C17.9236 44.5589 17.7414 45.551 17.9169 46.5476C17.9731 46.8667 18.076 47.157 18.2134 47.4211C18.2431 47.5051 18.2762 47.5875 18.3157 47.6666C18.5773 48.1914 19.0812 48.6142 19.5768 48.9106C20.6971 49.5806 22.0743 49.5829 23.3279 49.3863C24.4143 49.2157 25.4907 48.7506 26.2833 47.9743C23.3675 47.1241 20.5741 45.7145 18.3653 43.6797Z" fill="#28935F"/>
<path d="M40.9705 12.4072C39.5767 11.7663 38.494 10.5694 38.0082 9.09766C37.5225 10.5695 36.4397 11.7663 35.0459 12.4072C36.4397 13.0481 37.5223 14.2448 38.0082 15.7167C38.4939 14.245 39.5767 13.0481 40.9705 12.4072Z" fill="white"/>
<path d="M43.7557 17.2713C42.7301 16.7996 41.9333 15.919 41.5758 14.8359C41.2183 15.919 40.4217 16.7996 39.396 17.2713C40.4217 17.743 41.2183 18.6237 41.5758 19.7067C41.9334 18.6235 42.7301 17.7429 43.7557 17.2713Z" fill="white"/>
</g>
<defs>
<clipPath id="clip0_8333_82453">
<rect width="54.0012" height="54.0012" fill="white"/>
</clipPath>
</defs>
</svg>
