<svg width="66" height="65" viewBox="0 0 66 65" fill="none" xmlns="http://www.w3.org/2000/svg">
<g clip-path="url(#clip0_8980_98052)">
<path d="M33.2968 64.1639C50.4629 64.1639 64.3787 50.248 64.3787 33.0819C64.3787 15.9159 50.4629 2 33.2968 2C16.1307 2 2.21484 15.9159 2.21484 33.0819C2.21484 50.248 16.1307 64.1639 33.2968 64.1639Z" fill="#514BDB"/>
<path d="M23.349 58.565C23.8886 58.3415 24.1448 57.7228 23.9213 57.1832C23.6978 56.6436 23.0791 56.3874 22.5395 56.6109C21.9999 56.8344 21.7437 57.4531 21.9672 57.9927C22.1907 58.5323 22.8094 58.7885 23.349 58.565Z" fill="white"/>
<path d="M49.0501 5.95901C49.1437 5.38249 48.7522 4.83929 48.1757 4.74572C47.5992 4.65216 47.0559 5.04367 46.9624 5.62018C46.8688 6.1967 47.2603 6.73991 47.8368 6.83348C48.4134 6.92704 48.9566 6.53553 49.0501 5.95901Z" fill="#B8CBFE"/>
<path d="M58.2423 49.5812C59.3224 52.3002 57.989 55.3918 55.2704 56.4721C52.5516 57.5528 49.4599 56.2198 48.3793 53.5003C47.2984 50.7817 48.6319 47.69 51.3505 46.6097C54.0697 45.5292 57.1611 46.8618 58.2423 49.5812ZM49.7632 52.951C50.5403 54.9068 52.7642 55.8659 54.7201 55.0883C56.6766 54.3113 57.6348 52.0873 56.8577 50.1315C56.0801 48.175 53.8563 47.2162 51.9005 47.9936C49.9447 48.771 48.9859 50.9947 49.7632 52.951Z" fill="#FEC900"/>
<path fill-rule="evenodd" clip-rule="evenodd" d="M41.829 58.2031C42.1965 58.5172 42.5936 58.7618 42.9161 59.1831C42.3246 59.7712 42.1146 60.1665 41.314 60.4359C40.7462 60.6269 40.15 60.6164 39.5658 60.5851C38.8287 60.5458 38.1747 60.3008 37.4253 60.7212C36.7185 61.1181 36.4773 61.9736 35.6843 62.3749C34.6693 62.889 33.6459 62.6857 32.7881 62.5599C32.3649 62.4974 32.0255 62.3594 31.4546 62.67C31.0576 62.8858 30.7998 63.3291 30.4447 63.6828C29.5494 64.5721 28.4863 65.0071 27.2773 64.5799C27.3563 64.1434 27.5641 63.761 27.6788 63.3407C29.434 63.5786 29.6404 61.6302 31.3805 61.1065C32.6556 60.7223 33.9492 61.608 35.0188 61.0514C35.419 60.8439 35.6948 60.3357 35.9547 60.0692C36.2759 59.7399 36.6372 59.4021 37.1139 59.2114C38.3516 58.716 39.8381 59.5243 40.9802 58.9779C41.3604 58.7961 41.4878 58.5029 41.829 58.2031Z" fill="#79BB35"/>
<path fill-rule="evenodd" clip-rule="evenodd" d="M33.8345 2.31198L34.3219 4.35809L35.851 2.91298L37.3797 1.46774L35.3637 0.866494L33.3477 0.265625L33.8345 2.31198Z" fill="#FE5D0D"/>
<path fill-rule="evenodd" clip-rule="evenodd" d="M63.7954 29.1254L65.3604 29.6388L65.0228 28.0262L64.685 26.4141L63.4577 27.5127L62.2305 28.6116L63.7954 29.1254Z" fill="#79BB35"/>
<path d="M13.4534 53.3373L10.6445 55.6094L12.9162 58.4179L15.7251 56.1458L13.4534 53.3373Z" fill="#FEC900"/>
<path d="M15.6212 39.7207C15.3515 39.4382 14.9497 39.3257 14.5709 39.4246L9.16318 40.8716L13.3799 36.5291C13.6648 36.2359 13.7572 35.7988 13.6152 35.4156C13.4736 35.0323 13.1195 34.7601 12.7125 34.7225L5.26851 34.034L12.0106 30.685C12.3426 30.5204 12.5618 30.2017 12.5979 29.8329C12.6339 29.4639 12.4805 29.1087 12.1866 28.8829L8.10934 25.7459L12.3993 26.7504C12.7912 26.8427 13.1947 26.7095 13.4539 26.4045C13.7147 26.1001 13.7826 25.6804 13.6319 25.3087L10.6522 17.9864C10.5442 17.7216 10.3391 17.5147 10.0756 17.4042C9.81191 17.2935 9.52195 17.2925 9.26131 17.4004C8.99699 17.5077 8.79044 17.7116 8.67987 17.9742C8.56891 18.2369 8.56688 18.5272 8.67441 18.7914L10.8759 24.2008L3.78697 22.5415C3.30023 22.4284 2.79343 22.6745 2.58116 23.1233C2.36712 23.5744 2.49864 24.1227 2.8941 24.4273L9.5302 29.5332L0.951721 33.7942C0.526682 34.0055 0.290295 34.479 0.377258 34.9458C0.464221 35.4131 0.85511 35.7699 1.32801 35.8132L10.2938 36.6426L4.93767 42.1585C4.60429 42.5021 4.54069 43.0301 4.78317 43.4429C5.02615 43.8562 5.52089 44.0562 5.97919 43.9335L13.2238 41.9946L11.6426 46.8548C11.4612 47.4145 11.7684 48.0179 12.3281 48.1999C12.4537 48.2407 12.5838 48.2579 12.7151 48.2509C13.152 48.2274 13.537 47.932 13.6729 47.5151L15.862 40.7855C15.983 40.4126 15.8909 40.0047 15.6212 39.7207Z" fill="#B8CBFE"/>
<path d="M54.4296 49.8698C63.8631 40.4364 63.863 25.1418 54.4296 15.7084C44.9962 6.27493 29.7016 6.27494 20.2682 15.7084C10.8348 25.1418 10.8348 40.4364 20.2682 49.8698C29.7016 59.3032 44.9962 59.3032 54.4296 49.8698Z" fill="#1D1D1B"/>
<path d="M50.9316 46.9056C59.6771 38.16 59.6771 23.9806 50.9316 15.235C42.186 6.48948 28.0066 6.48948 19.261 15.235C10.5155 23.9806 10.5155 38.16 19.261 46.9056C28.0066 55.6511 42.186 55.6511 50.9316 46.9056Z" fill="white"/>
<path d="M27.9248 54.1421C40.6636 58.1048 54.2029 50.9905 58.1656 38.2517C62.1284 25.5128 55.014 11.9735 42.2752 8.0108C29.5363 4.04796 15.997 11.1624 12.0342 23.9013C8.07146 36.6401 15.1859 50.1794 27.9248 54.1421ZM15.511 24.9828C18.8764 14.1642 30.375 8.12213 41.1935 11.4875C52.0122 14.8529 58.0542 26.3515 54.6888 37.17C51.3234 47.9887 39.8248 54.0308 29.0062 50.6653C18.1876 47.3 12.1456 35.8015 15.511 24.9828Z" fill="#FE5D0D"/>
<path d="M40.5789 19.501C40.8223 17.7102 39.5679 16.0608 37.7771 15.8175L35.775 15.5078L35.6741 16.2441C34.8422 16.736 34.2338 17.5876 34.0935 18.6194L31.9794 34.216C31.8409 35.2343 32.1879 36.2061 32.8414 36.9004L32.7484 37.5787L34.5887 37.8634C34.6526 37.8759 34.7156 37.8907 34.7811 37.8995C36.5719 38.143 38.2213 36.8885 38.4647 35.0977L40.5789 19.501Z" fill="#1D1D1B"/>
<path d="M32.746 37.5809C34.5368 37.8244 36.1862 36.5699 36.4297 34.7791L38.5439 19.1825C38.7874 17.3917 37.5328 15.7423 35.742 15.499C33.9512 15.2555 32.3018 16.51 32.0585 18.3008L29.9443 33.8974C29.7007 35.6882 30.9552 37.3376 32.746 37.5809Z" fill="#FE5D0D"/>
<path d="M34.6743 39.5126L34.6749 39.5085L32.6502 39.1953L32.5454 39.8725C31.6712 40.3557 31.0265 41.2281 30.8817 42.294C30.7426 43.3176 31.0941 44.2936 31.7541 44.9887L31.6498 45.6631L33.6745 45.9763V45.976C33.6776 45.9764 33.6805 45.9773 33.6834 45.9777C35.4744 46.2212 37.1235 44.9667 37.3671 43.1758C37.6055 41.4219 36.4059 39.8075 34.6743 39.5126Z" fill="#1D1D1B"/>
<path d="M32.5176 45.6601C34.3093 45.4228 35.5693 43.778 35.332 41.9863C35.0947 40.1946 33.4499 38.9346 31.6582 39.1719C29.8665 39.4092 28.6064 41.054 28.8438 42.8457C29.0811 44.6374 30.7259 45.8974 32.5176 45.6601Z" fill="#FE5D0D"/>
<path d="M15.3187 1.06899L24.4491 0.960958C26.8444 0.953721 28.7915 2.88887 28.7998 5.28435L28.8202 11.708C28.8283 14.1035 26.8929 16.052 24.498 16.0599L24.1816 16.0608L24.3214 24.8288L18.6586 16.0789L15.3677 16.1674C12.9733 16.1753 11.0248 14.2394 11.0172 11.8435L10.9961 5.42019C10.9885 3.02445 12.9238 1.07687 15.3187 1.06899Z" fill="#FEC900"/>
<path d="M17.9516 14.0839C17.5239 14.079 17.2577 13.6459 17.4425 13.2682C17.7045 12.7325 17.9744 12.2006 18.2412 11.6671C18.4985 11.1523 18.7561 10.6377 19.0134 10.1229C19.0891 9.9714 19.089 9.9709 18.9329 9.91885C18.2249 9.68246 17.5161 9.44861 16.8091 9.20905C16.4471 9.08641 16.4261 8.74072 16.4978 8.37802C16.5387 8.17159 17.068 5.12116 17.2914 3.83208C17.3486 3.50263 17.6329 3.2613 17.9672 3.25863C19.1622 3.24911 21.8106 3.23489 21.9889 3.29506C22.2157 3.37162 22.3435 3.53577 22.3786 3.77139C22.3972 3.89657 22.3558 4.00943 22.3007 4.11937C21.7858 5.14883 21.2713 6.17868 20.7569 7.20827C20.6726 7.37712 20.6727 7.37724 20.846 7.43501C21.5304 7.66301 22.2149 7.89077 22.8992 8.1189C23.3861 8.28115 23.4993 8.75418 23.1372 9.11637C21.5535 10.7005 19.969 12.2839 18.3865 13.8692C18.2597 13.9965 18.1181 14.0783 17.9516 14.0839Z" fill="white"/>
</g>
<defs>
<clipPath id="clip0_8980_98052">
<rect width="65" height="65" fill="white" transform="translate(0.359375)"/>
</clipPath>
</defs>
</svg>
