<svg width="16" height="16" viewBox="0 0 16 16" fill="none" xmlns="http://www.w3.org/2000/svg">
<g clip-path="url(#clip0_8495_79319)">
<path d="M11.643 6.85915C11.9678 6.85915 12.2312 6.59577 12.2312 6.27088C12.2312 5.94599 11.9678 5.68262 11.643 5.68262C11.3181 5.68262 11.0547 5.94599 11.0547 6.27088C11.0547 6.59577 11.3181 6.85915 11.643 6.85915Z" fill="#494949"/>
<path d="M12.9956 1.27028H12.2308V0.682014C12.2308 0.357116 11.9675 0.09375 11.6426 0.09375C11.3177 0.09375 11.0543 0.357116 11.0543 0.682014V1.27028H8.3777V0.682014C8.3777 0.357116 8.11433 0.09375 7.78943 0.09375C7.46454 0.09375 7.20117 0.357116 7.20117 0.682014V1.27028H4.55398V0.682014C4.55398 0.357116 4.29061 0.09375 3.96572 0.09375C3.64082 0.09375 3.37745 0.357116 3.37745 0.682014V1.27028H2.64212C1.34464 1.27028 0.289062 2.32586 0.289062 3.62334V12.8003C0.289062 14.0977 1.34464 15.1533 2.64212 15.1533H7.14234C7.46724 15.1533 7.73061 14.89 7.73061 14.5651C7.73061 14.2402 7.46724 13.9768 7.14234 13.9768H2.64212C1.99338 13.9768 1.46559 13.449 1.46559 12.8003V3.62334C1.46559 2.9746 1.99338 2.44681 2.64212 2.44681H3.37745V3.03507C3.37745 3.35997 3.64082 3.62334 3.96572 3.62334C4.29061 3.62334 4.55398 3.35997 4.55398 3.03507V2.44681H7.20117V3.03507C7.20117 3.35997 7.46454 3.62334 7.78943 3.62334C8.11433 3.62334 8.3777 3.35997 8.3777 3.03507V2.44681H11.0543V3.03507C11.0543 3.35997 11.3177 3.62334 11.6426 3.62334C11.9675 3.62334 12.2308 3.35997 12.2308 3.03507V2.44681H12.9956C13.6443 2.44681 14.1721 2.9746 14.1721 3.62334V6.97644C14.1721 7.30134 14.4355 7.56471 14.7604 7.56471C15.0853 7.56471 15.3486 7.30134 15.3486 6.97644V3.62334C15.3486 2.32586 14.2931 1.27028 12.9956 1.27028Z" fill="#494949"/>
<path d="M11.7895 8.03516C9.82702 8.03516 8.23047 9.63171 8.23047 11.5942C8.23047 13.5566 9.82702 15.1532 11.7895 15.1532C13.7519 15.1532 15.3485 13.5566 15.3485 11.5942C15.3485 9.63171 13.7519 8.03516 11.7895 8.03516ZM11.7895 13.9766C10.4758 13.9766 9.407 12.9079 9.407 11.5942C9.407 10.2804 10.4758 9.21169 11.7895 9.21169C13.1032 9.21169 14.1719 10.2804 14.1719 11.5942C14.1719 12.9079 13.1032 13.9766 11.7895 13.9766Z" fill="#494949"/>
<path d="M12.6444 11.0057H12.3797V10.3881C12.3797 10.0632 12.1163 9.7998 11.7914 9.7998C11.4665 9.7998 11.2031 10.0632 11.2031 10.3881V11.594C11.2031 11.9189 11.4665 12.1823 11.7914 12.1823H12.6444C12.9693 12.1823 13.2326 11.9189 13.2326 11.594C13.2326 11.2691 12.9693 11.0057 12.6444 11.0057Z" fill="#494949"/>
<path d="M9.08436 6.85915C9.40925 6.85915 9.67262 6.59577 9.67262 6.27088C9.67262 5.94599 9.40925 5.68262 9.08436 5.68262C8.75947 5.68262 8.49609 5.94599 8.49609 6.27088C8.49609 6.59577 8.75947 6.85915 9.08436 6.85915Z" fill="#494949"/>
<path d="M6.52576 9.41774C6.85065 9.41774 7.11403 9.15436 7.11403 8.82948C7.11403 8.50459 6.85065 8.24121 6.52576 8.24121C6.20087 8.24121 5.9375 8.50459 5.9375 8.82948C5.9375 9.15436 6.20087 9.41774 6.52576 9.41774Z" fill="#494949"/>
<path d="M3.96717 6.85915C4.29206 6.85915 4.55544 6.59577 4.55544 6.27088C4.55544 5.94599 4.29206 5.68262 3.96717 5.68262C3.64228 5.68262 3.37891 5.94599 3.37891 6.27088C3.37891 6.59577 3.64228 6.85915 3.96717 6.85915Z" fill="#494949"/>
<path d="M3.96717 9.41774C4.29206 9.41774 4.55544 9.15436 4.55544 8.82948C4.55544 8.50459 4.29206 8.24121 3.96717 8.24121C3.64228 8.24121 3.37891 8.50459 3.37891 8.82948C3.37891 9.15436 3.64228 9.41774 3.96717 9.41774Z" fill="#494949"/>
<path d="M3.96717 11.9744C4.29206 11.9744 4.55544 11.711 4.55544 11.3861C4.55544 11.0612 4.29206 10.7979 3.96717 10.7979C3.64228 10.7979 3.37891 11.0612 3.37891 11.3861C3.37891 11.711 3.64228 11.9744 3.96717 11.9744Z" fill="#494949"/>
<path d="M6.52576 11.9744C6.85065 11.9744 7.11403 11.711 7.11403 11.3861C7.11403 11.0612 6.85065 10.7979 6.52576 10.7979C6.20087 10.7979 5.9375 11.0612 5.9375 11.3861C5.9375 11.711 6.20087 11.9744 6.52576 11.9744Z" fill="#494949"/>
<path d="M6.52576 6.85915C6.85065 6.85915 7.11403 6.59577 7.11403 6.27088C7.11403 5.94599 6.85065 5.68262 6.52576 5.68262C6.20087 5.68262 5.9375 5.94599 5.9375 6.27088C5.9375 6.59577 6.20087 6.85915 6.52576 6.85915Z" fill="#494949"/>
</g>
<defs>
<clipPath id="clip0_8495_79319">
<rect width="15.0596" height="15.0596" fill="white" transform="translate(0.289062 0.09375)"/>
</clipPath>
</defs>
</svg>
