<svg width="234" height="164" viewBox="0 0 234 164" fill="none" xmlns="http://www.w3.org/2000/svg">
<g clip-path="url(#clip0_6225_88248)">
<path d="M17.7348 -14.4182V225.97M56.3535 -14.4182V225.97M94.9723 -14.4182V225.97M133.591 -14.4182V225.97M172.21 -14.4182V225.97M210.829 -14.4182V225.97M249.448 -14.4182V225.97M288.066 -14.4182V225.97M326.685 -14.4182V225.97M365.304 -14.4182V225.97M403.923 -14.4182V225.97M0.344727 -14.8262H435.435M0.344727 24.0645H435.435M0.344727 62.9552H435.435M0.344727 101.846H435.435M0.344727 140.737H435.435M0.344727 179.627H435.435M0.344727 218.518H435.435" stroke="url(#paint0_linear_6225_88248)" stroke-opacity="0.4" stroke-width="2"/>
</g>
<path d="M174.771 131.735C173.71 129.025 170.735 127.195 167.408 127.49C166.658 126.536 165.627 125.843 164.461 125.51C163.902 124.648 163.378 123.878 162.863 123.16C161.043 115.644 158.294 108.383 154.68 101.545C154.119 100.484 153.478 99.3796 152.363 98.5052L154.416 94.6013L161.785 104.498L163.661 96.6219L172.463 96.836L163.849 85.39C163.857 85.3517 170.784 51.4794 170.789 51.4536C170.996 50.4551 171.003 49.4255 170.809 48.4245C170.615 47.4235 170.224 46.471 169.658 45.6224C169.093 44.7738 168.364 44.046 167.515 43.4813C166.666 42.9166 165.714 42.5262 164.712 42.3328L153.184 40.1051L154.158 35.7031L128.9 30.5906L128.113 35.2607L119.238 33.5457C118.083 33.32 116.891 33.3627 115.755 33.6703C114.619 33.9779 113.569 34.5423 112.685 35.32C111.285 34.0881 109.486 33.4074 107.621 33.4049C106.345 33.4049 106.232 33.5744 97.3304 35.251C91.2648 25.9637 70.2888 27.3939 67.6187 40.9922L60.6818 42.3326C59.6799 42.5254 58.7263 42.9156 57.8767 43.4805C57.027 44.0454 56.2982 44.7736 55.7326 45.6228C55.1671 46.4721 54.7762 47.4253 54.5826 48.4271C54.389 49.4289 54.3966 50.4591 54.605 51.4579C54.6101 51.4829 61.5404 85.363 61.5462 85.3883L52.931 96.836L61.7319 96.6219L63.6086 104.498L70.9772 94.6012L76.8967 105.857L80.0764 98.2053L89.0586 98.4303L83.4699 89.2588C84.0516 88.3652 84.5107 87.3976 84.8349 86.3818L93.1847 84.5947C93.8885 87.4846 95.198 90.192 97.0267 92.5378C98.8554 94.8835 101.161 96.8141 103.792 98.2016C103.129 98.4606 102.532 98.8655 102.046 99.3864C101.56 99.9074 101.198 100.531 100.985 101.211L99.909 104.627C95.5017 104.883 92.0914 106.695 88.5495 109.453C86.5335 111.022 84.7386 112.678 82.7802 114.265C81.1726 113.554 79.7583 114.121 77.9316 114.531C74.4412 112.28 71.3479 113.86 68.372 116.139C63.9251 119.479 59.0265 122.17 53.8229 124.133L53.4203 125.527C48.5932 142.249 59.5327 153.629 59.8663 154.354C62.3896 152.951 64.0511 152.431 79.1635 143.402C79.9547 142.929 81.7281 141.869 82.5622 140.038C83.7073 139.444 84.9587 138.567 85.6327 137.046C85.8338 136.927 86.035 136.81 86.2364 136.692C89.0062 137.589 91.9076 138.014 94.8185 137.947C96.1194 138.694 97.637 138.973 99.1184 138.736C100.6 138.5 101.955 137.763 102.959 136.648C105.028 136.618 106.91 136.487 108.381 135.658C108.928 135.351 109.387 134.909 109.715 134.374C110.044 133.84 110.231 133.231 110.259 132.605C110.469 132.185 110.634 131.743 110.751 131.288C112.229 130.544 113.23 129.49 113.292 127.809C113.692 127.071 113.982 126.279 114.153 125.457C117.039 123.609 117.704 120.39 117.014 118.683C117.679 118.118 118.121 117.335 118.261 116.474C119.12 115.364 119.579 113.996 119.563 112.592C119.864 113.524 120.347 114.386 120.984 115.129L121.021 115.176C122.489 117.053 123.114 118.785 123.473 119.52L123.713 119.824C125.881 122.57 127.26 126.503 130.539 129.38C133.365 131.858 139.787 134.518 143.298 135.819C143.886 136.57 144.52 137.413 145.162 138.352C144.935 140.456 146.008 141.874 147.328 143.347C145.988 149.331 149.425 150.541 151.196 152.736C158.265 153.445 158.674 152.244 172.455 151.202C172.753 149.933 174.933 144.013 175.239 135.364C175.278 134.284 175.276 133.023 174.771 131.735Z" fill="white"/>
<path d="M130.261 40.3113L131.308 34.0938L150.621 38.003L149.263 44.1455L147.222 43.6383L147.966 39.5705L133.062 36.6883L132.091 40.6883L130.261 40.3113Z" fill="#1D1D3D"/>
<path d="M114.968 76.9101L69.8126 86.5747C69.2023 86.7054 68.5722 86.7141 67.9585 86.6004C67.3449 86.4867 66.7597 86.2528 66.2367 85.9122C65.7137 85.5715 65.2632 85.1309 64.9111 84.6156C64.559 84.1003 64.3122 83.5204 64.185 82.9094L59.5169 60.5329L57.4984 50.8552C57.3707 50.2402 57.3665 49.6059 57.4861 48.9892C57.6056 48.3725 57.8465 47.7857 58.1948 47.2629C58.543 46.7401 58.9917 46.2917 59.5148 45.9438C60.0378 45.5959 60.6247 45.3554 61.2415 45.2362L106.716 36.449C107.942 36.2128 109.211 36.4693 110.248 37.1627C111.285 37.8562 112.008 38.9307 112.258 40.1532L113.84 47.9031L118.616 71.33C118.867 72.5532 118.624 73.8261 117.941 74.8713C117.258 75.9165 116.189 76.6493 114.968 76.9101Z" fill="#FF605B"/>
<path d="M70.4275 44.984C70.4275 44.984 68.5514 35.4165 80.3538 32.6951C80.3538 32.6951 93.7229 29.7534 96.2202 40.1019L92.4923 41.2989C92.4923 41.2989 93.6341 32.8421 81.2364 34.2485C81.2364 34.2485 72.1993 35.0815 73.7959 44.2041L70.4275 44.984Z" fill="#C72F55"/>
<path d="M110.978 49.7208L88.5498 63.9805L63.0342 60.9492C62.0095 60.8274 61.0489 60.3869 60.288 59.6897C59.5271 58.9926 59.0044 58.0741 58.7937 57.0639L57.4984 50.8537C57.3707 50.2386 57.3665 49.6043 57.4861 48.9876C57.6056 48.3709 57.8465 47.7841 58.1948 47.2613C58.543 46.7385 58.9917 46.2901 59.5148 45.9422C60.0378 45.5943 60.6247 45.3538 61.2415 45.2347L106.717 36.4474C107.942 36.2106 109.211 36.4669 110.249 37.1604C111.286 37.854 112.008 38.9289 112.258 40.1516L113.161 44.5793C113.361 45.5566 113.259 46.5714 112.869 47.4895C112.479 48.4075 111.82 49.1856 110.978 49.7208Z" fill="#C72F55"/>
<path d="M84.0801 60.9945L85.2941 66.4913L92.2366 65.0293L90.9766 59.5508L84.0801 60.9945Z" fill="#EAE5DB"/>
<path d="M66.163 84.1699L58.9668 93.7322L64.0528 93.6087L65.0173 97.6559L70.9278 89.7177L66.163 84.1699Z" fill="#C72F55"/>
<path d="M78.5442 86.8574L83.713 95.3397L78.124 95.1997L76.5825 98.9092L72.1475 90.4762L78.5442 86.8574Z" fill="#C72F55"/>
<path d="M82.4562 82.6834C82.4565 85.105 81.495 87.4275 79.7831 89.1402C78.0712 90.8529 75.7491 91.8155 73.3275 91.8164C71.7969 91.8172 70.2907 91.4328 68.9477 90.6986C67.6047 89.9644 66.4681 88.904 65.6425 87.6152C61.7825 81.6248 66.0467 73.5547 73.3275 73.5547C74.5265 73.554 75.7139 73.7897 76.8217 74.2482C77.9296 74.7067 78.9362 75.3791 79.784 76.2269C80.6318 77.0748 81.3042 78.0814 81.7627 79.1892C82.2212 80.297 82.4569 81.4844 82.4562 82.6834Z" fill="#FFB020"/>
<path d="M81.928 79.6099L70.2535 91.2845C68.3527 90.6049 66.7308 89.3144 65.6416 87.6148L78.2584 74.998C79.954 76.0915 81.2434 77.712 81.928 79.6099Z" fill="#FFC269"/>
<path d="M110.425 76.9085L155.58 86.5731C156.191 86.7038 156.821 86.7125 157.434 86.5988C158.048 86.4851 158.633 86.2512 159.156 85.9106C159.679 85.5699 160.13 85.1293 160.482 84.614C160.834 84.0987 161.081 83.5188 161.208 82.9078L165.876 60.5312L167.895 50.8536C168.022 50.2386 168.026 49.6043 167.907 48.9876C167.787 48.3709 167.546 47.7841 167.198 47.2613C166.85 46.7385 166.401 46.2901 165.878 45.9422C165.355 45.5943 164.768 45.3538 164.151 45.2346L118.677 36.4474C117.451 36.2106 116.182 36.4669 115.144 37.1605C114.107 37.8541 113.385 38.929 113.135 40.1518L111.553 47.9015L106.777 71.3284C106.526 72.5516 106.769 73.8245 107.452 74.8697C108.135 75.9149 109.204 76.6477 110.425 76.9085Z" fill="#00ABFE"/>
<path d="M124.426 56.3993L136.844 63.9805H151.929C154.813 63.9805 157.639 63.1673 160.082 61.6342C162.525 60.1012 164.486 57.9103 165.741 55.3132L167.895 50.8537C168.023 50.2386 168.027 49.6043 167.907 48.9876C167.788 48.3709 167.547 47.7841 167.199 47.2613C166.85 46.7385 166.402 46.2901 165.879 45.9422C165.356 45.5943 164.769 45.3538 164.152 45.2347L118.677 36.4474C117.451 36.2106 116.182 36.4669 115.145 37.1604C114.107 37.854 113.385 38.9289 113.136 40.1516L113.892 42.7003C115.586 48.4131 119.34 53.2943 124.426 56.3993Z" fill="#A369F7"/>
<path d="M141.314 60.9945L140.1 66.4913L133.157 65.0293L134.417 59.5508L141.314 60.9945Z" fill="#EAE5DB"/>
<path d="M159.23 84.1699L166.427 93.7322L161.341 93.6087L160.376 97.6559L154.466 89.7177L159.23 84.1699Z" fill="#C72F55"/>
<path d="M146.849 86.8574L141.681 95.3397L147.27 95.1997L148.811 98.9092L153.246 90.4762L146.849 86.8574Z" fill="#C72F55"/>
<path d="M152.067 91.8161C150.413 91.815 148.791 91.3648 147.374 90.5136C145.956 89.6624 144.796 88.4422 144.018 86.9832C143.24 85.5242 142.873 83.8813 142.956 82.2299C143.039 80.5785 143.568 78.9806 144.489 77.6068C145.409 76.2331 146.685 75.1351 148.181 74.43C149.676 73.725 151.335 73.4394 152.981 73.6038C154.626 73.7682 156.196 74.3764 157.522 75.3634C158.849 76.3505 159.883 77.6793 160.513 79.208C162.97 85.1237 158.629 91.8161 152.067 91.8161Z" fill="#FFB020"/>
<path d="M160.512 79.2084L148.591 91.1293C146.735 90.3628 145.182 89.0063 144.174 87.2695L156.652 74.791C158.391 75.7972 159.748 77.3504 160.512 79.2084Z" fill="#FFC269"/>
<path d="M57.6464 129.898C67.5949 126.146 77.1746 121.481 86.2631 115.963C87.1383 115.431 88.0233 114.886 89.0093 114.609C89.9953 114.333 91.1155 114.359 91.9718 114.92C94.6229 113.661 97.4842 112.904 100.411 112.687C101.862 112.569 103.399 112.591 104.67 113.302C105.996 114.044 106.849 115.46 107.199 116.94C107.548 118.419 107.449 119.967 107.247 121.474C106.73 125.319 105.558 129.041 104.391 132.742C101.522 134.099 98.4077 134.862 95.236 134.983C92.0642 135.103 88.9009 134.58 85.9371 133.445C77.7181 138.207 69.6628 143.252 61.4422 148.719C58.9287 144.438 57.4603 139.624 57.1562 134.67C57.0598 133.071 57.094 131.421 57.6464 129.898Z" fill="#FFAD92"/>
<path d="M124.098 67.1172L129.19 72.2092L105.903 95.4955L100.811 90.4035L124.098 67.1172Z" fill="#EAE5DB"/>
<path d="M107.68 95.3066L105.829 101.974L109.43 103.101L111.344 96.7275L107.68 95.3066Z" fill="#B2ACA3"/>
<path d="M131.328 78.1834C131.025 74.6525 129.682 71.2907 127.469 68.5232C125.255 65.7556 122.271 63.7066 118.893 62.6353C115.515 61.5639 111.895 61.5183 108.491 62.5043C105.087 63.4903 102.052 65.4636 99.7701 68.1746C97.4878 70.8856 96.0607 74.2125 95.6692 77.7346C95.2778 81.2567 95.9396 84.8158 97.571 87.9617C99.2024 91.1076 101.73 93.6991 104.834 95.4084C107.939 97.1177 111.48 97.8681 115.011 97.5645C117.355 97.3635 119.636 96.7026 121.725 95.6198C123.814 94.5369 125.668 93.0533 127.184 91.2535C128.699 89.4538 129.845 87.3732 130.556 85.1306C131.267 82.888 131.529 80.5273 131.328 78.1834ZM125.216 88.9675C123.682 90.9137 121.688 92.448 119.413 93.4321C117.139 94.4162 114.655 94.8193 112.186 94.6052C109.717 94.391 107.34 93.5663 105.269 92.2053C103.198 90.8443 101.498 88.9897 100.322 86.8083C99.1459 84.627 98.5305 82.1874 98.5314 79.7092C98.5323 77.231 99.1494 74.7919 100.327 72.6114C101.505 70.4309 103.206 68.5775 105.278 67.218C107.35 65.8585 109.728 65.0355 112.197 64.8231C125.275 63.703 133.244 78.7834 125.216 88.9675Z" fill="#FFB020"/>
<path d="M109.809 102.017L106.043 100.908C105.588 100.774 105.099 100.824 104.68 101.047C104.262 101.27 103.948 101.648 103.805 102.1L94.6443 131.17C94.358 132.078 94.4427 133.063 94.8799 133.91C95.3171 134.756 96.0713 135.395 96.9779 135.687C97.886 135.98 98.8731 135.901 99.7232 135.468C100.573 135.035 101.217 134.282 101.514 133.375L111.018 104.315C111.093 104.085 111.122 103.842 111.101 103.601C111.081 103.36 111.012 103.125 110.9 102.91C110.787 102.696 110.632 102.506 110.445 102.353C110.258 102.199 110.041 102.085 109.809 102.017Z" fill="#A369F7"/>
<path d="M113.942 70.5294C113.476 72.3972 112.299 75.5478 109.466 77.2675C109.379 77.3204 109.311 77.3994 109.272 77.4933C109.233 77.5871 109.225 77.6909 109.249 77.7898C109.272 77.8887 109.327 77.9775 109.404 78.0435C109.481 78.1095 109.577 78.1494 109.679 78.1573C111.57 78.3262 114.035 79.0318 115.065 81.4312C115.102 81.5203 115.165 81.5964 115.245 81.6494C115.325 81.7025 115.42 81.7301 115.516 81.7286C115.613 81.7272 115.706 81.6968 115.785 81.6414C115.864 81.5859 115.924 81.508 115.958 81.4178C116.487 80.0043 117.659 78.1473 120.253 76.9962C120.337 76.9601 120.409 76.9008 120.46 76.8253C120.511 76.7498 120.54 76.6612 120.543 76.5699C120.546 76.4786 120.522 76.3885 120.475 76.31C120.429 76.2316 120.361 76.1681 120.279 76.127C118.904 75.4433 116.522 73.8413 114.841 70.4419C114.798 70.3533 114.729 70.2799 114.643 70.2316C114.557 70.1834 114.459 70.1626 114.361 70.1722C114.263 70.1817 114.17 70.2211 114.095 70.285C114.02 70.3489 113.967 70.4342 113.942 70.5294Z" fill="#FFB020"/>
<path d="M105.533 83.6051C105.05 84.7468 104.27 86.1509 103.152 86.8863C103.078 86.933 103.019 86.9997 102.981 87.0786C102.943 87.1575 102.928 87.2455 102.937 87.3326C102.947 87.4196 102.981 87.5022 103.036 87.5708C103.09 87.6394 103.163 87.6914 103.245 87.7207C104.244 88.0763 105.57 88.7246 106.229 89.7987C106.27 89.8719 106.331 89.9326 106.404 89.9744C106.477 90.0162 106.56 90.0377 106.644 90.0364C106.728 90.0352 106.81 90.0114 106.882 89.9675C106.954 89.9236 107.012 89.8612 107.052 89.7868C107.524 88.8368 108.213 88.0108 109.062 87.375C109.135 87.3248 109.192 87.2551 109.226 87.1739C109.261 87.0927 109.272 87.0034 109.258 86.9162C109.244 86.829 109.205 86.7476 109.147 86.6814C109.089 86.6152 109.013 86.5668 108.928 86.542C107.997 86.255 106.914 85.513 106.413 83.6718C106.389 83.5776 106.336 83.4934 106.261 83.4309C106.186 83.3685 106.094 83.331 105.997 83.3236C105.9 83.3162 105.803 83.3394 105.72 83.3899C105.637 83.4404 105.572 83.5156 105.533 83.6051Z" fill="#FFB020"/>
<path d="M92.7261 123.567C98.554 121.877 103.66 118.308 107.248 113.415C109.771 112.673 112.166 111.393 113.798 109.383C114.733 108.247 115.343 106.878 115.562 105.423C115.598 105.125 115.548 104.823 115.418 104.552C115.287 104.282 115.081 104.055 114.825 103.899C114.568 103.742 114.272 103.663 113.972 103.67C113.672 103.678 113.38 103.772 113.132 103.94C110.936 105.375 105.701 107.081 103.627 107.364C99.9642 107.864 97.0317 106.596 90.3655 111.786C87.8969 113.707 85.626 115.895 82.9568 117.872C82.167 118.999 81.3692 120.142 80.8794 121.428C80.3896 122.715 80.2325 124.182 80.7408 125.461C81.1955 126.514 81.9833 127.387 82.983 127.948C83.6206 128.344 84.3409 128.588 85.0881 128.661C87.2518 128.822 89.0766 127.168 90.6076 125.63C91.4016 124.833 92.0456 123.762 92.7261 123.567Z" fill="#FFAD92"/>
<path d="M84.8447 130.617C84.8381 130.617 84.8315 130.617 84.8249 130.617C84.6592 130.611 84.5024 130.541 84.3889 130.42C84.2753 130.299 84.2144 130.138 84.2195 129.972C84.274 128.216 84.0988 126.461 83.6982 124.75C83.6794 124.67 83.6766 124.587 83.6898 124.506C83.7031 124.425 83.7322 124.348 83.7755 124.278C83.8187 124.208 83.8753 124.148 83.942 124.1C84.0087 124.052 84.0841 124.018 84.1641 123.999C84.244 123.98 84.3268 123.977 84.4079 123.991C84.4889 124.004 84.5665 124.033 84.6362 124.076C84.706 124.12 84.7665 124.176 84.8144 124.243C84.8623 124.31 84.8965 124.385 84.9152 124.465C85.3407 126.282 85.5268 128.146 85.4691 130.011C85.464 130.173 85.396 130.327 85.2795 130.44C85.1629 130.553 85.007 130.617 84.8447 130.617Z" fill="#ED6C4D"/>
<path d="M116.496 111.251C116.286 109.846 115.884 109.119 113.491 108.613C110.932 109.536 108.51 110.805 106.294 112.383C105.191 113.168 104.106 114.078 103.569 115.321C102.977 116.687 103.325 118.228 104.219 118.923C103.422 119.229 102.689 119.681 102.059 120.256C100.826 121.475 100.894 123.05 101.599 123.718C100.739 124.119 99.9925 124.73 99.4287 125.493C99.3088 125.663 99.2002 125.841 99.1037 126.026C98.7588 126.693 98.6637 127.643 99.1838 128.123C99.0337 128.176 98.8838 128.231 98.7338 128.291C98.6763 128.313 98.6163 128.338 98.5588 128.361C98.086 128.531 97.6608 128.812 97.3188 129.181C96.9563 129.611 96.8037 130.263 97.0962 130.746C97.3362 131.141 98.5121 131.937 98.9187 132.161C100.644 133.108 102.731 133.003 104.694 132.858C105.339 132.811 106.006 132.753 106.569 132.438C106.914 132.219 107.211 131.931 107.442 131.593C107.672 131.254 107.831 130.873 107.909 130.471C108.013 129.988 108.06 129.495 108.051 129.001C108.051 128.788 108.044 128.573 108.034 128.361C108.596 128.237 109.129 128.004 109.601 127.676C109.77 127.553 109.926 127.415 110.069 127.263C110.609 126.668 110.992 125.947 111.184 125.166C111.329 124.591 111.419 124.005 111.454 123.413C111.471 123.178 111.484 122.943 111.494 122.708C111.499 122.706 111.506 122.703 111.511 122.701C113.116 121.922 113.526 121.173 113.651 119.441C113.704 118.74 113.674 118.035 113.561 117.341C113.526 117.121 113.484 116.903 113.431 116.686C113.836 116.428 114.231 116.157 114.616 115.871C114.781 115.748 114.949 115.621 115.109 115.486C116.436 114.387 116.823 113.357 116.496 111.251Z" fill="#FFAD92"/>
<path d="M77.1498 117.742L80.4905 116.981C81.4986 116.751 82.2122 116.89 82.4188 118.6C82.6266 120.321 82.6913 122.055 82.7558 123.787C82.8836 127.216 83.0113 130.646 83.1391 134.076C83.1946 134.623 83.1436 135.176 82.9889 135.704C82.5592 136.877 81.2398 137.42 80.0561 137.947C80.061 139.27 78.7834 140.186 77.6477 140.865C72.1549 144.147 66.662 147.429 60.7268 150.559C55.686 143.785 53.8403 134.734 56.2612 126.348C61.2342 124.378 65.9129 121.734 70.1659 118.49C72.6279 116.611 75.0973 115.282 77.1498 117.742Z" fill="#FF605B"/>
<path d="M78.8553 136.321C77.2269 130.793 76.5147 125.036 76.747 119.278C76.7536 119.112 76.8258 118.956 76.9476 118.843C77.0694 118.731 77.2309 118.672 77.3965 118.678C77.5622 118.685 77.7184 118.757 77.8308 118.879C77.9432 119.001 78.0027 119.162 77.996 119.328C77.7692 124.95 78.4646 130.571 80.0545 135.968C80.101 136.127 80.0825 136.298 80.0031 136.443C79.9237 136.588 79.7899 136.696 79.631 136.743C79.4721 136.79 79.3012 136.772 79.1558 136.692C79.0103 136.613 78.9022 136.479 78.8553 136.321Z" fill="#C72F55"/>
<path d="M79.826 121.41C80.4078 121.41 80.8795 120.938 80.8795 120.356C80.8795 119.774 80.4078 119.303 79.826 119.303C79.2441 119.303 78.7725 119.774 78.7725 120.356C78.7725 120.938 79.2441 121.41 79.826 121.41Z" fill="#FFB020"/>
<path d="M90.6075 126.256C90.4839 126.256 90.3632 126.219 90.2605 126.15C90.1577 126.082 90.0776 125.984 90.0302 125.87C89.9829 125.756 89.9703 125.631 89.9942 125.51C90.0182 125.388 90.0774 125.277 90.1646 125.19C90.4076 124.946 90.6436 124.664 90.8719 124.392C91.4077 123.753 91.9139 123.15 92.5537 122.967C98.2516 121.323 103.242 117.834 106.743 113.047C106.824 112.936 106.94 112.854 107.072 112.816C109.766 112.023 111.924 110.7 113.313 108.989C113.417 108.861 113.568 108.78 113.733 108.763C113.897 108.746 114.062 108.795 114.19 108.9C114.319 109.004 114.401 109.155 114.418 109.319C114.435 109.484 114.387 109.648 114.283 109.777C112.77 111.641 110.472 113.082 107.628 113.954C103.968 118.879 98.7937 122.467 92.8982 124.168C92.6259 124.246 92.2028 124.751 91.8295 125.195C91.5844 125.488 91.331 125.79 91.0503 126.072C90.9923 126.13 90.9233 126.176 90.8473 126.208C90.7713 126.24 90.6898 126.256 90.6075 126.256Z" fill="#ED6C4D"/>
<path d="M98.6183 132.71C98.1431 132.449 96.885 131.605 96.561 131.071C96.3666 130.706 96.289 130.291 96.339 129.881C96.3889 129.471 96.5638 129.086 96.84 128.779C97.2973 128.291 97.8689 127.924 98.5033 127.712C98.6575 127.651 98.8296 127.654 98.9817 127.72C99.1337 127.786 99.2533 127.909 99.3141 128.064C99.375 128.218 99.3721 128.39 99.306 128.542C99.24 128.694 99.1163 128.814 98.9621 128.874C98.5224 129.014 98.1227 129.258 97.7963 129.584C97.6915 129.693 97.6201 129.83 97.5906 129.979C97.5611 130.128 97.5747 130.282 97.6298 130.423C97.786 130.68 98.8905 131.433 99.2204 131.615C100.737 132.448 102.575 132.389 104.647 132.236C105.191 132.196 105.807 132.15 106.262 131.894C106.334 131.854 106.412 131.828 106.494 131.818C106.575 131.808 106.658 131.815 106.737 131.837C106.816 131.859 106.89 131.896 106.955 131.947C107.019 131.998 107.073 132.061 107.113 132.132C107.154 132.204 107.18 132.283 107.189 132.364C107.199 132.446 107.193 132.528 107.171 132.607C107.149 132.686 107.111 132.76 107.061 132.825C107.01 132.889 106.947 132.943 106.875 132.984C106.177 133.376 105.38 133.435 104.739 133.483C102.677 133.635 100.485 133.736 98.6183 132.71Z" fill="#ED6C4D"/>
<path d="M109.6 127.676C109.128 128.005 108.595 128.237 108.033 128.361C108.043 128.573 108.05 128.788 108.05 129.001C107.642 129.089 107.229 129.156 106.813 129.201C105.833 129.315 104.847 129.372 103.86 129.371C102.552 129.371 101.246 129.271 99.953 129.073C99.4143 128.987 98.9192 128.852 98.5579 128.361C98.0279 127.656 98.1154 126.568 98.5479 125.736C98.6247 125.589 98.7564 125.479 98.9144 125.429C99.0724 125.38 99.2436 125.395 99.3905 125.471C99.4035 125.478 99.416 125.485 99.4279 125.493C99.5636 125.575 99.663 125.705 99.7057 125.858C99.7485 126.01 99.7314 126.173 99.6579 126.313C99.3955 126.818 99.338 127.518 99.6754 127.716C99.9723 127.89 103.196 128.361 106.67 127.961C106.923 127.931 107.178 127.898 107.43 127.851C108.075 127.763 108.691 127.531 109.233 127.171C109.359 127.08 109.514 127.039 109.668 127.056C109.823 127.073 109.965 127.147 110.068 127.263C109.925 127.415 109.769 127.553 109.6 127.676Z" fill="#ED6C4D"/>
<path d="M113.651 119.441C113.527 121.153 113.139 121.912 111.511 122.701C111.506 122.704 111.499 122.706 111.494 122.709C111.484 122.944 111.471 123.179 111.454 123.414C108.926 124.546 106.154 124.754 103.676 124.754C102.841 124.754 102.057 124.793 101.431 124.381C101.362 124.337 101.303 124.279 101.257 124.211C101.211 124.143 101.178 124.067 101.162 123.986C101.145 123.906 101.144 123.823 101.159 123.742C101.175 123.662 101.206 123.585 101.251 123.516C101.605 122.986 102.133 123.365 102.294 123.419C102.775 123.576 107.896 123.774 111.239 122.139C112.568 121.492 112.821 120.963 112.966 119.974C112.988 119.813 113.072 119.668 113.2 119.568C113.328 119.469 113.49 119.423 113.651 119.441Z" fill="#ED6C4D"/>
<path d="M114.616 115.872C114.231 116.157 113.836 116.428 113.431 116.687C113.483 116.904 113.526 117.122 113.561 117.342C111.859 118.405 110.017 119.225 108.088 119.777C107.418 119.985 106.722 120.099 106.021 120.117C105.282 120.138 104.556 119.924 103.948 119.504C103.881 119.457 103.824 119.396 103.781 119.327C103.737 119.257 103.708 119.179 103.694 119.098C103.681 119.017 103.683 118.934 103.702 118.854C103.72 118.774 103.755 118.698 103.802 118.632C103.85 118.565 103.911 118.508 103.981 118.465C104.051 118.421 104.128 118.392 104.209 118.379C104.291 118.366 104.374 118.369 104.454 118.388C104.534 118.407 104.609 118.441 104.676 118.489C105.516 119.085 106.751 118.86 107.743 118.577C109.538 118.064 111.253 117.304 112.838 116.319C113.318 116.024 113.786 115.708 114.243 115.369C114.374 115.272 114.538 115.23 114.7 115.252C114.861 115.274 115.008 115.358 115.108 115.487C114.948 115.622 114.781 115.749 114.616 115.872Z" fill="#ED6C4D"/>
<path d="M164.391 131.006C160.974 135.928 155.524 139.293 149.684 140.068C148.363 137.687 146.828 135.431 145.099 133.328C141.828 132.149 135.088 129.435 132.489 127.156C129.671 124.683 128.359 120.936 126.034 117.991C125.344 116.335 124.443 114.776 123.351 113.353C122.836 112.698 122.244 111.963 122.364 111.138C122.501 110.191 123.594 109.623 124.544 109.741C125.494 109.856 126.304 110.468 127.016 111.106C128.45 112.398 129.716 113.864 130.786 115.471C131.026 115.826 131.256 116.183 131.476 116.548C131.391 116.116 131.296 115.696 131.194 115.286C130.707 113.396 130.063 111.551 129.269 109.768C125.102 101.66 122.024 94.8223 121.869 94.2581C121.601 93.2981 121.954 92.0031 122.936 91.8331C123.736 91.6931 124.426 92.3681 124.956 92.9856C127.316 95.7481 129.575 98.5931 131.734 101.521C131.884 101.721 132.029 101.921 132.176 102.121C132.334 101.981 132.491 101.843 132.656 101.711C133.216 101.218 133.869 100.841 134.576 100.603C135.295 100.395 136.06 100.408 136.771 100.641C136.951 100.699 137.127 100.771 137.296 100.856C137.449 100.711 137.612 100.577 137.784 100.456C138.392 100.005 139.105 99.7159 139.855 99.6145C140.606 99.5131 141.37 99.6029 142.076 99.8756C142.288 99.9649 142.492 100.074 142.684 100.201C142.841 100.112 143.004 100.034 143.171 99.9656C144.661 99.3531 146.304 99.5881 147.786 99.8531C148.719 100.021 149.689 100.203 150.451 100.766C151.184 101.301 151.644 102.123 152.066 102.926C155.657 109.718 158.365 116.941 160.124 124.421C161.701 126.561 163.046 128.783 164.391 131.006Z" fill="#FFAD92"/>
<path d="M166.07 130.866C165.514 129.83 164.846 128.7 163.717 128.371C162.224 127.936 160.789 129.101 159.621 130.126C156.667 132.719 153.412 134.949 149.928 136.768C149.226 137.134 148.454 137.55 148.187 138.296C147.906 139.082 148.302 139.956 148.833 140.601C149.364 141.245 150.039 141.777 150.4 142.704C150.34 145.625 148.395 145.872 152.542 149.919C156.602 150.403 166.135 148.578 170.197 148.361C171.426 144.096 172.127 139.695 172.285 135.259C172.314 134.433 172.32 133.582 172.019 132.813C171.202 130.73 168.334 129.779 166.07 130.866Z" fill="#FF605B"/>
<path d="M151.683 142.54C151.652 142.464 151.636 142.382 151.636 142.3C151.636 142.218 151.652 142.137 151.684 142.061C151.716 141.985 151.762 141.917 151.82 141.859C151.878 141.801 151.947 141.755 152.023 141.724C157.151 139.615 161.413 135.51 165.173 131.888C165.232 131.831 165.302 131.786 165.378 131.756C165.455 131.726 165.536 131.711 165.618 131.713C165.701 131.715 165.781 131.732 165.857 131.765C165.932 131.798 166 131.845 166.057 131.904C166.114 131.963 166.159 132.033 166.189 132.11C166.219 132.186 166.233 132.268 166.232 132.35C166.23 132.432 166.212 132.513 166.18 132.588C166.147 132.663 166.099 132.731 166.04 132.788C162.199 136.488 157.846 140.681 152.498 142.88C152.423 142.911 152.341 142.927 152.259 142.927C152.177 142.927 152.096 142.91 152.02 142.879C151.944 142.847 151.876 142.801 151.818 142.743C151.76 142.685 151.714 142.616 151.683 142.54Z" fill="#C72F55"/>
<path d="M163.487 130.811C162.75 130.373 162.033 130.261 161.767 131.029C161.689 131.26 161.688 131.509 161.764 131.741C161.839 131.972 161.987 132.174 162.185 132.315C162.39 132.446 162.634 132.501 162.876 132.471C163.117 132.441 163.34 132.327 163.507 132.15C163.825 131.784 163.887 131.05 163.487 130.811Z" fill="#FFB020"/>
<path d="M134.876 109.964C134.822 109.807 134.832 109.635 134.904 109.486C134.976 109.337 135.105 109.223 135.261 109.168C139.141 107.818 142.863 106.051 146.362 103.899C146.432 103.856 146.51 103.828 146.591 103.815C146.672 103.802 146.755 103.805 146.835 103.824C146.915 103.843 146.99 103.877 147.057 103.925C147.123 103.973 147.18 104.034 147.223 104.104C147.266 104.174 147.294 104.252 147.307 104.333C147.32 104.414 147.317 104.497 147.298 104.577C147.279 104.657 147.244 104.732 147.196 104.798C147.148 104.865 147.087 104.921 147.017 104.964C143.441 107.163 139.637 108.969 135.672 110.349C135.516 110.403 135.344 110.393 135.195 110.321C135.045 110.249 134.931 110.12 134.876 109.964Z" fill="#ED6C4D"/>
<path d="M133.856 121.608C133.705 121.678 133.533 121.685 133.378 121.628C133.222 121.57 133.095 121.454 133.026 121.303L130.658 116.173C130.605 116.057 130.589 115.928 130.612 115.802C130.634 115.676 130.695 115.561 130.786 115.471C131.026 115.826 131.256 116.183 131.476 116.548C131.391 116.116 131.296 115.696 131.193 115.286C131.318 115.28 131.442 115.311 131.549 115.376C131.656 115.441 131.741 115.537 131.793 115.651L134.161 120.781C134.195 120.855 134.214 120.936 134.218 121.017C134.221 121.099 134.208 121.181 134.18 121.258C134.151 121.335 134.108 121.405 134.053 121.465C133.997 121.525 133.93 121.574 133.856 121.608Z" fill="#ED6C4D"/>
<path d="M135.258 106.651C135.117 106.738 134.948 106.765 134.787 106.727C134.626 106.689 134.486 106.589 134.398 106.449C133.539 105.054 132.609 103.704 131.611 102.404C131.51 102.272 131.465 102.106 131.487 101.941C131.508 101.777 131.594 101.628 131.726 101.526C131.728 101.524 131.731 101.524 131.733 101.521C131.883 101.721 132.028 101.921 132.176 102.121C132.333 101.981 132.491 101.844 132.656 101.711C133.653 103.019 134.598 104.391 135.463 105.791C135.507 105.861 135.535 105.939 135.548 106.02C135.561 106.101 135.558 106.184 135.539 106.264C135.52 106.344 135.486 106.419 135.437 106.486C135.389 106.552 135.328 106.609 135.258 106.651Z" fill="#ED6C4D"/>
<path d="M140.38 103.707C140.256 103.817 140.094 103.873 139.928 103.864C139.763 103.854 139.608 103.779 139.498 103.655C138.75 102.811 137.905 102.06 136.98 101.417C136.86 101.333 136.773 101.209 136.735 101.068C136.696 100.926 136.709 100.775 136.77 100.642C136.951 100.7 137.126 100.772 137.295 100.857C137.448 100.712 137.611 100.578 137.783 100.457C138.756 101.141 139.645 101.936 140.433 102.827C140.487 102.888 140.529 102.959 140.556 103.037C140.583 103.114 140.594 103.196 140.589 103.278C140.585 103.36 140.564 103.44 140.528 103.513C140.492 103.587 140.442 103.653 140.38 103.707Z" fill="#ED6C4D"/>
<path d="M144.794 102.287C144.739 102.348 144.672 102.397 144.598 102.432C144.524 102.467 144.443 102.487 144.361 102.491C144.279 102.495 144.197 102.483 144.12 102.455C144.043 102.427 143.972 102.385 143.911 102.329L142.146 100.727C142.029 100.621 141.957 100.474 141.944 100.316C141.931 100.158 141.978 100.001 142.076 99.877C142.288 99.9663 142.492 100.075 142.684 100.202C142.841 100.114 143.004 100.035 143.171 99.967L144.751 101.404C144.812 101.46 144.861 101.526 144.896 101.6C144.931 101.675 144.951 101.755 144.955 101.837C144.959 101.919 144.947 102.001 144.919 102.078C144.892 102.155 144.849 102.226 144.794 102.287Z" fill="#ED6C4D"/>
<defs>
<linearGradient id="paint0_linear_6225_88248" x1="217.89" y1="-14.8262" x2="217.89" y2="225.97" gradientUnits="userSpaceOnUse">
<stop stop-color="#E4E4E4"/>
<stop offset="1" stop-color="#E5E7ED" stop-opacity="0"/>
</linearGradient>
<clipPath id="clip0_6225_88248">
<rect width="233" height="163" fill="white" transform="translate(0.344727 0.431641)"/>
</clipPath>
</defs>
</svg>
