<svg width="234" height="163" viewBox="0 0 234 163" fill="none" xmlns="http://www.w3.org/2000/svg">
<g clip-path="url(#clip0_6225_88221)">
<path d="M17.7387 -14.8401V225.548M56.3574 -14.8401V225.548M94.9762 -14.8401V225.548M133.595 -14.8401V225.548M172.214 -14.8401V225.548M210.833 -14.8401V225.548M249.452 -14.8401V225.548M288.07 -14.8401V225.548M326.689 -14.8401V225.548M365.308 -14.8401V225.548M403.927 -14.8401V225.548M0.348633 -15.248H435.439M0.348633 23.6426H435.439M0.348633 62.5333H435.439M0.348633 101.424H435.439M0.348633 140.315H435.439M0.348633 179.206H435.439M0.348633 218.096H435.439" stroke="url(#paint0_linear_6225_88221)" stroke-opacity="0.4" stroke-width="2"/>
</g>
<path d="M176.831 52.2827C173.792 49.1104 169.497 49.7757 169.076 49.686L159.069 58.2924C159.923 50.1969 160.046 46.225 160.16 43.7371L78.7079 36.4551C78.5692 37.214 72.5647 90.5872 54.3486 137.669C55.1112 137.762 81.7954 146.407 129.921 146.407L131.925 146.397C132.663 144.918 146.982 127.806 155.461 82.909L173.506 65.8403L179.292 60.3629C179.374 57.4966 179.161 54.7155 176.831 52.2827Z" fill="white"/>
<path d="M81.2692 39.6484L157.084 46.4266C157.084 46.4266 154.31 107.894 130.348 143.454C130.348 143.454 88.2319 143.705 58.2988 135.672C58.2988 135.672 73.9671 95.6039 81.2692 39.6484Z" fill="#EAE5DB"/>
<path d="M127.829 74.557C119.559 82.8675 105.927 80.7455 101.133 70.5281C98.4657 64.8263 99.2233 57.7057 103.646 52.3805C109.672 45.1241 120.213 43.9373 127.194 49.7311C134.665 55.9316 134.915 67.471 127.829 74.557Z" fill="#1977F3"/>
<path d="M127.829 74.5568C119.559 82.8673 105.927 80.7453 101.133 70.5279C101.159 70.4973 101.185 70.4622 101.212 70.4316C106.856 63.635 116.727 62.5227 123.266 67.9485C125.364 69.6905 126.943 71.9768 127.829 74.5568Z" fill="white"/>
<path d="M121.863 60.7595C124.137 58.0233 123.847 54.0329 121.216 51.8468C118.585 49.6606 114.609 50.1064 112.336 52.8426C110.062 55.5788 110.352 59.5691 112.983 61.7553C115.613 63.9415 119.589 63.4957 121.863 60.7595Z" fill="white"/>
<path d="M176.394 59.0411L171.476 63.6963L151.892 82.2205L151.463 82.6234L141.202 86.0129C145.089 71.4106 143.885 75.9317 144.123 75.0385L165.884 56.326L170.171 52.6387C176.67 52.6387 176.394 59.0411 176.394 59.0411Z" fill="#00ABFE"/>
<path d="M151.892 82.221L151.463 82.6239L141.202 86.0134C145.089 71.4111 143.885 75.9323 144.123 75.039L144.46 74.75C145.165 74.9252 145.844 75.477 146.352 76.6637C146.352 76.6637 149.79 77.1104 149.234 79.9088C149.234 79.9088 151.559 80.3073 151.892 82.221Z" fill="#FFB020"/>
<path d="M176.394 59.0411L171.476 63.6963C170.889 59.3521 167.933 57.2631 165.884 56.326L170.171 52.6387C176.67 52.6387 176.394 59.0411 176.394 59.0411Z" fill="#7AD001"/>
<path d="M137.886 88.8358C137.871 88.8358 137.856 88.8353 137.841 88.8342C120.303 87.5736 102.917 84.7131 85.8994 80.2883C85.7392 80.2463 85.6021 80.1425 85.5184 79.9996C85.4347 79.8567 85.4111 79.6864 85.4528 79.5261C85.4945 79.3659 85.5982 79.2287 85.741 79.1448C85.8837 79.0608 86.054 79.037 86.2144 79.0786C103.158 83.4842 120.468 86.3323 137.93 87.5874C138.091 87.5989 138.242 87.6726 138.35 87.793C138.458 87.9133 138.516 88.071 138.51 88.2328C138.504 88.3945 138.436 88.5477 138.32 88.6602C138.203 88.7727 138.048 88.8356 137.886 88.8358Z" fill="#B2ACA3"/>
<path d="M79.9705 89.5248C79.891 89.5041 79.8165 89.468 79.751 89.4185C79.6855 89.369 79.6304 89.3071 79.5889 89.2363C79.5474 89.1655 79.5202 89.0872 79.5089 89.0059C79.4976 88.9246 79.5024 88.8419 79.5231 88.7625C79.5438 88.683 79.5799 88.6085 79.6294 88.543C79.6789 88.4775 79.7408 88.4224 79.8116 88.3809C79.8824 88.3394 79.9607 88.3122 80.042 88.3009C80.1233 88.2896 80.206 88.2944 80.2854 88.3151C100.181 93.491 120.753 98.8445 141.664 97.5958C141.83 97.586 141.992 97.6423 142.116 97.7523C142.24 97.8624 142.315 98.0172 142.325 98.1826C142.335 98.3481 142.279 98.5107 142.169 98.6347C142.059 98.7586 141.904 98.8338 141.738 98.8436C120.699 100.099 100.144 94.7728 79.9705 89.5248Z" fill="#B2ACA3"/>
<path d="M75.1103 98.9616C74.9573 98.8979 74.8358 98.776 74.7727 98.6228C74.7096 98.4695 74.7099 98.2975 74.7736 98.1445C74.8373 97.9915 74.9592 97.87 75.1124 97.8069C75.2657 97.7437 75.4377 97.7441 75.5907 97.8078C95.555 106.094 117.154 109.69 138.726 108.318C138.808 108.313 138.891 108.323 138.968 108.35C139.046 108.376 139.118 108.418 139.179 108.472C139.241 108.526 139.291 108.592 139.328 108.665C139.364 108.739 139.385 108.819 139.391 108.901C139.396 108.983 139.385 109.065 139.359 109.143C139.332 109.221 139.291 109.292 139.237 109.354C139.183 109.416 139.117 109.466 139.043 109.502C138.969 109.539 138.889 109.56 138.808 109.565C117.044 110.95 95.2519 107.322 75.1103 98.9616Z" fill="#B2ACA3"/>
<path d="M69.5864 120.17C67.4502 126.688 67.395 126.319 67.8514 126.927C69.7247 129.426 75.6879 130.645 78.2517 129.564C79.0234 127.259 79.7909 124.955 80.5543 122.655C76.9124 121.595 73.2303 120.673 69.5864 120.17Z" fill="#824CD8"/>
<path d="M77.0684 115.801C73.7479 117.133 70.3128 118.16 66.8057 118.869C68.8046 120.597 70.9056 122.205 73.0974 123.682C73.8091 124.161 74.0584 124.21 74.9029 124.095C77.6973 123.714 80.4916 123.332 83.2584 122.927C80.98 120.813 79.0192 118.358 77.0684 115.801Z" fill="#A369F7"/>
<path d="M87.6396 121.064C91.0395 121.597 94.4428 122.13 97.7965 122.902C98.2011 122.963 98.5847 123.122 98.9134 123.365C99.413 123.803 99.5869 124.921 97.9263 124.802C94.4606 124.553 90.9836 124.303 87.5783 123.612C86.9993 123.495 86.3532 123.314 86.0736 122.794C85.612 121.935 86.4568 120.879 87.6396 121.064Z" fill="#00ABFE"/>
<path d="M86.5448 126.976C89.9448 127.509 93.3481 128.042 96.7018 128.814C97.1064 128.875 97.49 129.034 97.8187 129.278C98.3183 129.715 98.4921 130.833 96.8316 130.714C93.3659 130.465 89.8888 130.215 86.4835 129.524C85.9045 129.407 85.2585 129.227 84.9789 128.706C84.5172 127.847 85.3621 126.791 86.5448 126.976Z" fill="#7AD001"/>
<path d="M122.224 124.032C125.661 124.205 129.102 124.38 132.518 124.796C132.926 124.814 133.325 124.932 133.677 125.14C134.22 125.523 134.51 126.617 132.846 126.672C129.373 126.787 125.889 126.902 122.43 126.572C121.842 126.516 121.18 126.404 120.848 125.916C120.299 125.11 121.029 123.971 122.224 124.032Z" fill="white"/>
<path d="M121.473 129.446C124.91 129.619 128.351 129.794 131.767 130.21C132.175 130.228 132.574 130.346 132.926 130.554C133.469 130.937 133.759 132.031 132.095 132.086C128.622 132.201 125.138 132.316 121.679 131.986C121.091 131.93 120.429 131.818 120.097 131.33C119.548 130.524 120.278 129.385 121.473 129.446Z" fill="white"/>
<path d="M103.847 131.675L107.592 132.297L109.689 126.419L105.502 126.016L103.847 131.675Z" fill="#FFB020"/>
<path d="M110.915 132.298L115.354 132.611L118.547 122.754L114.136 123.011L110.915 132.298Z" fill="#A369F7"/>
<path d="M145.222 84.685L141.202 86.0119L142.271 81.9961C142.942 82.1754 143.56 82.5131 144.074 82.981C144.588 83.4489 144.981 84.0333 145.222 84.685Z" fill="#1D1D3D"/>
<defs>
<linearGradient id="paint0_linear_6225_88221" x1="217.894" y1="-15.248" x2="217.894" y2="225.548" gradientUnits="userSpaceOnUse">
<stop stop-color="#E4E4E4"/>
<stop offset="1" stop-color="#E5E7ED" stop-opacity="0"/>
</linearGradient>
<clipPath id="clip0_6225_88221">
<rect width="233" height="163" fill="white" transform="translate(0.348633 0.00976562)"/>
</clipPath>
</defs>
</svg>
