<svg width="132" height="132" viewBox="0 0 132 132" fill="none" xmlns="http://www.w3.org/2000/svg">
<path fill-rule="evenodd" clip-rule="evenodd" d="M107.031 73.082H24.9668V111.061C24.9668 112.873 26.1547 114.471 27.8903 114.992C36.1357 117.464 59.323 124.421 64.8192 126.071C65.5886 126.301 66.4092 126.301 67.1786 126.071C72.6748 124.421 95.8621 117.464 104.107 114.992C105.843 114.471 107.031 112.873 107.031 111.061C107.031 101.55 107.031 73.082 107.031 73.082Z" fill="#CADCF0"/>
<path fill-rule="evenodd" clip-rule="evenodd" d="M107.031 73.082H65.9992C65.9992 73.082 65.6011 126.243 65.9992 126.243C66.3972 126.243 66.7931 126.186 67.1788 126.071C72.6751 124.421 95.8623 117.464 104.108 114.992C105.843 114.471 107.031 112.873 107.031 111.061C107.031 101.55 107.031 73.082 107.031 73.082Z" fill="#A4BBDB"/>
<path fill-rule="evenodd" clip-rule="evenodd" d="M65.9987 86.3949L24.9666 73.082C24.9666 73.082 17.7716 83.7504 14.5547 88.5183C14.1936 89.0538 14.1054 89.7247 14.3146 90.334C14.5259 90.9433 15.0081 91.4172 15.6215 91.6183C23.4155 94.15 46.4879 101.647 52.5401 103.612C53.408 103.895 54.3599 103.569 54.8728 102.812C57.624 98.7517 65.9987 86.3949 65.9987 86.3949Z" fill="#E9F3FC"/>
<path fill-rule="evenodd" clip-rule="evenodd" d="M107.03 73.082L65.998 86.3949C65.998 86.3949 74.3727 98.7517 77.1239 102.812C77.6368 103.569 78.5888 103.895 79.4566 103.612C85.5088 101.647 108.581 94.15 116.375 91.6183C116.989 91.4172 117.471 90.9433 117.682 90.334C117.891 89.7247 117.803 89.0538 117.442 88.5183C114.225 83.7504 107.03 73.082 107.03 73.082Z" fill="#E9F3FC"/>
<path fill-rule="evenodd" clip-rule="evenodd" d="M56.0662 45.1159C55.5533 44.3629 54.6034 44.0367 53.7355 44.3198C47.6874 46.2832 24.6089 53.7818 16.8149 56.3156C16.2014 56.5146 15.7172 56.9885 15.508 57.5978C15.2987 58.2071 15.3869 58.8801 15.748 59.4135C18.7105 63.808 24.9659 73.0813 24.9659 73.0813L65.998 59.7233C65.998 59.7233 58.6286 48.8847 56.0662 45.1159Z" fill="#CADCF0"/>
<path fill-rule="evenodd" clip-rule="evenodd" d="M116.248 59.4135C116.609 58.8801 116.697 58.2071 116.488 57.5978C116.279 56.9885 115.795 56.5146 115.181 56.3156C107.387 53.7818 84.3086 46.2832 78.2605 44.3198C77.3927 44.0367 76.4428 44.3629 75.9299 45.1159C73.3674 48.8847 65.998 59.7233 65.998 59.7233L107.03 73.0813C107.03 73.0813 113.285 63.808 116.248 59.4135Z" fill="#E9F3FC"/>
<path fill-rule="evenodd" clip-rule="evenodd" d="M107.031 73.0807L65.9989 59.7227L24.9668 73.0807L65.9989 86.3935L107.031 73.0807Z" fill="#CADCF0"/>
<path fill-rule="evenodd" clip-rule="evenodd" d="M65.9989 86.3935V59.7227L24.9668 73.0807L65.9989 86.3935Z" fill="#A4BBDB"/>
<path fill-rule="evenodd" clip-rule="evenodd" d="M57.7561 65.6171C56.9026 65.0591 56.1333 64.462 55.4501 63.8363C54.6171 63.0711 53.3184 63.1264 52.5511 63.9615C51.7859 64.7944 51.8413 66.0931 52.6763 66.8583C53.5154 67.6297 54.4612 68.3642 55.5116 69.0515C56.4595 69.6711 57.7314 69.4044 58.351 68.4565C58.9706 67.5087 58.7039 66.2367 57.7561 65.6171Z" fill="#347BFA"/>
<path fill-rule="evenodd" clip-rule="evenodd" d="M51.3634 59.3133C50.7541 58.4865 50.2391 57.6556 49.8165 56.8247C49.3036 55.8153 48.0665 55.4132 47.0571 55.9261C46.0477 56.439 45.6456 57.6761 46.1585 58.6855C46.6796 59.7072 47.3115 60.7309 48.0603 61.7465C48.7312 62.6574 50.0155 62.8523 50.9285 62.1814C51.8394 61.5085 52.0343 60.2242 51.3634 59.3133Z" fill="#347BFA"/>
<path fill-rule="evenodd" clip-rule="evenodd" d="M48.3636 50.9417C48.3841 50.1149 48.5051 49.3128 48.7267 48.5434C49.0385 47.4561 48.4087 46.3174 47.3193 46.0056C46.2319 45.6937 45.0933 46.3236 44.7815 47.413C44.4676 48.5126 44.2911 49.6595 44.2603 50.8392C44.2337 51.9716 45.1282 52.9133 46.2607 52.94C47.3931 52.9687 48.3348 52.0742 48.3636 50.9417Z" fill="#347BFA"/>
<path fill-rule="evenodd" clip-rule="evenodd" d="M51.5193 44.0918C52.0466 43.6035 52.6375 43.1522 53.2837 42.7439C54.2418 42.1387 54.529 40.8708 53.9259 39.9147C53.3206 38.9566 52.0528 38.6694 51.0947 39.2726C50.2268 39.8204 49.439 40.4256 48.7312 41.0821C47.9003 41.8515 47.8511 43.1501 48.6204 43.981C49.3898 44.8119 50.6884 44.8612 51.5193 44.0918Z" fill="#347BFA"/>
<path fill-rule="evenodd" clip-rule="evenodd" d="M59.1496 40.55C60.1815 40.3592 61.275 40.2361 62.428 40.1889C63.5605 40.1397 64.4386 39.1816 64.3914 38.0511C64.3442 36.9207 63.3861 36.0406 62.2536 36.0877C60.8996 36.1452 59.6153 36.2909 58.4028 36.5145C57.2908 36.7217 56.5522 37.7926 56.7595 38.9046C56.9646 40.0186 58.0355 40.7552 59.1496 40.55Z" fill="#347BFA"/>
<path fill-rule="evenodd" clip-rule="evenodd" d="M69.8416 40.4295C71.5916 40.4501 73.2206 40.3885 74.7326 40.2552C75.861 40.1546 76.696 39.1575 76.5955 38.0292C76.495 36.9028 75.4979 36.0678 74.3695 36.1684C72.9847 36.2894 71.4932 36.3468 69.8888 36.3263C68.7563 36.314 67.8269 37.2229 67.8146 38.3533C67.8003 39.4858 68.7091 40.4172 69.8416 40.4295Z" fill="#347BFA"/>
<path fill-rule="evenodd" clip-rule="evenodd" d="M81.4771 38.9998C83.5082 38.3782 85.2234 37.5822 86.6595 36.6692C87.6135 36.0599 87.8966 34.792 87.2873 33.836C86.68 32.882 85.4101 32.5988 84.454 33.2082C83.299 33.9426 81.9141 34.5745 80.2769 35.0751C79.1957 35.4075 78.5844 36.5543 78.9167 37.6376C79.247 38.7208 80.3959 39.3302 81.4771 38.9998Z" fill="#347BFA"/>
<path fill-rule="evenodd" clip-rule="evenodd" d="M91.9191 30.925C92.8874 28.9226 93.2588 26.8054 93.1644 24.764C93.1111 23.6316 92.1488 22.7576 91.0184 22.8109C89.888 22.8643 89.0119 23.8244 89.0653 24.9548C89.1309 26.3417 88.8806 27.7799 88.2241 29.1401C87.7317 30.1598 88.1585 31.3887 89.1781 31.8811C90.1978 32.3734 91.4267 31.9447 91.9191 30.925Z" fill="#347BFA"/>
<path fill-rule="evenodd" clip-rule="evenodd" d="M90.6129 17.5092C89.1173 15.4884 87.0882 14.081 84.8766 13.6276C83.7667 13.4019 82.6814 14.1159 82.4537 15.2258C82.228 16.3357 82.944 17.421 84.0519 17.6487C85.328 17.9093 86.4522 18.7853 87.316 19.9527C87.991 20.8615 89.2773 21.0523 90.1862 20.3794C91.0971 19.7044 91.2879 18.4181 90.6129 17.5092Z" fill="#347BFA"/>
<path fill-rule="evenodd" clip-rule="evenodd" d="M63.8105 14.024C66.0304 1.45377 85.2683 2.26621 74.0686 14.024H63.8105Z" fill="#CADCF0"/>
<path fill-rule="evenodd" clip-rule="evenodd" d="M63.8105 17.207C66.0304 29.7752 85.2683 28.9648 74.0686 17.207H63.8105Z" fill="#CADCF0"/>
<path fill-rule="evenodd" clip-rule="evenodd" d="M63.6258 17.6891H77.3634C78.4959 17.6891 79.415 16.77 79.415 15.6375C79.415 14.5051 78.4959 13.5859 77.3634 13.5859H63.6258C62.4954 13.5859 61.5742 14.5051 61.5742 15.6375C61.5742 16.77 62.4954 17.6891 63.6258 17.6891Z" fill="#347BFA"/>
</svg>
