<svg width="195" height="186" viewBox="0 0 195 186" fill="none" xmlns="http://www.w3.org/2000/svg">
<path d="M36.8052 145.826L109.82 48.0322L127.792 51.8522L137.129 171.732C104.434 185.307 48.6622 159.495 36.8052 145.826Z" fill="url(#paint0_linear_6326_87268)" fill-opacity="0.31"/>
<path d="M103.047 14.5166C113.397 14.1155 138.746 22.8675 147.732 28.4499C136.128 14.0717 119.462 10.8142 103.047 14.5166Z" fill="#6BE5C4"/>
<path d="M171.988 62.8487C180.53 61.4575 180.912 58.9425 180.367 57.9105C156.49 28.7065 79.0299 8.03945 59.7505 18.9865C58.2495 19.8388 60.0008 22.1199 60.2361 22.4494C74.1232 41.8944 129.008 65.3194 171.988 62.8487Z" fill="#3C3197"/>
<path d="M172.015 62.7158C180.558 61.3245 180.939 58.8096 180.395 57.7776C147.767 10.8311 80.522 7.07506 59.7783 18.8536C58.2773 19.7058 60.0285 21.9869 60.2639 22.3165C74.151 41.7615 129.036 65.1865 172.015 62.7158Z" fill="#7069B1"/>
<path d="M178.132 57.1437C158.832 32.2723 71.6725 6.93744 60.454 22.3566C74.3411 41.8016 129.08 65.1956 172.059 62.7249C180.119 60.0095 178.677 58.1757 178.132 57.1437Z" fill="#2C2882" stroke="#221A75" stroke-width="0.368711"/>
<path d="M159.902 62.374C166.607 61.2697 168.107 59.8341 167.681 59.0209C145.453 31.2034 76.3964 24.1606 73.0642 28.4306C72.2292 29.5007 73.258 30.9011 73.4424 31.1608C92.2084 46.7635 122.8 60.9018 159.902 62.374Z" fill="#15135B"/>
<path d="M145.219 57.6502C149.741 56.9084 150.753 55.942 150.465 55.3943C135.464 36.6564 88.8785 31.8958 86.6319 34.7703C86.0688 35.4907 86.7632 36.434 86.8877 36.6089C99.5507 47.1206 120.191 56.6491 145.219 57.6502Z" fill="#6BE5C4"/>
<path d="M139.786 56.1927C143.401 55.5921 144.211 54.8144 143.981 54.3744C132.009 39.3293 94.7773 35.5487 92.9787 37.8612C92.528 38.4407 93.0821 39.1982 93.1814 39.3386C103.293 47.7746 119.781 55.4126 139.786 56.1927Z" fill="#2D44A3"/>
<path d="M134.025 54.4218C136.534 53.9866 137.097 53.4346 136.94 53.1244C128.683 42.5277 102.879 39.9664 101.625 41.6059C101.311 42.0168 101.693 42.5504 101.761 42.6494C108.747 48.581 120.157 53.9298 134.025 54.4218Z" fill="#6EEBE5"/>
<path d="M131.433 51.9178C133.435 51.5752 134.206 50.5337 134.08 50.2874C125.293 42.7694 105.489 40.6978 105.186 41.0916C104.936 41.4172 105.467 42.3062 105.522 42.3848C111.104 47.098 120.364 51.5126 131.433 51.9178Z" fill="white"/>
<path d="M103.05 14.5072C113.368 14.1041 137.94 21.7865 146.897 27.3554C134.061 13.0209 119.413 10.8077 103.05 14.5072Z" fill="#5F59A8"/>
<path d="M52.3807 139.364L109.82 48.0326L127.791 51.8526L128.821 163.4C96.1257 176.975 64.2378 153.032 52.3807 139.364Z" fill="url(#paint1_linear_6326_87268)" fill-opacity="0.31"/>
<path d="M22.3242 166.21C18.7789 166.21 15.602 165.634 12.7934 164.483C9.98479 163.332 7.7287 161.629 6.02512 159.373C4.36758 157.117 3.49277 154.4 3.40069 151.223H15.9703C16.1545 153.019 16.7761 154.4 17.8351 155.367C18.894 156.288 20.2753 156.748 21.9789 156.748C23.7285 156.748 25.1098 156.357 26.1227 155.574C27.1357 154.745 27.6422 153.617 27.6422 152.19C27.6422 150.993 27.2278 150.003 26.399 149.22C25.6163 148.438 24.6264 147.793 23.4293 147.286C22.2782 146.78 20.6206 146.204 18.4566 145.56C15.3257 144.593 12.7704 143.626 10.7905 142.659C8.8107 141.692 7.10712 140.265 5.6798 138.377C4.25248 136.489 3.53882 134.026 3.53882 130.987C3.53882 126.475 5.17333 122.953 8.44236 120.421C11.7114 117.842 15.9703 116.553 21.2192 116.553C26.5602 116.553 30.8651 117.842 34.1342 120.421C37.4032 122.953 39.1528 126.498 39.383 131.056H26.6062C26.5141 129.491 25.9386 128.271 24.8796 127.396C23.8206 126.475 22.4624 126.015 20.8048 126.015C19.3775 126.015 18.2264 126.406 17.3516 127.189C16.4768 127.926 16.0394 129.008 16.0394 130.435C16.0394 132 16.7761 133.22 18.2494 134.095C19.7228 134.97 22.0249 135.914 25.1559 136.927C28.2868 137.986 30.8191 138.999 32.7529 139.966C34.7327 140.933 36.4363 142.337 37.8636 144.179C39.2909 146.02 40.0046 148.391 40.0046 151.292C40.0046 154.055 39.2909 156.564 37.8636 158.82C36.4823 161.076 34.4565 162.872 31.786 164.207C29.1155 165.542 25.9616 166.21 22.3242 166.21ZM65.8507 166.279C62.0752 166.279 58.6681 165.473 55.6293 163.862C52.6365 162.25 50.2653 159.948 48.5157 156.955C46.8121 153.963 45.9603 150.463 45.9603 146.458C45.9603 142.498 46.8351 139.022 48.5847 136.029C50.3344 132.99 52.7286 130.665 55.7674 129.054C58.8062 127.442 62.2134 126.636 65.9889 126.636C69.7644 126.636 73.1715 127.442 76.2103 129.054C79.2492 130.665 81.6434 132.99 83.393 136.029C85.1426 139.022 86.0174 142.498 86.0174 146.458C86.0174 150.417 85.1196 153.917 83.3239 156.955C81.5743 159.948 79.1571 162.25 76.0722 163.862C73.0334 165.473 69.6262 166.279 65.8507 166.279ZM65.8507 156.058C68.1068 156.058 70.0176 155.229 71.583 153.571C73.1945 151.914 74.0003 149.543 74.0003 146.458C74.0003 143.373 73.2176 141.002 71.6521 139.344C70.1327 137.687 68.245 136.858 65.9889 136.858C63.6867 136.858 61.776 137.687 60.2566 139.344C58.7371 140.956 57.9774 143.327 57.9774 146.458C57.9774 149.543 58.7141 151.914 60.1875 153.571C61.7069 155.229 63.5946 156.058 65.8507 156.058ZM105.129 133.612C106.51 131.494 108.237 129.836 110.309 128.639C112.38 127.396 114.683 126.774 117.215 126.774V139.275H113.969C111.022 139.275 108.812 139.92 107.339 141.209C105.865 142.452 105.129 144.662 105.129 147.839V165.727H93.3188V127.189H105.129V133.612ZM135.706 133.612C137.087 131.494 138.814 129.836 140.886 128.639C142.957 127.396 145.26 126.774 147.792 126.774V139.275H144.546C141.599 139.275 139.389 139.92 137.916 141.209C136.442 142.452 135.706 144.662 135.706 147.839V165.727H123.896V127.189H135.706V133.612ZM193.839 127.189L169.667 184.029H156.959L165.799 164.414L150.122 127.189H163.313L172.222 151.292L181.062 127.189H193.839Z" fill="#606677"/>
<defs>
<linearGradient id="paint0_linear_6326_87268" x1="112.45" y1="48.5912" x2="87.8607" y2="164.275" gradientUnits="userSpaceOnUse">
<stop offset="0.575327" stop-color="#C2DDFF"/>
<stop offset="1" stop-color="#6DEAFC" stop-opacity="0"/>
</linearGradient>
<linearGradient id="paint1_linear_6326_87268" x1="112.45" y1="48.5916" x2="87.8601" y2="164.276" gradientUnits="userSpaceOnUse">
<stop offset="0.575327" stop-color="#B4D4FF"/>
<stop offset="1" stop-color="#ADD0FF"/>
</linearGradient>
</defs>
</svg>
