<svg width="82" height="83" viewBox="0 0 82 83" fill="none" xmlns="http://www.w3.org/2000/svg">
<path d="M79.1826 41.4282C79.1826 44.6863 75.18 47.3718 74.3782 50.3753C73.5509 53.4807 75.6445 57.8079 74.0727 60.5252C72.4755 63.2869 67.671 63.6178 65.431 65.8578C63.1911 68.0978 62.8602 72.9022 60.0984 74.4995C57.3812 76.0713 53.054 73.9777 49.9486 74.8049C46.945 75.6067 44.2596 79.6094 41.0015 79.6094C37.7433 79.6094 35.0579 75.6067 32.0543 74.8049C28.9489 73.9777 24.6218 76.0713 21.9045 74.4995C19.1428 72.9022 18.8119 68.0978 16.5719 65.8578C14.3319 63.6178 9.52747 63.2869 7.93022 60.5252C6.35843 57.8079 8.45203 53.4807 7.62477 50.3753C6.82297 47.3718 2.82031 44.6863 2.82031 41.4282C2.82031 38.1701 6.82297 35.4847 7.62477 32.4811C8.45203 29.3757 6.35843 25.0485 7.93022 22.3313C9.52747 19.5695 14.3319 19.2386 16.5719 16.9987C18.8119 14.7587 19.1428 9.95423 21.9045 8.35698C24.6218 6.78519 28.9489 8.87879 32.0543 8.05153C35.0579 7.24973 37.7433 3.24707 41.0015 3.24707C44.2596 3.24707 46.945 7.24973 49.9486 8.05153C53.054 8.87879 57.3812 6.78519 60.0984 8.35698C62.8602 9.95423 63.1911 14.7587 65.431 16.9987C67.671 19.2386 72.4755 19.5695 74.0727 22.3313C75.6445 25.0485 73.5509 29.3757 74.3782 32.4811C75.18 35.4847 79.1826 38.1701 79.1826 41.4282Z" fill="#CEFFD7"/>
<path d="M52.0342 30.0723L37.4999 44.6066L29.9655 37.0785C28.33 35.4431 25.6764 35.4431 24.041 37.0785C22.4056 38.7139 22.4056 41.3675 24.041 43.003L34.6108 53.5728C36.2017 55.1637 38.7853 55.1637 40.3762 53.5728L57.9523 35.9967C59.5877 34.3613 59.5877 31.7077 57.9523 30.0723C56.3168 28.4368 53.6696 28.4368 52.0342 30.0723Z" fill="#28C76F"/>
</svg>
