<svg width="206" height="186" viewBox="0 0 206 186" fill="none" xmlns="http://www.w3.org/2000/svg">
<path d="M204.773 13.6027C204.748 10.2156 203.389 6.9749 200.992 4.58197C198.594 2.18905 195.351 0.836364 191.964 0.816677L14.1351 0.203125C10.7403 0.213676 7.48668 1.56259 5.08028 3.95711C2.67389 6.35164 1.30891 9.59857 1.28157 12.9932C0.701966 127.243 0.74246 119.285 0.740415 119.647C0.705238 126.424 5.81245 132.116 12.346 132.116L51.3896 131.744L50.9564 142.534H51.0844L49.9702 170.294L57.3161 170.279L55.5192 185.288L79.3295 184.704L80.8335 170.28C84.051 170.273 96.6697 170.208 125.974 170.153L127.491 184.704L151.302 185.288L149.485 170.108L156.081 170.094L154.683 142.338L157.067 142.333L156.482 130.742L193.761 130.386C200.137 130.335 205.294 124.742 205.258 117.921L204.773 13.6027Z" fill="white"/>
<path d="M200.149 117.944C200.17 121.966 197.294 125.248 193.721 125.276L12.3914 127.006C8.77555 127.034 5.82845 123.739 5.84972 119.674L6.36961 17.9195L6.39088 13.0151C6.40353 10.9643 7.22861 9.00202 8.68533 7.55833C10.142 6.11465 12.1116 5.30724 14.1625 5.31302L191.947 5.92657C193.989 5.93345 195.945 6.74663 197.39 8.18909C198.836 9.63154 199.652 11.5865 199.663 13.6283L199.685 18.5187L200.149 117.944Z" fill="#EAE5DB"/>
<path d="M145.526 180.035L137.46 112.649L125.092 112.432L132.106 179.706L145.526 180.035Z" fill="#336CFF"/>
<path d="M61.293 180.035L69.3591 112.649L81.7275 112.432L74.713 179.706L61.293 180.035Z" fill="#336CFF"/>
<path d="M199.686 18.5175L6.36914 17.9195L6.39041 13.0151C6.40307 10.9643 7.22814 9.00202 8.68486 7.55833C10.1416 6.11465 12.1112 5.30724 14.1621 5.31302L191.947 5.92657C193.988 5.93345 195.945 6.74663 197.39 8.18909C198.835 9.63154 199.652 11.5865 199.663 13.6283L199.686 18.5175Z" fill="#B2ACA3"/>
<path d="M106.529 39.1163L106.83 49.7668L180.701 48.0861L180.646 38.2627L106.529 39.1163Z" fill="#00ABFE"/>
<path d="M106.885 59.5898L107.241 71.3725L137.757 70.3389L138.748 59.6471L106.885 59.5898Z" fill="#7AD001"/>
<path d="M106.928 84.4685C106.657 84.474 106.395 84.3714 106.199 84.1835C106.003 83.9956 105.89 83.7376 105.885 83.4664C105.88 83.1952 105.982 82.9329 106.17 82.7373C106.358 82.5417 106.616 82.4288 106.887 82.4234C133.906 81.3599 161.192 81.7157 188.068 81.3423C188.339 81.3416 188.599 81.4467 188.792 81.6352C188.986 81.8238 189.098 82.0807 189.105 82.351C189.107 82.4853 189.082 82.6186 189.033 82.7434C188.983 82.8681 188.909 82.9819 188.815 83.0781C188.722 83.1744 188.61 83.2512 188.487 83.3043C188.363 83.3574 188.231 83.3856 188.096 83.3875C161.153 83.7601 133.909 83.4059 106.968 84.4669L106.928 84.4685Z" fill="#B2ACA3"/>
<path d="M105.863 94.4368H105.852C105.581 94.4382 105.32 94.3318 105.128 94.141C104.935 93.9503 104.826 93.6907 104.824 93.4195C104.823 93.1483 104.929 92.8876 105.12 92.6949C105.311 92.5021 105.57 92.393 105.842 92.3916C120.874 92.2325 135.316 92.8268 150.679 92.3916H150.709C150.981 92.3878 151.242 92.4919 151.437 92.681C151.631 92.8701 151.742 93.1287 151.746 93.3999C151.75 93.6711 151.646 93.9327 151.457 94.1272C151.268 94.3216 151.009 94.433 150.738 94.4368C135.316 94.874 120.896 94.2768 105.863 94.4368Z" fill="#B2ACA3"/>
<path d="M151.695 137.234L141.808 137.255L125.685 137.284L109.655 137.312L79.4239 137.369L59.7276 137.405L56.2754 137.412L57.0726 117.545L71.1099 117.616L138.682 117.965L150.726 118.029C152.004 143.368 151.621 135.769 151.695 137.234Z" fill="#FF605B"/>
<path d="M71.1099 117.617C67.0809 124.074 63.2868 130.67 59.7276 137.406L56.2754 137.413L57.0726 117.546L71.1099 117.617Z" fill="#FFB020"/>
<path d="M104.955 117.861C100.584 124.375 96.2089 130.886 91.8287 137.394L75.8125 137.422C80.0975 130.938 84.2783 124.389 88.3547 117.776H88.3621L104.955 117.861Z" fill="#FFB020"/>
<path d="M138.682 117.966C134.347 124.402 130.014 130.842 125.685 137.286L109.654 137.314C113.876 130.9 117.99 124.423 121.997 117.881L138.682 117.966Z" fill="#FFB020"/>
<path d="M151.694 137.235L141.807 137.256C144.917 132.444 147.969 127.595 150.961 122.707L151.694 137.235Z" fill="#FFB020"/>
<path d="M150.709 164.995L140.821 165.017L124.699 165.045C124.739 165.045 69.2171 165.148 58.7413 165.168L55.2891 165.175L56.0863 145.308L70.1235 145.379C151.939 145.799 70.9097 145.383 121.012 145.643L137.696 145.728L149.741 145.792L149.975 150.469L150.709 164.995Z" fill="#FF605B"/>
<path d="M70.1235 145.379C66.0945 151.835 62.3005 158.432 58.7413 165.168L55.2891 165.175L56.0863 145.308L70.1235 145.379Z" fill="#FFB020"/>
<path d="M103.966 145.621C99.5954 152.134 95.2199 158.645 90.84 165.153L74.8242 165.181C79.1093 158.697 83.29 152.148 87.3664 145.535H87.3734L103.966 145.621Z" fill="#FFB020"/>
<path d="M137.696 145.726C133.36 152.162 129.028 158.601 124.698 165.045L108.668 165.073C112.889 158.66 117.004 152.182 121.011 145.641L137.696 145.726Z" fill="#FFB020"/>
<path d="M150.709 164.997L140.822 165.019C143.933 160.207 146.984 155.357 149.976 150.469L150.709 164.997Z" fill="#FFB020"/>
<path d="M52.284 36.4734L19.5878 93.1042C19.2833 93.6319 19.123 94.2304 19.123 94.8396C19.1231 95.4489 19.2835 96.0474 19.5881 96.575C19.8928 97.1026 20.3309 97.5407 20.8585 97.8453C21.3861 98.15 21.9846 98.3104 22.5938 98.3104H87.9854C88.5946 98.3104 89.1931 98.15 89.7207 97.8453C90.2483 97.5407 90.6865 97.1026 90.9911 96.575C91.2957 96.0474 91.4561 95.4489 91.4562 94.8396C91.4562 94.2304 91.296 93.6319 90.9914 93.1042L58.2952 36.4734C57.9907 35.9457 57.5526 35.5075 57.025 35.2028C56.4974 34.8982 55.8989 34.7378 55.2896 34.7378C54.6804 34.7378 54.0819 34.8982 53.5543 35.2028C53.0267 35.5075 52.5886 35.9457 52.284 36.4734Z" fill="#FFC269"/>
<path d="M54.2613 43.0126L26.2424 91.5425C26.1376 91.723 26.0823 91.928 26.082 92.1367C26.0818 92.3454 26.1366 92.5505 26.241 92.7312C26.3453 92.9119 26.4955 93.062 26.6764 93.1661C26.8573 93.2702 27.0624 93.3248 27.2711 93.3243H83.3089C83.5176 93.3248 83.7227 93.2702 83.9036 93.1661C84.0844 93.062 84.2346 92.9119 84.339 92.7312C84.4434 92.5505 84.4982 92.3454 84.4979 92.1367C84.4977 91.928 84.4424 91.723 84.3376 91.5425L56.3187 43.0126C56.2148 42.8316 56.065 42.6812 55.8843 42.5766C55.7037 42.4721 55.4987 42.417 55.29 42.417C55.0813 42.417 54.8762 42.4721 54.6956 42.5766C54.515 42.6812 54.3652 42.8316 54.2613 43.0126Z" fill="#FFB020"/>
<path d="M52.1353 79.3528L48.0163 63.6532C47.8905 63.1738 47.8763 62.6719 47.9749 62.1861C48.0735 61.7003 48.2822 61.2437 48.5849 60.8512C48.8876 60.4587 49.2764 60.141 49.7212 59.9223C50.166 59.7036 50.6551 59.5899 51.1507 59.5898H59.1351C59.6266 59.5899 60.1116 59.7018 60.5534 59.917C60.9953 60.1321 61.3825 60.445 61.6856 60.8318C61.9888 61.2187 62.2 61.6694 62.3032 62.1499C62.4065 62.6304 62.3992 63.1281 62.2818 63.6053L58.4148 79.3049C57.6135 82.567 52.9881 82.6009 52.1353 79.3528Z" fill="#C72F55"/>
<path d="M55.1414 88.0724C56.474 88.0724 57.5543 86.9921 57.5543 85.6595C57.5543 84.3269 56.474 83.2466 55.1414 83.2466C53.8088 83.2466 52.7285 84.3269 52.7285 85.6595C52.7285 86.9921 53.8088 88.0724 55.1414 88.0724Z" fill="#C72F55"/>
</svg>
