<svg width="68" height="68" viewBox="0 0 68 68" fill="none" xmlns="http://www.w3.org/2000/svg">
<g clip-path="url(#clip0_10876_119813)">
<path d="M33.7812 67.3369C52.2828 67.3369 67.2812 52.3385 67.2812 33.8369C67.2812 15.3354 52.2828 0.336914 33.7812 0.336914C15.2797 0.336914 0.28125 15.3354 0.28125 33.8369C0.28125 52.3385 15.2797 67.3369 33.7812 67.3369Z" fill="#685E68"/>
<path d="M33.7808 61.3517C50.6296 61.3517 64.2882 47.6931 64.2882 30.8443C64.2882 13.9955 50.6296 0.336914 33.7808 0.336914C16.9321 0.336914 3.27344 13.9955 3.27344 30.8443C3.27344 47.6931 16.9321 61.3517 33.7808 61.3517Z" fill="#FE9738"/>
<path d="M57.9041 30.8441C57.9041 44.1669 47.103 54.9681 33.7802 54.9681C20.4574 54.9681 9.65625 44.1669 9.65625 30.8441C9.65625 20.9983 15.5554 12.5291 24.0128 8.78125C26.999 7.45564 30.3032 6.72021 33.7802 6.72021C47.103 6.72021 57.9041 17.5213 57.9041 30.8441Z" fill="#C8EFFE"/>
<path d="M35.8591 54.8794C35.174 54.9378 34.4804 54.9676 33.7797 54.9676C20.4565 54.9676 9.65625 44.1673 9.65625 30.8442C9.65625 17.5212 20.4565 6.7207 33.7797 6.7207C34.4804 6.7207 35.174 6.75054 35.8591 6.8089C23.5097 7.8635 13.8152 18.2218 13.8152 30.8441C13.8152 43.4664 23.5097 53.8248 35.8591 54.8794Z" fill="#99E6FC"/>
<path d="M33.783 6.72021V30.8441L24.0156 8.78125C27.0018 7.45564 30.306 6.72021 33.783 6.72021Z" fill="#FE646F"/>
<path d="M36.4695 11.5214C36.4695 13.0092 35.2643 14.2145 33.7777 14.2145C32.2912 14.2145 31.0859 13.0092 31.0859 11.5214C31.0859 10.0348 32.2912 8.82959 33.7777 8.82959C35.2643 8.82959 36.4695 10.0348 36.4695 11.5214Z" fill="#8795DE"/>
<path d="M33.7777 52.8582C35.2643 52.8582 36.4695 51.653 36.4695 50.1664C36.4695 48.6798 35.2643 47.4746 33.7777 47.4746C32.2911 47.4746 31.0859 48.6798 31.0859 50.1664C31.0859 51.653 32.2911 52.8582 33.7777 52.8582Z" fill="#8795DE"/>
<path d="M26.7072 14.8609C26.5213 15.5048 26.0947 16.0806 25.4679 16.4417C24.1803 17.185 22.534 16.744 21.7908 15.4564C21.0475 14.1687 21.4885 12.5225 22.7761 11.7792C23.5809 11.3147 24.5257 11.3133 25.303 11.6915C25.7689 11.9179 26.1746 12.2817 26.4533 12.7646C26.8354 13.4254 26.9047 14.1805 26.7072 14.8609Z" fill="#8795DE"/>
<path d="M43.4418 50.2695C44.9284 50.2695 46.1336 49.0644 46.1336 47.5778C46.1336 46.0911 44.9284 44.886 43.4418 44.886C41.9552 44.886 40.75 46.0911 40.75 47.5778C40.75 49.0644 41.9552 50.2695 43.4418 50.2695Z" fill="#8795DE"/>
<path d="M17.0433 23.8748C18.53 23.8748 19.7351 22.6696 19.7351 21.183C19.7351 19.6964 18.53 18.4912 17.0433 18.4912C15.5567 18.4912 14.3516 19.6964 14.3516 21.183C14.3516 22.6696 15.5567 23.8748 17.0433 23.8748Z" fill="#8795DE"/>
<path d="M50.5121 43.197C51.9987 43.197 53.2039 41.9919 53.2039 40.5053C53.2039 39.0186 51.9987 37.8135 50.5121 37.8135C49.0255 37.8135 47.8203 39.0186 47.8203 40.5053C47.8203 41.9919 49.0255 43.197 50.5121 43.197Z" fill="#8795DE"/>
<path d="M14.4574 33.5359C15.944 33.5359 17.1492 32.3307 17.1492 30.8441C17.1492 29.3575 15.944 28.1523 14.4574 28.1523C12.9708 28.1523 11.7656 29.3575 11.7656 30.8441C11.7656 32.3307 12.9708 33.5359 14.4574 33.5359Z" fill="#8795DE"/>
<path d="M53.098 33.5359C54.5847 33.5359 55.7898 32.3307 55.7898 30.8441C55.7898 29.3575 54.5847 28.1523 53.098 28.1523C51.6114 28.1523 50.4062 29.3575 50.4062 30.8441C50.4062 32.3307 51.6114 33.5359 53.098 33.5359Z" fill="#8795DE"/>
<path d="M17.0433 43.197C18.53 43.197 19.7351 41.9919 19.7351 40.5053C19.7351 39.0186 18.53 37.8135 17.0433 37.8135C15.5567 37.8135 14.3516 39.0186 14.3516 40.5053C14.3516 41.9919 15.5567 43.197 17.0433 43.197Z" fill="#8795DE"/>
<path d="M50.5121 23.8748C51.9987 23.8748 53.2039 22.6696 53.2039 21.183C53.2039 19.6964 51.9987 18.4912 50.5121 18.4912C49.0255 18.4912 47.8203 19.6964 47.8203 21.183C47.8203 22.6696 49.0255 23.8748 50.5121 23.8748Z" fill="#8795DE"/>
<path d="M24.1215 50.2695C25.6081 50.2695 26.8132 49.0644 26.8132 47.5778C26.8132 46.0911 25.6081 44.886 24.1215 44.886C22.6348 44.886 21.4297 46.0911 21.4297 47.5778C21.4297 49.0644 22.6348 50.2695 24.1215 50.2695Z" fill="#8795DE"/>
<path d="M43.4418 16.8025C44.9284 16.8025 46.1336 15.5974 46.1336 14.1107C46.1336 12.6241 44.9284 11.4189 43.4418 11.4189C41.9552 11.4189 40.75 12.6241 40.75 14.1107C40.75 15.5974 41.9552 16.8025 43.4418 16.8025Z" fill="#8795DE"/>
<path d="M26.4549 12.7647C26.8371 13.4255 26.9064 14.1806 26.7088 14.8611L25.3047 11.6917C25.7705 11.918 26.1762 12.2818 26.4549 12.7647Z" fill="#6C7FD8"/>
<path d="M33.7777 8.82959V14.2145C32.2912 14.2145 31.0859 13.0092 31.0859 11.5214C31.0859 10.0348 32.2912 8.82959 33.7777 8.82959Z" fill="#6C7FD8"/>
<path d="M35.945 61.2754C35.2299 61.3267 34.509 61.3517 33.7808 61.3517C16.9315 61.3517 3.27344 47.6924 3.27344 30.8443C3.27344 13.9961 16.9315 0.336914 33.7808 0.336914C34.5089 0.336914 35.2299 0.361908 35.945 0.413205C20.1061 1.52145 7.60056 14.7231 7.60056 30.8443C7.60056 46.9655 20.1061 60.1671 35.945 61.2754Z" fill="#FE7D43"/>
<path d="M33.7797 32.6319C32.7925 32.6319 31.9922 31.8316 31.9922 30.8444V15.1567C31.9922 14.1695 32.7925 13.3691 33.7797 13.3691C34.7669 13.3691 35.5673 14.1695 35.5673 15.1567V30.8442C35.5673 31.8316 34.7669 32.6319 33.7797 32.6319Z" fill="#685E68"/>
<path d="M32.1465 31.5726L27.6556 21.507C27.2533 20.6054 27.6581 19.5484 28.5597 19.1463C29.4612 18.744 30.5182 19.1488 30.9204 20.0504L35.4113 30.116C35.8136 31.0175 35.4089 32.0745 34.5072 32.4767C33.6057 32.8788 32.5488 32.4741 32.1465 31.5726Z" fill="#685E68"/>
<path d="M33.778 35.8645C36.5505 35.8645 38.7981 33.6169 38.7981 30.8444C38.7981 28.0718 36.5505 25.8242 33.778 25.8242C31.0054 25.8242 28.7578 28.0718 28.7578 30.8444C28.7578 33.6169 31.0054 35.8645 33.778 35.8645Z" fill="#FE9738"/>
<path d="M35.2429 35.648C34.7793 35.7887 34.2885 35.8649 33.7784 35.8649C31.0053 35.8649 28.7578 33.6174 28.7578 30.8443C28.7578 28.0725 31.0053 25.825 33.7784 25.825C34.2885 25.825 34.7794 25.9012 35.2429 26.0431C33.1837 26.6676 31.6857 28.5814 31.6857 30.8445C31.6858 33.1085 33.1837 35.0224 35.2429 35.648Z" fill="#FE7D43"/>
<path d="M29.9395 39.8633L17.9216 60.679C16.2132 63.6378 18.3486 67.3364 21.7653 67.3364H45.8012C49.2178 67.3364 51.3532 63.6378 49.6449 60.679L37.6269 39.8633C35.9185 36.9043 31.6478 36.9043 29.9395 39.8633Z" fill="#FFDD33"/>
<path d="M35.2804 37.8995C34.3422 38.2306 33.4981 38.8862 32.9328 39.8637L20.9147 60.6782C19.2057 63.6382 21.3413 67.3363 24.758 67.3363H21.7653C18.3485 67.3363 16.2129 63.6382 17.9219 60.6782L29.94 39.8637C31.0838 37.8812 33.3777 37.2269 35.2804 37.8995Z" fill="#FFBF4D"/>
<path d="M33.7816 63.7502C35.1064 63.7502 36.1804 62.6762 36.1804 61.3514C36.1804 60.0266 35.1064 58.9526 33.7816 58.9526C32.4568 58.9526 31.3828 60.0266 31.3828 61.3514C31.3828 62.6762 32.4568 63.7502 33.7816 63.7502Z" fill="#FE646F"/>
<path d="M33.7816 43.6501C32.4568 43.6501 31.3828 44.7241 31.3828 46.0489V55.226C31.3828 56.5508 32.4568 57.6247 33.7816 57.6247C35.1064 57.6247 36.1804 56.5508 36.1804 55.226V46.0489C36.1804 44.7241 35.1064 43.6501 33.7816 43.6501Z" fill="#FE646F"/>
</g>
<defs>
<clipPath id="clip0_10876_119813">
<rect width="67" height="67" fill="white" transform="translate(0.28125 0.336914)"/>
</clipPath>
</defs>
</svg>
