<svg width="134" height="133" viewBox="0 0 134 133" fill="none" xmlns="http://www.w3.org/2000/svg">
<path d="M129.158 66.2968C129.158 71.6007 122.642 75.9722 121.337 80.8618C119.99 85.9171 123.398 92.9613 120.84 97.3847C118.239 101.881 110.418 102.419 106.772 106.066C103.125 109.712 102.587 117.533 98.0907 120.133C93.6674 122.692 86.6231 119.284 81.5678 120.631C76.6783 121.936 72.3067 128.452 67.0028 128.452C61.6989 128.452 57.3273 121.936 52.4378 120.631C47.3825 119.284 40.3382 122.692 35.9149 120.133C31.419 117.533 30.8803 109.712 27.2339 106.066C23.5874 102.419 15.7662 101.881 13.1661 97.3847C10.6074 92.9613 14.0155 85.9171 12.6688 80.8618C11.3636 75.9722 4.84766 71.6007 4.84766 66.2968C4.84766 60.9928 11.3636 56.6213 12.6688 51.7317C14.0155 46.6764 10.6074 39.6322 13.1661 35.2088C15.7662 30.7129 23.5874 30.1743 27.2339 26.5278C30.8803 22.8814 31.419 15.0602 35.9149 12.46C40.3382 9.90131 47.3825 13.3095 52.4378 11.9628C57.3273 10.6575 61.6989 4.1416 67.0028 4.1416C72.3067 4.1416 76.6783 10.6575 81.5678 11.9628C86.6231 13.3095 93.6674 9.90131 98.0907 12.46C102.587 15.0602 103.125 22.8814 106.772 26.5278C110.418 30.1743 118.239 30.7129 120.84 35.2088C123.398 39.6322 119.99 46.6764 121.337 51.7317C122.642 56.6213 129.158 60.9928 129.158 66.2968Z" fill="#E9F3FC"/>
<path d="M84.9633 47.8102L61.3029 71.4706L49.0376 59.2157C46.3753 56.5534 42.0555 56.5534 39.3932 59.2157C36.7309 61.878 36.7309 66.1978 39.3932 68.8601L56.5998 86.0667C59.1896 88.6565 63.3955 88.6565 65.9853 86.0667L94.5974 57.4546C97.2597 54.7923 97.2597 50.4725 94.5974 47.8102C91.935 45.1479 87.6256 45.1479 84.9633 47.8102Z" fill="#347BFA"/>
</svg>
